<?xml version="1.0" encoding="utf-8"?>
<svg version="1.1" xmlns:xlink="http://www.w3.org/1999/xlink" width="40px" height="40px" xmlns="http://www.w3.org/2000/svg">
  <defs>
    <mask fill="white" id="clip5558">
      <path d="M 19.75308641975306 40  C 31.0459259259259 40  40 31.045925925925953  40 20.246913580246858  C 40 8.954074074074049  31.0459259259259 0  19.75308641975306 0  C 8.954074074074091 0  0 8.954074074074049  0 20.246913580246858  C 0 31.045925925925953  8.954074074074091 40  19.75308641975306 40  Z " fill-rule="evenodd" />
    </mask>
  </defs>
  <g transform="matrix(1 0 0 1 -1412 -986 )">
    <path d="M 19.75308641975306 40  C 31.0459259259259 40  40 31.045925925925953  40 20.246913580246858  C 40 8.954074074074049  31.0459259259259 0  19.75308641975306 0  C 8.954074074074091 0  0 8.954074074074049  0 20.246913580246858  C 0 31.045925925925953  8.954074074074091 40  19.75308641975306 40  Z " fill-rule="nonzero" fill="#4fabf8" stroke="none" fill-opacity="0" transform="matrix(1 0 0 1 1412 986 )" />
    <path d="M 19.75308641975306 40  C 31.0459259259259 40  40 31.045925925925953  40 20.246913580246858  C 40 8.954074074074049  31.0459259259259 0  19.75308641975306 0  C 8.954074074074091 0  0 8.954074074074049  0 20.246913580246858  C 0 31.045925925925953  8.954074074074091 40  19.75308641975306 40  Z " stroke-width="6" stroke="#d6d6d6" fill="none" transform="matrix(1 0 0 1 1412 986 )" mask="url(#clip5558)" />
  </g>
</svg>