<?xml version="1.0" encoding="utf-8"?>
<svg version="1.1" xmlns:xlink="http://www.w3.org/1999/xlink" width="10px" height="9px" xmlns="http://www.w3.org/2000/svg">
  <g transform="matrix(1 0 0 1 -495 -401 )">
    <path d="M 4.149999999999997 1.1153547169811262  C 3.361081081081083 0.17095471698112732  2.269459459459457 -0.11884528301887513  1.3716216216216184 0.3776547169811252  C -0.34108108108108115 1.325354716981127  -0.41513513513513556 3.7994547169811272  1.228378378378375 5.181554716981127  C 1.3105405405405377 5.250554716981128  2.0991891891891883 6.099854716981125  2.981081081081081 7.068854716981126  L 4.584594594594593 8.830754716981128  L 4.984864864864862 8.780654716981127  C 5.369729729729729 8.732354716981135  5.45027027027027 8.658254716981132  7.033243243243242 6.893054716981126  C 7.9397297297297325 5.882654716981128  8.844324324324322 4.883954716981125  9.043243243243245 4.674254716981126  C 9.902432432432436 3.768854716981126  10.085675675675677 2.2346547169811246  9.437837837837835 1.3712547169811244  C 9.324324324324325 1.2200547169811273  9.231351351351353 1.0103547169811278  9.231351351351353 0.9056547169811268  C 9.231351351351353 0.8009547169811255  9.162162162162165 0.6890547169811285  9.077837837837837 0.6572547169811258  C 8.993243243243246 0.6254547169811275  8.719189189189189 0.4952547169811282  8.46891891891892 0.36805471698112624  C 7.560000000000002 -0.09334528301887275  6.581891891891894 0.1706547169811259  5.660810810810809 1.125854716981125  C 5.021621621621625 1.7882547169811247  4.710540540540541 1.7861547169811276  4.149999999999997 1.1153547169811262  Z " fill-rule="nonzero" fill="#f05154" stroke="none" transform="matrix(1 0 0 1 495 401 )" />
  </g>
</svg>