<?xml version="1.0" encoding="utf-8"?>
<svg version="1.1" xmlns:xlink="http://www.w3.org/1999/xlink" width="60px" height="60px" xmlns="http://www.w3.org/2000/svg">
  <g transform="matrix(1 0 0 1 -484 -388 )">
    <path d="M 37.34356164383561 26.962252033927644  C 37.16602739726028 26.783903410074434  33.807945205479456 26.764912584386355  33.69397260273973 26.941885061450577  C 33.654520547945204 27.00326120823957  33.60219178082192 27.41527955686342  33.57753424657534 27.85784836420287  L 33.533150684931506 28.66206854768911  L 28.71205479452055 28.706655703652412  C 25.30630136986301 28.738307079799206  23.861095890410954 28.78096763025792  23.79041095890411 28.851976804569844  C 23.394246575342468 29.250233685303787  23.425479452054788 32.43271074952398  23.827671232876714 32.66445386879003  C 23.96520547945206 32.743719923835904  25.286027397260277 32.78445386879003  28.77424657534247 32.81720616236801  L 33.533150684931506 32.86179331833131  L 33.5586301369863 33.837206162368005  C 33.58904109589041 35.00693093301021  33.65095890410959 34.932068547689106  32.553698630136985 35.0531694651203  C 29.742739726027402 35.36280249264324  26.556164383561647 36.66436212567076  25.27068493150685 38.02757313484508  C 23.294520547945208 40.123444694478096  22.56109589041096 42.652252033927645  23.348219178082193 44.657297905487276  C 23.386849315068492 44.75583001557902  23.487397260273976 45.037114419248745  23.571780821917812 45.282894235762505  C 25.315342465753428 50.35784836420287  33.574246575342464 51.29748139172581  36.55534246575342 46.760050199065255  C 37.41589041095891 45.449958455945996  37.49260273972603 45.0588575385148  37.517260273972596 41.843628180716635  C 37.53780821917809 39.15794010732214  37.53780821917809 39.15738964860655  38.05917808219178 39.41665570365242  C 38.1627397260274 39.46812359356067  38.42767123287671 39.56968322658819  38.64794520547945 39.64206854768911  C 39.44082191780822 39.90326120823957  40.30301369863013 40.35408689631296  41.23315068493151 40.9937199238359  C 41.67643835616438 41.29867405227627  41.79479452054794 41.409316254111125  42.37068493150685 42.0591327678726  C 43.114794520547946 42.8983070797992  43.22465753424658 43.075004327505624  43.85123287671233 44.43408689631296  C 44.08821917808219 44.94821533667994  44.37534246575343 46.258857538514796  44.48191780821917 47.31298597888177  C 44.57506849315069 48.232252033927644  44.57397260273973 48.23170157521205  46.475890410958904 48.23170157521205  C 48.70904109589041 48.23170157521205  48.67561643835616 48.29335295135883  48.15643835616439 45.148857538514804  C 47.95041095890411 43.901793318331315  47.15150684931507 41.80729790548727  46.59890410958904 41.066655703652415  C 46.48219178082193 40.91032542842305  46.386849315068496 40.74271074952397  46.386849315068496 40.694270382551494  C 46.386849315068496 40.64610524493681  46.356712328767124 40.59298597888177  46.31999999999999 40.576747446771684  C 46.283287671232884 40.56023368530379  46.07479452054795 40.305646529340486  45.85616438356164 40.01060065778085  C 44.28000000000001 37.88225203392764  41.52 36.16509607062489  38.52849315068493 35.45170157521204  C 38.04684931506849 35.33693093301021  37.63123287671233 35.221334602734984  37.60493150684932 35.19491258438636  C 37.54109589041096 35.13078414401939  37.48739726027398 33.17060065778085  37.54438356164383 32.97876579539553  C 37.5854794520548 32.83977496970746  37.99232876712328 32.82573827245975  42.70739726027398 32.80014194218452  L 47.825753424657535 32.77261900640471  L 47.99589041095891 32.561518088973514  C 48.25369863013698 32.24170157521205  48.25369863013698 29.282160290808378  47.99589041095891 28.962343777046907  L 47.825753424657535 28.75124285961572  L 42.728767123287675 28.72564652934048  C 37.15643835616439 28.69784836420287  37.45041095890411 28.73060065778085  37.54301369863014 28.14821533667994  C 37.61123287671233 27.7183070797992  37.51260273972602 27.13206854768911  37.34356164383561 26.962252033927644  Z M 13.830410958904107 0.2454630431019505  C 13.830410958904107 0.10784836420286789  13.779178082191784 0.09216029080837189  13.585753424657533 0.17060065778084996  C 13.411232876712328 0.2413346027349778  13.455616438356163 0.3794997403496574  13.652328767123285 0.3794997403496574  C 13.751232876712331 0.3794997403496574  13.830410958904107 0.31977496970745595  13.830410958904107 0.2454630431019505  Z M 0.9323287671232893 9.315371299982685  C 0.8832876712328778 9.315371299982685  0.8432876712328776 9.416105244936812  0.8432876712328776 9.538857538514794  C 0.8432876712328776 9.661885061450576  0.8832876712328778 9.762343777046903  0.9323287671232893 9.762343777046903  C 0.9810958904109597 9.762343777046903  1.02109589041096 9.661885061450576  1.02109589041096 9.538857538514794  C 1.02109589041096 9.416105244936812  0.9810958904109597 9.315371299982685  0.9323287671232893 9.315371299982685  Z M 59.41835616438356 9.494270382551493  C 59.32493150684932 9.494270382551493  59.28493150684931 9.588398822918466  59.28493150684931 9.806930933010209  C 59.28493150684931 10.02546304310195  59.32493150684932 10.119591483468922  59.41835616438356 10.119591483468922  C 59.51150684931507 10.119591483468922  59.5517808219178 10.02546304310195  59.5517808219178 9.806930933010209  C 59.5517808219178 9.588398822918466  59.51150684931507 9.494270382551493  59.41835616438356 9.494270382551493  Z M 0.7098630136986286 10.119591483468922  C 0.6210958904109578 10.119591483468922  0.5764383561643833 10.208765795395529  0.5764383561643833 10.384912584386353  C 0.5764383561643833 10.584178639432226  0.6095890410958889 10.63757313484507  0.7098630136986286 10.59876579539553  C 0.7832876712328752 10.570417171542319  0.8432876712328776 10.45124285961571  0.8432876712328776 10.333444694478096  C 0.8432876712328776 10.202985978881765  0.7912328767123302 10.119591483468922  0.7098630136986286 10.119591483468922  Z M 59.640547945205476 10.566563960533145  C 59.59178082191781 10.566563960533145  59.5517808219178 10.64940799723039  59.5517808219178 10.750417171542317  C 59.5517808219178 10.851701575212042  59.59178082191781 10.909774969707458  59.640547945205476 10.87922451099186  C 59.68958904109589 10.848949281634063  59.729589041095885 10.766105244936814  59.729589041095885 10.695371299982682  C 59.729589041095885 10.624362125670759  59.68958904109589 10.566563960533145  59.640547945205476 10.566563960533145  Z M 34.733972602739726 10.855830015579013  C 34.66054794520547 10.862710749523968  34.24027397260274 10.916380474294613  33.800000000000004 10.975004327505621  C 32.64273972602739 11.129132767872594  31.503287671232876 11.399407997230393  31.313698630136983 11.56509607062489  C 31.267397260273977 11.605554786221216  31.16712328767123 11.638857538514797  31.091232876712326 11.638857538514797  C 30.973150684931504 11.638857538514797  29.92767123287671 12.099041024753328  29.475068493150687 12.350325428423051  C 29.395616438356168 12.394362125670757  29.015342465753427 12.599958455945986  28.62986301369863 12.807481391725805  C 28.24438356164384 13.014729098147823  27.855616438356165 13.248674052276261  27.765479452054795 13.327664877964338  C 27.21534246575343 13.809316254111126  25.454794520547946 14.704912584386353  24.667397260273976 14.90390341007443  C 24.357534246575344 14.982343777046907  23.981369863013704 15.083903410074429  23.83095890410959 15.129866712826724  C 23.68082191780822 15.175554786221216  23.416712328767126 15.213261208239565  23.244383561643836 15.213261208239565  C 22.670958904109586 15.213261208239565  22.636438356164383 15.325554786221216  22.636438356164383 17.202068547689105  C 22.636438356164383 19.193352951358833  22.613698630136987 19.145187813744155  23.554520547945202 19.144912584386354  C 24.76602739726027 19.144912584386354  26.312328767123287 18.70014194218452  27.795890410958908 17.925371299982686  C 28.614246575342467 17.497940107322133  28.662739726027397 17.470417171542316  29.95342465753425 16.701701575212045  C 30.937260273972598 16.116013501817548  32.68821917808219 15.261701575212044  33.088493150684926 15.17197680456984  C 34.786849315068494 14.791885061450573  36.84328767123288 14.931701575212045  38.24767123287672 15.523169465120302  C 39.009863013698634 15.844086896312962  40.97369863013699 16.83105937337718  42.07260273972602 17.445371299982682  C 43.6986301369863 18.354453868790024  44.90739726027397 18.930784144019384  45.530684931506855 19.0937199238359  C 45.807123287671246 19.166105244936812  46.06876712328768 19.247297905487272  46.11205479452056 19.274270382551492  C 46.24657534246576 19.357664877964336  47.56986301369863 19.591885061450572  47.89890410958905 19.590508914661584  C 48.54301369863014 19.587756621083603  48.61068493150684 19.39812359356067  48.61068493150684 17.59124285961571  C 48.61068493150684 15.631885061450575  48.58849315068493 15.59225203392764  47.40958904109589 15.43729790548727  C 46.67972602739725 15.341518088973508  45.48383561643836 14.844453868790023  44.37287671232877 14.175096070624885  C 44.21917808219179 14.082619006404702  43.85890410958904 13.86986671282672  43.57232876712328 13.70225203392764  C 43.28575342465753 13.534637355028556  43.00438356164384 13.361793318331308  42.94712328767123 13.317481391725803  C 42.81863013698631 13.218674052276263  40.59561643835617 12.131518088973511  40.36904109589042 12.056930933010207  C 40.278630136986294 12.027206162368005  40.06438356164384 11.947114419248738  39.893150684931506 11.878857538514797  C 38.42712328767123 11.295921758698281  37.46082191780822 11.066930933010209  35.89643835616438 10.93179331833131  C 35.3304109589041 10.882802492643238  34.80739726027397 10.848674052276262  34.733972602739726 10.855830015579013  Z M 0.532054794520546 11.370784144019384  C 0.4386301369863011 11.370784144019384  0.3986301369863009 11.465187813744155  0.3986301369863009 11.683444694478096  C 0.3986301369863009 11.90197680456984  0.4386301369863011 11.996380474294611  0.532054794520546 11.996380474294611  C 0.6252054794520537 11.996380474294611  0.6654794520547951 11.90197680456984  0.6654794520547951 11.683444694478096  C 0.6654794520547951 11.465187813744155  0.6252054794520537 11.370784144019384  0.532054794520546 11.370784144019384  Z M 0.3095890410958892 13.64940799723039  C 0.26054794520547764 13.619132767872593  0.22054794520548132 13.676930933010205  0.22054794520548132 13.778215336679933  C 0.22054794520548132 13.879499740349658  0.26054794520547764 13.962343777046906  0.3095890410958892 13.962343777046906  C 0.35835616438356355 13.962343777046906  0.3986301369863009 13.904270382551493  0.3986301369863009 13.833536437597363  C 0.3986301369863009 13.762527263285437  0.35835616438356355 13.67995845594599  0.3095890410958892 13.64940799723039  Z M 33.31342465753424 19.815371299982687  C 32.57890410958905 18.84628873117535  32.45534246575342 18.78105937337718  31.916438356164385 19.078031850441402  C 31.4131506849315 19.35573827245975  30.75205479452055 19.778765795395525  30.474246575342466 20.00115111649645  C 29.86547945205479 20.488582309157  26.146027397260273 22.447114419248745  25.393972602739723 22.676380474294614  C 25.271780821917805 22.713536437597366  24.971506849315066 22.832710749523976  24.72684931506849 22.94115111649645  C 24.48219178082192 23.049591483468927  24.151506849315066 23.189958455945987  23.992054794520545 23.25298597888177  C 23.60219178082192 23.407114419248746  23.484657534246573 24.157664877964343  23.789041095890415 24.551518088973513  C 23.82684931506849 24.600508914661585  23.87945205479452 24.741151116496454  23.90547945205479 24.864178639432232  C 23.93178082191781 24.986930933010214  24.09342465753425 25.486472217413883  24.26493150684932 25.974178639432232  C 24.75506849315068 27.368765795395532  24.65068493150685 27.363261208239567  27.484383561643842 26.142343777046904  C 29.801917808219173 25.143811666955166  33.3358904109589 23.100784144019386  34.40054794520548 22.144362125670767  C 34.74684931506849 21.83335295135884  34.59287671232877 21.503352951358835  33.31342465753424 19.815371299982687  Z M 40.2358904109589 19.435554786221214  C 39.29561643835616 18.787664877964335  39.00602739726028 18.78849056603773  38.53013698630137 19.43940799723039  C 38.34273972602739 19.695371299982686  37.912602739726026 20.282160290808374  37.57369863013699 20.743169465120303  C 36.70301369863014 21.928582309156997  36.75369863013699 22.058215336679933  38.500547945205476 23.11261900640471  C 38.655068493150694 23.205646529340488  39.04164383561644 23.45225203392764  39.35945205479452 23.660600657780854  C 39.67753424657535 23.868674052276265  40.04493150684931 24.09381166695517  40.1758904109589 24.16124285961572  C 40.30712328767124 24.22839882291847  40.74739726027397 24.470325428423056  41.154520547945204 24.698765795395527  C 42.689863013698634 25.561059373377184  44.996712328767124 26.609132767872595  46.22684931506849 27.00353643759737  C 46.84383561643836 27.201426345854248  46.90493150684931 27.11445386879003  47.595890410958916 25.058490566037737  C 48.135068493150676 23.453077722001037  48.13150684931507 23.443169465120302  46.83150684931507 22.94940799723039  C 46.46465753424658 22.810141942184522  45.82410958904109 22.536013501817553  45.40821917808219 22.340600657780854  C 44.99232876712328 22.144912584386354  44.47205479452054 21.900784144019383  44.25178082191781 21.79812359356067  C 44.031780821917806 21.69518781374416  43.27123287671233 21.275738272459755  42.56191780821918 20.865371299982687  C 40.928219178082195 19.920784144019386  41.038356164383565 19.98849056603774  40.2358904109589 19.435554786221214  Z M 13.896986301369859 23.386196988056085  C 13.783013698630134 23.34216029080838  13.741095890410959 23.370508914661585  13.740821917808217 23.491885061450574  C 13.684109589041096 38.49105937337718  13.753972602739726 47.971334602734984  13.922191780821919 48.14060065778085  C 14.195342465753422 48.41472909814782  18.30849315068493 48.421059373377176  18.50739726027397 48.14775662108361  C 18.614794520547942 48.00023368530379  18.636712328767125 46.22610524493682  18.65342465753425 36.35225203392764  C 18.664383561643834 29.960050199065257  18.674246575342465 24.471701575212045  18.675890410958903 24.155738272459754  C 18.67890410958904 23.495187813744153  18.5654794520548 23.30748139172581  18.23890410958904 23.432435520166173  C 17.96383561643836 23.53729790548727  15.914794520547947 23.726380474294615  15.717260273972602 23.665004327505628  C 15.63342465753425 23.639132767872592  15.224657534246573 23.579407997230398  14.80876712328767 23.532343777046904  C 14.392876712328764 23.48527955686342  13.982739726027399 23.419499740349657  13.896986301369859 23.386196988056085  Z M 59.87205479452056 47.398582309157  C 59.74136986301369 47.26702267612948  59.729589041095885 47.28271074952397  59.729589041095885 47.587114419248735  C 59.729589041095885 47.94876579539554  59.85999999999999 48.03160983209278  59.95506849315069 47.73050891466159  C 59.993150684931514 47.60995845594599  59.96328767123287 47.489958455945995  59.87205479452056 47.398582309157  Z M 0.5964383561643855 48.886472217413875  C 0.5372602739726023 48.82702267612948  0.48602739726027416 48.83197680456985  0.44301369863013823 48.902160290808375  C 0.40739726027397116 48.9596832265882  0.41835616438356193 49.04720616236801  0.46739726027397344 49.09619698805608  C 0.5265753424657525 49.155921758698284  0.5778082191780807 49.15069240090012  0.6208219178082207 49.08078414401939  C 0.6564383561643838 49.02298597888177  0.645479452054793 48.93573827245975  0.5964383561643855 48.886472217413875  Z M 59.640547945205476 49.4383070797992  C 59.59178082191781 49.4383070797992  59.5517808219178 49.51867405227626  59.5517808219178 49.61693093301021  C 59.5517808219178 49.71518781374415  59.59178082191781 49.79555478622122  59.640547945205476 49.79555478622122  C 59.68958904109589 49.79555478622122  59.729589041095885 49.71518781374415  59.729589041095885 49.61693093301021  C 59.729589041095885 49.51867405227626  59.68958904109589 49.4383070797992  59.640547945205476 49.4383070797992  Z M 59.5517808219178 50.46573827245975  C 59.5517808219178 50.327573134845075  59.44684931506849 50.28821533667994  59.346575342465755 50.38894928163407  C 59.275342465753425 50.46023368530379  59.3558904109589 50.59977496970746  59.46794520547945 50.59977496970746  C 59.51397260273973 50.59977496970746  59.5517808219178 50.539499740349655  59.5517808219178 50.46573827245975  Z M 53.41397260273973 58.284729098147814  C 53.36493150684932 58.284729098147814  53.324931506849325 58.34527955686342  53.324931506849325 58.41876579539552  C 53.324931506849325 58.492527263285425  53.36493150684932 58.552802492643224  53.41397260273973 58.552802492643224  C 53.46301369863013 58.552802492643224  53.50301369863014 58.492527263285425  53.50301369863014 58.41876579539552  C 53.50301369863014 58.34527955686342  53.46301369863013 58.284729098147814  53.41397260273973 58.284729098147814  Z M 53.013698630136986 58.52060065778085  C 52.93232876712328 58.48922451099185  52.88027397260274 58.52060065778085  52.88027397260274 58.600417171542304  C 52.88027397260274 58.672527263285424  52.940273972602746 58.731701575212035  53.013698630136986 58.731701575212035  C 53.087123287671226 58.731701575212035  53.14712328767124 58.69564652934047  53.14712328767124 58.651885061450564  C 53.14712328767124 58.607848364202866  53.087123287671226 58.54894928163406  53.013698630136986 58.52060065778085  Z M 52.56904109589042 58.731701575212035  C 52.49561643835616 58.731701575212035  52.43561643835616 58.771885061450575  52.43561643835616 58.82115111649644  C 52.43561643835616 58.87014194218451  52.49561643835616 58.91032542842305  52.56904109589042 58.91032542842305  C 52.64219178082192 58.91032542842305  52.702465753424654 58.87014194218451  52.702465753424654 58.82115111649644  C 52.702465753424654 58.771885061450575  52.64219178082192 58.731701575212035  52.56904109589042 58.731701575212035  Z M 52.210410958904106 58.91032542842305  C 52.138356164383566 58.91032542842305  52.079726027397264 58.97060065778085  52.079726027397264 59.04436212567075  C 52.079726027397264 59.11812359356066  52.11534246575342 59.17839882291846  52.15917808219177 59.17839882291846  C 52.2027397260274 59.17839882291846  52.26164383561644 59.11812359356066  52.289863013698636 59.04436212567075  C 52.32109589041095 58.96289423576249  52.289863013698636 58.91032542842305  52.210410958904106 58.91032542842305  Z M 51.76849315068493 59.17839882291846  C 51.695068493150686 59.17839882291846  51.63506849315068 59.21858230915699  51.63506849315068 59.26784836420286  C 51.63506849315068 59.316839189890935  51.695068493150686 59.357297905487265  51.76849315068493 59.357297905487265  C 51.84164383561643 59.357297905487265  51.90191780821918 59.316839189890935  51.90191780821918 59.26784836420286  C 51.90191780821918 59.21858230915699  51.84164383561643 59.17839882291846  51.76849315068493 59.17839882291846  Z M 59.373698630136985 9.136747446771675  C 59.373698630136985 8.866196988056078  59.161095890410955 8.751426345854247  59.08438356164384 8.980417171542317  C 59.02328767123288 9.162619006404704  59.118356164383556 9.404820841267089  59.25068493150685 9.404820841267089  C 59.32821917808219 9.404820841267089  59.373698630136985 9.30546304310195  59.373698630136985 9.136747446771675  Z M 51.14575342465754 59.357297905487265  C 51.07232876712328 59.357297905487265  51.012328767123286 59.3974813917258  51.012328767123286 59.44647221741387  C 51.012328767123286 59.49573827245975  51.07232876712328 59.535921758698265  51.14575342465754 59.535921758698265  C 51.21917808219178 59.535921758698265  51.27917808219178 59.49573827245975  51.27917808219178 59.44647221741387  C 51.27917808219178 59.3974813917258  51.21917808219178 59.357297905487265  51.14575342465754 59.357297905487265  Z M 1.1608219178082178 8.690050199065253  C 1.0698630136986305 8.690050199065253  1.02109589041096 8.770692400900115  1.02109589041096 8.920692400900117  C 1.02109589041096 9.200875887138649  1.2301369863013685 9.170050199065253  1.2720547945205483 8.884086896312962  C 1.29095890410959 8.755279556863421  1.2534246575342474 8.690050199065253  1.1608219178082178 8.690050199065253  Z M 1.5547945205479443 7.6177566210836005  C 1.506027397260274 7.6177566210836005  1.4660273972602738 7.678031850441402  1.4660273972602738 7.751793318331309  C 1.4660273972602738 7.825279556863418  1.506027397260274 7.885830015579013  1.5547945205479443 7.885830015579013  C 1.6038356164383558 7.885830015579013  1.643835616438356 7.825279556863418  1.643835616438356 7.751793318331309  C 1.643835616438356 7.678031850441402  1.6038356164383558 7.6177566210836005  1.5547945205479443 7.6177566210836005  Z M 11.384109589041094 0.3794997403496574  C 11.261917808219177 0.3794997403496574  11.16164383561644 0.41968322658818974  11.16164383561644 0.46894928163406185  C 11.16164383561644 0.5179401073221346  11.261917808219177 0.5581235935606668  11.384109589041094 0.5581235935606668  C 11.506301369863012 0.5581235935606668  11.606575342465755 0.5179401073221346  11.606575342465755 0.46894928163406185  C 11.606575342465755 0.41968322658818974  11.506301369863012 0.3794997403496574  11.384109589041094 0.3794997403496574  Z M 48.927123287671236 0.3794997403496574  C 48.75315068493151 0.3794997403496574  48.61068493150684 0.41968322658818974  48.61068493150684 0.46894928163406185  C 48.61068493150684 0.5179401073221346  48.72821917808219 0.5581235935606668  48.872054794520544 0.5581235935606668  C 49.01616438356164 0.5581235935606668  49.15863013698629 0.5179401073221346  49.18876712328766 0.46894928163406185  C 49.221369863013706 0.4155547862212171  49.11561643835616 0.3794997403496574  48.927123287671236 0.3794997403496574  Z M 10.2613698630137 0.5581235935606668  C 10.103561643835612 0.5581235935606668  10.090684931506846 0.5801419421845196  10.183287671232879 0.6921602908083738  C 10.244109589041093 0.7659217586982803  10.329041095890409 0.8261969880560787  10.37205479452055 0.8261969880560787  C 10.415068493150681 0.8261969880560787  10.45013698630137 0.7659217586982803  10.45013698630137 0.6921602908083738  C 10.45013698630137 0.6150960706248871  10.369863013698629 0.5581235935606668  10.2613698630137 0.5581235935606668  Z M 49.989315068493156 0.5581235935606668  C 49.850958904109596 0.5581235935606668  49.7668493150685 0.6087657953955286  49.7668493150685 0.6921602908083738  C 49.7668493150685 0.775554786221217  49.850958904109596 0.8261969880560787  49.989315068493156 0.8261969880560787  C 50.127671232876715 0.8261969880560787  50.21178082191781 0.775554786221217  50.21178082191781 0.6921602908083738  C 50.21178082191781 0.6087657953955286  50.127671232876715 0.5581235935606668  49.989315068493156 0.5581235935606668  Z M 9.471506849315068 0.7370226761294738  C 9.37287671232877 0.7370226761294738  9.293698630136985 0.7964722174138777  9.293698630136985 0.8710593733771808  C 9.293698630136985 0.9453712999826843  9.37287671232877 1.0050960706248857  9.471506849315068 1.0050960706248857  C 9.570410958904107 1.0050960706248857  9.649589041095892 0.9453712999826843  9.649589041095892 0.8710593733771808  C 9.649589041095892 0.7964722174138777  9.570410958904107 0.7370226761294738  9.471506849315068 0.7370226761294738  Z M 50.5827397260274 0.7529859788817673  C 50.4545205479452 0.7339951531936932  50.3895890410959 0.771701575212042  50.3895890410959 0.8647290981478221  C 50.3895890410959 0.9558300155790156  50.46986301369862 1.0050960706248857  50.61945205479452 1.0050960706248857  C 50.89808219178082 1.0050960706248857  50.86767123287671 0.7950960706248862  50.5827397260274 0.7529859788817673  Z M 8.804383561643835 1.0050960706248857  C 8.731232876712328 1.0050960706248857  8.670958904109588 1.0452795568634181  8.670958904109588 1.0942703825514926  C 8.670958904109588 1.1435364375973627  8.731232876712328 1.183719923835895  8.804383561643835 1.183719923835895  C 8.877808219178082 1.183719923835895  8.937808219178084 1.1435364375973627  8.937808219178084 1.0942703825514926  C 8.937808219178084 1.0452795568634181  8.877808219178082 1.0050960706248857  8.804383561643835 1.0050960706248857  Z M 51.323561643835625 1.0050960706248857  C 51.250136986301364 1.0050960706248857  51.19013698630137 1.0452795568634181  51.19013698630137 1.0942703825514926  C 51.19013698630137 1.1435364375973627  51.250136986301364 1.183719923835895  51.323561643835625 1.183719923835895  C 51.39698630136986 1.183719923835895  51.45698630136986 1.1435364375973627  51.45698630136986 1.0942703825514926  C 51.45698630136986 1.0452795568634181  51.39698630136986 1.0050960706248857  51.323561643835625 1.0050960706248857  Z M 52.39041095890412 1.4193162541111248  C 52.309863013698624 1.3882153366799326  52.25753424657535 1.4195914834689223  52.25753424657535 1.4991327678725925  C 52.25753424657535 1.6439034100744285  52.39671232876712 1.67665570365241  52.47424657534247 1.5506006577808509  C 52.50136986301369 1.5065639605331433  52.463561643835625 1.447389648606539  52.39041095890412 1.4193162541111248  Z M 58.92904109589041 8.069683226588191  C 58.92904109589041 7.841793318331309  58.76520547945206 7.744912584386354  58.69424657534246 7.9306924009001145  C 58.66356164383562 8.010784144019384  58.680273972602734 8.164362125670756  58.73123287671233 8.271426345854243  C 58.78219178082192 8.378765795395527  58.84630136986301 8.537022676129473  58.873698630136985 8.6228942357625  C 58.953972602739725 8.875554786221217  59.106849315068494 8.802343777046904  59.106849315068494 8.511151116496446  C 59.106849315068494 8.36390341007443  59.06684931506849 8.243077722001033  59.01808219178082 8.243077722001033  C 58.96904109589042 8.243077722001033  58.92904109589041 8.165187813744152  58.92904109589041 8.069683226588191  Z M 7.381369863013696 1.6304171715423186  C 7.307945205479454 1.6304171715423186  7.247945205479452 1.6706006577808508  7.247945205479452 1.7198667128267209  C 7.247945205479452 1.769132767872593  7.307945205479454 1.8093162541111254  7.381369863013696 1.8093162541111254  C 7.454520547945206 1.8093162541111254  7.5147945205479445 1.769132767872593  7.5147945205479445 1.7198667128267209  C 7.5147945205479445 1.6706006577808508  7.454520547945206 1.6304171715423186  7.381369863013696 1.6304171715423186  Z M 5.9134246575342475 2.4346373550285563  C 5.864657534246577 2.4346373550285563  5.824657534246576 2.4748208412670882  5.824657534246576 2.524086896312961  C 5.824657534246576 2.5733529513588325  5.764657534246575 2.613536437597365  5.691232876712327 2.613536437597365  C 5.617808219178081 2.613536437597365  5.557808219178082 2.673811666955162  5.557808219178082 2.7475731348450703  C 5.557808219178082 2.91683918989094  5.71013698630137 2.919866712826723  5.875342465753423 2.753903410074427  C 6.022465753424657 2.6061052449368143  6.043013698630137 2.4346373550285563  5.9134246575342475 2.4346373550285563  Z M 5.290958904109589 3.12986671282672  C 5.290958904109589 2.9861969880560806  4.973424657534248 3.0671144192487403  4.867397260273974 3.2377566210836037  C 4.734246575342467 3.4521602908083735  4.729589041095892 3.506930933010208  4.845205479452055 3.506930933010208  C 4.955342465753425 3.506930933010208  5.290958904109589 3.2231694651202982  5.290958904109589 3.12986671282672  Z M 3.333972602739725 5.032527263285439  C 3.333972602739725 4.89711441924874  3.1323287671232896 4.919958455945988  3.000273972602738 5.070508914661583  C 2.864109589041094 5.226013501817546  2.855890410958906 5.383719923835897  2.9843835616438357 5.383719923835897  C 3.1076712328767133 5.383719923835897  3.333972602739725 5.15638047429461  3.333972602739725 5.032527263285439  Z M 57.14986301369863 5.1156465293404825  C 57.10109589041095 5.1156465293404825  57.06109589041097 5.175921758698279  57.06109589041097 5.249683226588187  C 57.06109589041097 5.323444694478096  57.10109589041095 5.383719923835897  57.14986301369863 5.383719923835897  C 57.198904109589044 5.383719923835897  57.23890410958904 5.323444694478096  57.23890410958904 5.249683226588187  C 57.23890410958904 5.175921758698279  57.198904109589044 5.1156465293404825  57.14986301369863 5.1156465293404825  Z M 2.711232876712329 5.8750043275056205  C 2.711232876712329 5.694453868790022  2.5923287671232886 5.706288731175346  2.4136986301369867 5.904453868790024  C 2.230410958904111 6.1078483642028685  2.2241095890410945 6.277114419248739  2.4000000000000012 6.277114419248739  C 2.473424657534248 6.277114419248739  2.5334246575342467 6.216839189890942  2.5334246575342467 6.143077722001035  C 2.5334246575342467 6.069591483468921  2.5734246575342468 6.0090410247533255  2.6221917808219173 6.0090410247533255  C 2.671232876712329 6.0090410247533255  2.711232876712329 5.948765795395529  2.711232876712329 5.8750043275056205  Z M 57.60876712328767 5.794362125670756  C 57.55890410958904 5.763536437597363  57.49123287671233 5.781701575212042  57.4586301369863 5.834820841267088  C 57.37397260273973 5.9724355201661705  57.48986301369863 6.061059373377181  57.60383561643836 5.946288731175345  C 57.66794520547945 5.882160290808372  57.669315068493155 5.832068547689104  57.60876712328767 5.794362125670756  Z M 2.194246575342466 6.387206162368006  C 2.1361643835616433 6.367664877964338  2.0884931506849327 6.4152795568634176  2.0884931506849327 6.493169465120298  C 2.0884931506849327 6.571059373377179  2.152054794520549 6.634637355028557  2.229315068493151 6.634637355028557  C 2.386575342465753 6.634637355028557  2.3591780821917823 6.44225203392764  2.194246575342466 6.387206162368006  Z M 57.950410958904115 6.366563960533144  C 57.90164383561644 6.366563960533144  57.861643835616434 6.4268391898909405  57.861643835616434 6.500600657780849  C 57.861643835616434 6.574362125670757  57.90164383561644 6.634637355028557  57.950410958904115 6.634637355028557  C 57.99945205479452 6.634637355028557  58.03945205479452 6.574362125670757  58.03945205479452 6.500600657780849  C 58.03945205479452 6.4268391898909405  57.99945205479452 6.366563960533144  57.950410958904115 6.366563960533144  Z M 1.9550684931506837 6.813261208239567  C 1.8819178082191779 6.813261208239567  1.8216438356164386 6.873811666955163  1.8216438356164386 6.9472979054872726  C 1.8216438356164386 7.02105937337718  1.8819178082191779 7.081609832092777  1.9550684931506837 7.081609832092777  C 2.0284931506849304 7.081609832092777  2.0884931506849327 7.02105937337718  2.0884931506849327 6.9472979054872726  C 2.0884931506849327 6.873811666955163  2.0284931506849304 6.813261208239567  1.9550684931506837 6.813261208239567  Z M 1.8950684931506852 7.379407997230389  C 1.8517808219178082 7.155096070624885  1.643835616438356 7.124270382551492  1.643835616438356 7.34197680456984  C 1.643835616438356 7.451793318331308  1.701369863013697 7.528307079799199  1.783835616438355 7.528307079799199  C 1.866575342465754 7.528307079799199  1.9120547945205477 7.467481391725805  1.8950684931506852 7.379407997230389  Z M 6.313698630136987 2.2560135018175465  C 6.240547945205481 2.2560135018175465  6.180273972602742 2.296196988056079  6.180273972602742 2.3454630431019514  C 6.180273972602742 2.394453868790024  6.240547945205481 2.4346373550285563  6.313698630136987 2.4346373550285563  C 6.387123287671234 2.4346373550285563  6.447123287671232 2.394453868790024  6.447123287671232 2.3454630431019514  C 6.447123287671232 2.296196988056079  6.387123287671234 2.2560135018175465  6.313698630136987 2.2560135018175465  Z M 50.478630136986304 59.535921758698265  C 50.37972602739727 59.535921758698265  50.30054794520547 59.59537129998268  50.30054794520547 59.66995845594599  C 50.30054794520547 59.744270382551484  50.37972602739727 59.803995153193696  50.478630136986304 59.803995153193696  C 50.57753424657535 59.803995153193696  50.656438356164394 59.744270382551484  50.656438356164394 59.66995845594599  C 50.656438356164394 59.59537129998268  50.57753424657535 59.535921758698265  50.478630136986304 59.535921758698265  Z M 33.533150684931506 39.11720616236801  L 33.55671232876712 41.55298597888177  C 33.58849315068493 44.816655703652415  33.3358904109589 45.27298597888177  31.317260273972604 45.60023368530379  C 27.881095890410954 46.15702267612947  25.69369863013699 43.09179331833131  28.01616438356164 40.97417863943223  C 29.120821917808218 39.96683918989095  31.578082191780823 39.05115111649645  33.043835616438365 39.10069240090012  L 33.533150684931506 39.11720616236801  Z " fill-rule="nonzero" fill="#f6fafa" stroke="none" transform="matrix(1 0 0 1 484 388 )" />
  </g>
</svg>