<?xml version="1.0" encoding="utf-8"?>
<svg version="1.1" xmlns:xlink="http://www.w3.org/1999/xlink" width="60px" height="60px" xmlns="http://www.w3.org/2000/svg">
  <g transform="matrix(1 0 0 1 -484 -388 )">
    <path d="M 30.286301369863015 0.11091754975445246  C 15.718082191780825 0.11091754975445246  13.830410958904107 0.12626001550787835  13.830410958904107 0.24434220728869957  C 13.830410958904107 0.35584905660376903  13.64739726027397 0.37776686482294664  12.718356164383561 0.37776686482294664  C 12.036438356164382 0.37776686482294664  11.606575342465755 0.41201344016541236  11.606575342465755 0.4668079607133584  C 11.606575342465755 0.5169449470147283  11.354520547945203 0.5555750840010291  11.028219178082189 0.5555750840010291  C 10.573698630136985 0.5555750840010291  10.45013698630137 0.5840682346859604  10.45013698630137 0.6889997415352762  C 10.45013698630137 0.8322874127681519  10.312328767123283 0.8703696045489746  10.236986301369864 0.7484517963297963  C 10.163013698630136 0.6287257689325348  9.649589041095892 0.7410545360558235  9.649589041095892 0.8769449470147282  C 9.649589041095892 0.9616024812613028  9.537808219178078 1.000506590850343  9.293698630136985 1.000506590850343  C 9.098082191780822 1.000506590850343  8.937808219178084 1.040506590850343  8.937808219178084 1.0892737141380155  C 8.937808219178084 1.138314810028425  8.800273972602739 1.1783148100284253  8.631780821917808 1.1783148100284253  C 8.463561643835614 1.1783148100284253  8.30109589041096 1.2183148100284256  8.27068493150685 1.267355905918837  C 8.240547945205481 1.3161230292065076  8.13808219178082 1.3561230292065078  8.043013698630137 1.3561230292065078  C 7.948219178082191 1.3561230292065078  7.870410958904111 1.4161230292065081  7.870410958904111 1.4895476867407549  C 7.870410958904111 1.5637942620832208  7.791506849315066 1.622972344275002  7.692602739726029 1.622972344275002  C 7.594794520547946 1.622972344275002  7.5147945205479445 1.662972344275002  7.5147945205479445 1.7120134401654117  C 7.5147945205479445 1.7610545360558232  7.424657534246573 1.8021504264667818  7.314520547945203 1.8037942620832201  C 7.085205479452056 1.807081933316097  6.803013698630138 1.9947531661928097  6.803013698630138 2.1443422072887  C 6.803013698630138 2.200232618247605  6.723013698630138 2.245712070302398  6.625205479452056 2.245712070302398  C 6.527397260273973 2.245712070302398  6.447123287671232 2.2857120703023983  6.447123287671232 2.33475316619281  C 6.447123287671232 2.3835202894804803  6.347123287671233 2.423520289480481  6.224931506849316 2.423520289480481  C 6.102465753424657 2.423520289480481  6.0024657534246595 2.4665339881106165  6.0024657534246595 2.518862755233905  C 6.0024657534246595 2.679958645644866  5.7386301369863 2.888451796329796  5.601369863013697 2.835849056603767  C 5.523561643835617 2.8059860429051384  5.430410958904109 2.8648901524941803  5.36904109589041 2.9829723442750016  C 5.212876712328767 3.2832463168777424  4.940000000000001 3.5120134401654117  4.801643835616438 3.458862755233904  C 4.719999999999998 3.427629878521578  4.694246575342466 3.4555750840010275  4.726849315068494 3.539958645644865  C 4.760821917808218 3.6289997415352766  4.714520547945205 3.6689997415352766  4.576986301369864 3.6689997415352766  C 4.341917808219177 3.6689997415352766  3.95753424657534 4.081602481261305  3.9553424657534237 4.336123029206506  C 3.9542465753424674 4.473657275781852  3.936164383561645 4.4859860429051395  3.8753424657534237 4.389821659343496  C 3.7698630136986315 4.223246316877741  3.333972602739725 4.647355905918838  3.333972602739725 4.916670974411986  C 3.333972602739725 5.094205220987331  3.1476712328767134 5.359136727836646  3.022465753424657 5.359136727836646  C 2.8986301369863012 5.359136727836646  2.711232876712329 5.622972344275  2.711232876712329 5.797492892220206  C 2.711232876712329 5.898862755233905  2.671232876712329 5.981602481261302  2.6221917808219173 5.981602481261302  C 2.5734246575342468 5.981602481261302  2.5334246575342467 6.041876453864041  2.5334246575342467 6.115027138795551  C 2.5334246575342467 6.1884517963297965  2.4706849315068493 6.248451796329795  2.393972602739726 6.248451796329795  C 2.2950684931506835 6.248451796329795  2.2709589041095892 6.300232618247605  2.3109589041095897 6.426533988110618  C 2.3509589041095897 6.552835357973632  2.326849315068492 6.604342207288702  2.2279452054794535 6.604342207288702  C 2.1386301369863006 6.604342207288702  2.0884931506849327 6.68406823468596  2.0884931506849327 6.826807960713358  C 2.0884931506849327 6.966260015507879  2.038356164383561 7.049273714138015  1.9534246575342455 7.049273714138015  C 1.8536986301369878 7.049273714138015  1.8328767123287666 7.107355905918838  1.8742465753424642 7.271465494959935  C 1.9164383561643847 7.439684673042123  1.8950684931506852 7.493931248384592  1.7868493150684948 7.493931248384592  C 1.705205479452056 7.493931248384592  1.643835616438356 7.567081933316098  1.643835616438356 7.664342207288701  C 1.643835616438356 7.758040837425687  1.6063013698630135 7.848177823727055  1.5602739726027377 7.8646161798914385  C 1.514520547945207 7.880780563453083  1.4578082191780815 8.014205220987332  1.4342465753424656 8.161054536055826  C 1.3742465753424673 8.53612302920651  1.3736986301369853 8.536670974411987  1.2810958904109593 8.338862755233905  C 1.2221917808219174 8.21338330317911  1.212602739726028 8.285438097699659  1.2484931506849322 8.584342207288698  C 1.2884931506849322 8.918040837425686  1.2698630136986315 9.018588782631166  1.1602739726027396 9.060780563453083  C 1.0720547945205472 9.094479193590072  1.02109589041096 9.224342207288702  1.02109589041096 9.41584905660377  C 1.02109589041096 9.581876453864043  0.9810958904109597 9.717766864822945  0.9323287671232893 9.717766864822945  C 0.8832876712328778 9.717766864822945  0.8432876712328776 9.893657275781852  0.8432876712328776 10.108451796329796  C 0.8432876712328776 10.38626001550788  0.8016438356164389 10.515301111398289  0.6994520547945198 10.554479193590069  C 0.5767123287671243 10.6016024812613  0.5649315068493144 10.707081933316097  0.618082191780822 11.275575084001028  C 0.6720547945205487 11.850369604548973  0.661369863013699 11.941602481261302  0.539452054794519 11.941602481261302  C 0.40958904109589167 11.941602481261302  0.32164383561644017 13.031739467562671  0.3939726027397267 13.74269837167226  C 0.4024657534246559 13.828451796329796  0.3671232876712338 13.898588782631165  0.31506849315068647 13.898588782631165  C 0.24876712328767156 13.898588782631165  0.22054794520548132 18.78132850865856  0.22054794520548132 30.310095631946233  C 0.22054794520548132 41.19201344016542  0.250684931506851 46.72187645386405  0.3095890410958892 46.72187645386405  C 0.36356164383561596 46.72187645386405  0.3986301369863009 47.10735590591884  0.3986301369863009 47.700232618247604  C 0.3986301369863009 48.410369604548976  0.42767123287671427 48.6725613853709  0.5043835616438339 48.65639700180926  C 0.5808219178082205 48.64050659085035  0.6035616438356172 48.82653398811062  0.5854794520547946 49.323520289480484  C 0.5646575342465773 49.90461617989144  0.583013698630137 50.01310933057638  0.7019178082191774 50.01310933057638  C 0.8046575342465747 50.01310933057638  0.8432876712328776 50.09968467304213  0.8432876712328776 50.32954768674077  C 0.8432876712328776 50.518040837425694  0.8791780821917817 50.62379426208322  0.9323287671232893 50.5911915223572  C 0.9871232876712314 50.55721891961747  1.02109589041096 50.70899974153528  1.02109589041096 50.98626001550789  C 1.02109589041096 51.23365727578185  1.0610958904109602 51.43612302920651  1.1101369863013717 51.43612302920651  C 1.1591780821917794 51.43612302920651  1.1991780821917795 51.536397001809256  1.1991780821917795 51.65858878263117  C 1.1991780821917795 51.79694494701474  1.2495890410958923 51.88105453605583  1.3326027397260285 51.88105453605583  C 1.4065753424657534 51.88105453605583  1.4660273972602738 51.959958645644875  1.4660273972602738 52.05886275523391  C 1.4660273972602738 52.15667097441199  1.506027397260274 52.236944947014734  1.5547945205479443 52.236944947014734  C 1.6038356164383558 52.236944947014734  1.643835616438356 52.336944947014736  1.643835616438356 52.45913672783665  C 1.643835616438356 52.581602481261314  1.6838356164383566 52.68160248126131  1.732876712328768 52.68160248126131  C 1.7816438356164384 52.68160248126131  1.8216438356164386 52.78160248126131  1.8216438356164386 52.904068234685965  C 1.8216438356164386 53.042424399069525  1.8720547945205475 53.12626001550788  1.9550684931506837 53.12626001550788  C 2.02931506849315 53.12626001550788  2.0884931506849327 53.20543809769966  2.0884931506849327 53.3043422072887  C 2.0884931506849327 53.40215042646678  2.128493150684933 53.48215042646678  2.1775342465753407 53.48215042646678  C 2.226575342465752 53.48215042646678  2.266575342465752 53.56516412509692  2.266575342465752 53.66653398811062  C 2.266575342465752 53.86324631687774  2.4589041095890396 54.104890152494185  2.6158904109589045 54.104890152494185  C 2.66849315068493 54.104890152494185  2.711232876712329 54.19612302920652  2.711232876712329 54.30762987852158  C 2.711232876712329 54.419136727836644  2.7912328767123293 54.56790385112433  2.8890410958904114 54.63858878263117  C 2.9871232876712344 54.70899974153528  3.067123287671231 54.83228741276814  3.067123287671231 54.912561385370886  C 3.067123287671231 54.992835357973625  3.167123287671233 55.13365727578185  3.2893150684931505 55.22543809769965  C 3.411780821917809 55.31721891961747  3.5117808219178075 55.425712070302396  3.5117808219178075 55.46653398811061  C 3.5117808219178075 55.552561385370886  3.739999999999999 55.79502713879555  3.8208219178082183 55.79502713879555  C 3.912876712328766 55.79502713879555  4.312328767123286 56.22543809769966  4.312328767123286 56.324616179891436  C 4.312328767123286 56.37584905660376  4.354246575342466 56.4174928922202  4.405479452054794 56.4174928922202  C 4.526027397260274 56.4174928922202  4.935068493150687 56.82653398811061  4.935068493150687 56.94735590591884  C 4.935068493150687 56.998314810028425  4.995068493150685 57.0402326182476  5.068493150684931 57.0402326182476  C 5.141917808219178 57.0402326182476  5.201917808219177 57.08023261824761  5.201917808219177 57.12927371413801  C 5.201917808219177 57.17804083742568  5.281917808219177 57.21804083742569  5.379726027397259 57.21804083742569  C 5.477808219178082 57.21804083742569  5.557808219178082 57.258040837425675  5.557808219178082 57.3070819333161  C 5.557808219178082 57.3561230292065  5.617808219178081 57.3961230292065  5.691232876712327 57.3961230292065  C 5.764657534246575 57.3961230292065  5.824657534246576 57.4561230292065  5.824657534246576 57.52954768674075  C 5.824657534246576 57.60352028948048  5.903561643835617 57.66297234427499  6.0024657534246595 57.66297234427499  C 6.100273972602741 57.66297234427499  6.180273972602742 57.702972344275  6.180273972602742 57.751739467562665  C 6.180273972602742 57.80078056345309  6.263287671232877 57.84078056345307  6.364657534246573 57.84078056345307  C 6.561643835616439 57.84078056345307  6.803013698630138 58.033383303179114  6.803013698630138 58.19036960454896  C 6.803013698630138 58.24269837167227  6.9030136986301365 58.28543809769965  7.025479452054794 58.28543809769965  C 7.147671232876712 58.28543809769965  7.247945205479452 58.3257120703024  7.247945205479452 58.37447919359007  C 7.247945205479452 58.42352028948047  7.325479452054795 58.463520289480485  7.4205479452054774 58.463520289480485  C 7.515342465753424 58.463520289480485  7.617808219178084 58.503520289480484  7.648219178082191 58.552561385370886  C 7.678356164383561 58.601328508658554  7.820821917808222 58.64132850865856  7.964657534246575 58.64132850865856  C 8.137808219178083 58.64132850865856  8.226301369863013 58.68653398811062  8.226301369863013 58.7747531661928  C 8.226301369863013 58.85776686482295  8.310410958904109 58.90817782372705  8.44876712328767 58.90817782372705  C 8.570958904109592 58.90817782372705  8.670958904109588 58.94817782372705  8.670958904109588 58.99721891961746  C 8.670958904109588 59.045986042905135  8.81123287671233 59.08626001550787  8.982465753424657 59.08626001550787  C 9.153698630136986 59.08626001550787  9.293698630136985 59.12626001550787  9.293698630136985 59.17502713879554  C 9.293698630136985 59.22406823468596  9.473972602739728 59.26406823468595  9.693972602739729 59.26406823468595  C 9.99041095890411 59.26406823468595  10.094246575342465 59.298588782631164  10.094246575342465 59.39749289222021  C 10.094246575342465 59.49831481002842  10.20301369863014 59.530917549754456  10.539178082191778 59.530917549754456  C 10.78356164383562 59.530917549754456  10.983835616438359 59.57091754975444  10.983835616438359 59.619958645644864  C 10.983835616438359 59.670643577151715  11.250684931506848 59.70872576893254  11.606575342465755 59.70872576893254  C 11.96219178082192 59.70872576893254  12.229041095890409 59.74680796071335  12.229041095890409 59.79776686482295  C 12.229041095890409 59.85667097441198  17.996164383561645 59.886807960713355  29.352328767123286 59.886807960713355  C 40.708767123287664 59.886807960713355  46.47561643835617 59.85667097441198  46.47561643835617 59.79776686482295  C 46.47561643835617 59.74187645386404  47.053972602739734 59.70872576893254  48.03232876712328 59.70872576893254  C 49.010958904109586 59.70872576893254  49.58904109589041 59.67584905660377  49.58904109589041 59.619958645644864  C 49.58904109589041 59.57091754975444  49.74904109589041 59.530917549754456  49.94493150684931 59.530917549754456  C 50.201917808219186 59.530917549754456  50.30054794520547 59.493931248384584  50.30054794520547 59.39749289222021  C 50.30054794520547 59.30105453605583  50.39945205479453 59.26406823468595  50.656438356164394 59.26406823468595  C 50.85205479452055 59.26406823468595  51.012328767123286 59.22406823468596  51.012328767123286 59.17502713879554  C 51.012328767123286 59.12626001550787  51.152328767123294 59.08626001550787  51.323561643835625 59.08626001550787  C 51.49479452054795 59.08626001550787  51.63506849315068 59.045986042905135  51.63506849315068 58.99721891961746  C 51.63506849315068 58.94817782372705  51.73506849315069 58.90817782372705  51.8572602739726 58.90817782372705  C 51.995616438356166 58.90817782372705  52.079726027397264 58.85776686482295  52.079726027397264 58.7747531661928  C 52.079726027397264 58.70078056345308  52.15890410958904 58.64132850865856  52.25753424657535 58.64132850865856  C 52.35534246575342 58.64132850865856  52.43561643835616 58.601328508658554  52.43561643835616 58.552561385370886  C 52.43561643835616 58.503520289480484  52.535616438356165 58.463520289480485  52.65780821917809 58.463520289480485  C 52.78630136986302 58.463520289480485  52.88027397260274 58.412287412768144  52.88027397260274 58.342424399069515  C 52.88027397260274 58.26105453605581  52.95342465753424 58.23530111139828  53.102739726027394 58.26379426208322  C 53.26575342465754 58.29502713879555  53.324931506849325 58.267903851124316  53.324931506849325 58.16242439906952  C 53.324931506849325 58.068451796329796  53.401917808219174 58.018588782631156  53.54739726027397 58.018588782631156  C 53.66958904109589 58.018588782631156  53.769863013698625 57.978588782631164  53.769863013698625 57.929821659343496  C 53.769863013698625 57.88078056345308  53.84986301369864 57.84078056345307  53.94767123287671 57.84078056345307  C 54.0454794520548 57.84078056345307  54.12547945205479 57.80078056345309  54.12547945205479 57.751739467562665  C 54.12547945205479 57.702972344275  54.185753424657534 57.66297234427499  54.25890410958905 57.66297234427499  C 54.332328767123286 57.66297234427499  54.39232876712328 57.602972344274995  54.39232876712328 57.52954768674075  C 54.39232876712328 57.455301111398285  54.47150684931508 57.3961230292065  54.57041095890411 57.3961230292065  C 54.66821917808219 57.3961230292065  54.748219178082195 57.3561230292065  54.748219178082195 57.3070819333161  C 54.748219178082195 57.258040837425675  54.79123287671233 57.21804083742569  54.843561643835606 57.21804083742569  C 54.94712328767123 57.21804083742569  55.1931506849315 56.999136727836635  55.1931506849315 56.90680796071335  C 55.1931506849315 56.83256138537088  55.43013698630136 56.59557508400103  55.504383561643834 56.59557508400103  C 55.578630136986305 56.59557508400103  55.81561643835615 56.35831481002841  55.81561643835615 56.28406823468596  C 55.81561643835615 56.21119152235719  56.052328767123285 55.97283535797362  56.12465753424658 55.97283535797362  C 56.216712328767116 55.97283535797362  56.61616438356164 55.542424399069525  56.61616438356164 55.44324631687773  C 56.61616438356164 55.39201344016541  56.65808219178083 55.35009563194622  56.70931506849315 55.35009563194622  C 56.83013698630137 55.35009563194622  57.23890410958904 54.94132850865856  57.23890410958904 54.82050659085035  C 57.23890410958904 54.769273714138016  57.30136986301369 54.72735590591884  57.377534246575344 54.72735590591884  C 57.453972602739725 54.72735590591884  57.49342465753425 54.69064357715172  57.465753424657535 54.64571207030241  C 57.43780821917809 54.600780563453085  57.47561643835616 54.503520289480484  57.54931506849315 54.429547686740754  C 57.62328767123287 54.35584905660377  57.683561643835624 54.252561385370896  57.683561643835624 54.20023261824761  C 57.683561643835624 54.14762987852158  57.723835616438365 54.104890152494185  57.772602739726025 54.104890152494185  C 57.821643835616435 54.104890152494185  57.861643835616434 54.02899974153528  57.861643835616434 53.936397001809254  C 57.861643835616434 53.84379426208323  57.921643835616436 53.74489015249418  57.99506849315069 53.71694494701473  C 58.06849315068493 53.68872576893254  58.128493150684925 53.58434220728871  58.128493150684925 53.48489015249419  C 58.128493150684925 53.38543809769967  58.16849315068493 53.3043422072887  58.21753424657535 53.3043422072887  C 58.26630136986302 53.3043422072887  58.306301369863014 53.20406823468596  58.306301369863014 53.08187645386405  C 58.306301369863014 52.95968467304213  58.34630136986301 52.85941070043938  58.395342465753416 52.85941070043938  C 58.4441095890411 52.85941070043938  58.48438356164384 52.78379426208323  58.48438356164384 52.691191522357194  C 58.48438356164384 52.59858878263117  58.54438356164384 52.499684673042125  58.61780821917807 52.471465494959936  C 58.69095890410958 52.44324631687774  58.75123287671233 52.339136727836646  58.75123287671233 52.23968467304212  C 58.75123287671233 52.1402326182476  58.791232876712336 52.05886275523391  58.84000000000001 52.05886275523391  C 58.889041095890406 52.05886275523391  58.92904109589041 51.93639700180925  58.92904109589041 51.78680796071336  C 58.92904109589041 51.62379426208323  58.965479452054794 51.53721891961747  59.02027397260273 51.570917549754455  C 59.07041095890412 51.60215042646678  59.105479452054794 51.594479193590075  59.098630136986294 51.5539312483846  C 59.04958904109589 51.2711915223572  59.12328767123288 50.99146549495994  59.247123287671236 50.99146549495994  C 59.358356164383565 50.99146549495994  59.381917808219185 50.9057120703024  59.36164383561645 50.575301111398296  C 59.34520547945206 50.308177823727064  59.37479452054795 50.146260015507885  59.44383561643836 50.122972344275006  C 59.50876712328767 50.10132850865856  59.5517808219178 49.91338330317912  59.5517808219178 49.6498216593435  C 59.5517808219178 49.409273714138024  59.59178082191781 49.21256138537089  59.640547945205476 49.21256138537089  C 59.695068493150686 49.21256138537089  59.729589041095885 48.79365727578185  59.729589041095885 48.13420522098734  C 59.729589041095885 47.1857120703024  59.745753424657536 47.06927371413802  59.86301369863014 47.16653398811062  C 59.98164383561644 47.26489015249419  59.99643835616439 45.3643422072887  59.99643835616439 30.152561385370895  C 59.99643835616439 15.012835357973632  59.981095890410955 13.022150426466782  59.86301369863014 12.97667097441199  C 59.754520547945205 12.93502713879555  59.729589041095885 12.724068234685959  59.729589041095885 11.850095631946232  C 59.729589041095885 11.15584905660377  59.69808219178083 10.79420522098733  59.640547945205476 10.829547686740757  C 59.586301369863016 10.863246316877742  59.5517808219178 10.726807960713359  59.5517808219178 10.479136727836647  C 59.5517808219178 10.16598604290514  59.51917808219178 10.07338330317911  59.409041095890416 10.07338330317911  C 59.29589041095891 10.07338330317911  59.2731506849315 9.999136727836644  59.3 9.717766864822945  C 59.32356164383562 9.470643577151712  59.29917808219179 9.361876453864044  59.220547945205475 9.361876453864044  C 59.11095890410959 9.361876453864044  59.07095890410959 9.210095631946233  59.10054794520548 8.905712070302398  C 59.108219178082194 8.826260015507879  59.05260273972602 8.737492892220208  58.977260273972604 8.708451796329795  C 58.90191780821919 8.679410700439385  58.84000000000001 8.576944947014725  58.84000000000001 8.480506590850345  C 58.84000000000001 8.383794262083219  58.796438356164394 8.278040837425685  58.74301369863013 8.245164125096917  C 58.684657534246575 8.208999741535276  58.66876712328768 8.06543809769966  58.702739726027396 7.884068234685959  C 58.739452054794526 7.687903851124316  58.72465753424658 7.582972344274999  58.65972602739726 7.582972344274999  C 58.45835616438356 7.582972344274999  58.26410958904109 7.308451796329795  58.40301369863013 7.220232618247603  C 58.49178082191781 7.164068234685959  58.49616438356165 7.140506590850343  58.41753424657534 7.139410700439383  C 58.356438356164375 7.138588782631164  58.306301369863014 7.058040837425684  58.306301369863014 6.960232618247603  C 58.306301369863014 6.862424399069521  58.26630136986302 6.782150426466783  58.21753424657535 6.782150426466783  C 58.16849315068493 6.782150426466783  58.12383561643835 6.67228741276815  58.118082191780815 6.537766864822945  C 58.11178082191781 6.387081933316097  58.09205479452055 6.352835357973631  58.06712328767123 6.448725768932538  C 58.00602739726027 6.682698371672263  57.861643835616434 6.635849056603768  57.861643835616434 6.381876453864044  C 57.861643835616434 6.259684673042123  57.821643835616435 6.159684673042125  57.772602739726025 6.159684673042125  C 57.723835616438365 6.159684673042125  57.683561643835624 6.100780563453083  57.683561643835624 6.028999741535274  C 57.683561643835624 5.947629878521576  57.6317808219178 5.918314810028426  57.545753424657526 5.9511915223571945  C 57.43479452054794 5.993931248384589  57.41917808219178 5.958314810028426  57.46630136986302 5.770643577151714  C 57.50493150684931 5.617218919617466  57.48904109589041 5.536944947014728  57.42 5.536944947014728  C 57.267945205479464 5.536944947014728  57.06109589041097 5.306533988110617  57.06109589041097 5.136944947014726  C 57.06109589041097 4.945986042905137  55.12712328767124 3.028725768932536  55.071780821917805 3.1646161798914387  C 55.04109589041095 3.2394107004393833  55.02712328767123 3.2372189196174666  55.02219178082193 3.1574928922202075  C 55.01835616438356 3.096397001809249  54.96191780821918 3.046260015507877  54.89671232876712 3.046260015507877  C 54.83150684931507 3.046260015507877  54.72465753424658 2.946260015507878  54.65917808219177 2.82379426208322  C 54.590136986301374 2.694479193590071  54.46164383561644 2.601602481261304  54.352602739726024 2.601602481261304  C 54.249315068493146 2.601602481261304  54.10712328767123 2.521602481261304  54.036712328767116 2.423520289480481  C 53.96602739726027 2.3257120703023983  53.8172602739726 2.245712070302398  53.70575342465754 2.245712070302398  C 53.58465753424658 2.245712070302398  53.50301369863014 2.191739467562673  53.50301369863014 2.112287412768151  C 53.50301369863014 2.0284517963297954  53.41835616438356 1.9788627552339058  53.275342465753425 1.9788627552339058  C 53.14630136986301 1.9788627552339058  53.07150684931507 1.9402326182476028  53.102739726027394 1.889821659343494  C 53.132876712328766 1.8410545360558235  53.07232876712329 1.8010545360558234  52.968219178082194 1.8010545360558234  C 52.86383561643835 1.8010545360558234  52.72027397260273 1.7426983716722617  52.64904109589041 1.6711915223571923  C 52.57753424657535 1.599958645644864  52.46054794520548 1.5643422072886988  52.38849315068494 1.5920134401654131  C 52.3068493150685 1.623246316877741  52.25753424657535 1.588451796329795  52.25753424657535 1.4991367278366443  C 52.25753424657535 1.415575084001028  52.18383561643836 1.3561230292065078  52.079726027397264 1.3561230292065078  C 51.98191780821917 1.3561230292065078  51.90191780821918 1.3161230292065076  51.90191780821918 1.267355905918837  C 51.90191780821918 1.2183148100284256  51.74164383561644 1.1783148100284253  51.54602739726027 1.1783148100284253  C 51.3504109589041 1.1783148100284253  51.19013698630137 1.138314810028425  51.19013698630137 1.0892737141380155  C 51.19013698630137 1.040506590850343  51.010136986301376 1.000506590850343  50.78986301369863 1.000506590850343  C 50.50109589041096 1.000506590850343  50.3895890410959 0.9648901524941798  50.3895890410959 0.8725613853708911  C 50.3895890410959 0.7761230292065084  50.3131506849315 0.7572189196174666  50.07835616438356 0.7953011113982893  C 49.8290410958904 0.8355750840010288  49.7668493150685 0.8169449470147279  49.7668493150685 0.7007805634530841  C 49.7668493150685 0.5531093305763715  49.55643835616438 0.5174928922202063  48.89972602739725 0.5533833031791106  C 48.740547945205485 0.5621504264667828  48.61068493150684 0.5262600155078786  48.61068493150684 0.4733833031791101  C 48.61068493150684 0.4111915223571932  48.2841095890411 0.37776686482294664  47.67643835616438 0.37776686482294664  C 46.90575342465754 0.37776686482294664  46.74246575342466 0.35447919359006974  46.74246575342466 0.24434220728869957  C 46.74246575342466 0.12626001550787835  44.854794520547955 0.11091754975445246  30.286301369863015 0.11091754975445246  Z M 33.69397260273973 26.818862755233905  C 33.807945205479456 26.64269837167226  37.16602739726028 26.66160248126131  37.34356164383561 26.83913672783665  C 37.51260273972602 27.00817782372706  37.61123287671233 27.591739467562675  37.54301369863014 28.01968467304213  C 37.45041095890411 28.599410700439385  37.15643835616439 28.56680796071336  42.728767123287675 28.594479193590068  L 47.825753424657535 28.619958645644868  L 47.99589041095891 28.830095631946236  C 48.25369863013698 29.1484517963298  48.25369863013698 32.09447919359007  47.99589041095891 32.412835357973634  L 47.825753424657535 32.622972344275  L 42.70739726027398 32.65036960454898  C 37.99232876712328 32.675849056603774  37.5854794520548 32.689821659343494  37.54438356164383 32.82817782372706  C 37.48739726027398 33.019136727836646  37.54109589041096 34.97036960454898  37.60493150684932 35.03420522098734  C 37.63123287671233 35.06050659085035  38.04684931506849 35.17557508400104  38.52849315068493 35.2898216593435  C 41.52 35.99995864564487  44.28000000000001 37.70927371413802  45.85616438356164 39.82790385112432  C 46.07479452054795 40.121602481261306  46.283287671232884 40.37502713879555  46.31999999999999 40.39146549495994  C 46.356712328767124 40.40762987852158  46.386849315068496 40.46050659085034  46.386849315068496 40.5084517963298  C 46.386849315068496 40.556670974411986  46.48219178082193 40.72352028948048  46.59890410958904 40.87913672783665  C 47.15150684931507 41.61639700180925  47.95041095890411 43.70132850865856  48.15643835616439 44.942698371672265  C 48.67561643835616 48.07283535797364  48.70904109589041 48.01146549495994  46.475890410958904 48.01146549495994  C 44.57397260273973 48.01146549495994  44.57506849315069 48.01201344016542  44.48191780821917 47.096944947014734  C 44.37534246575343 46.047629878521576  44.08821917808219 44.742972344275  43.85123287671233 44.2311915223572  C 43.22465753424658 42.878314810028435  43.114794520547946 42.70242439906952  42.37068493150685 41.8670819333161  C 41.79479452054794 41.22023261824761  41.67643835616438 41.11009563194624  41.23315068493151 40.806533988110615  C 40.30301369863013 40.1698216593435  39.44082191780822 39.721054536055824  38.64794520547945 39.461054536055826  C 38.42767123287671 39.38899974153527  38.1627397260274 39.28790385112431  38.05917808219178 39.23667097441199  C 37.53780821917809 38.978588782631164  37.53780821917809 38.97913672783665  37.517260273972596 41.652561385370895  C 37.49260273972603 44.85310933057637  37.41589041095891 45.24242439906953  36.55534246575342 46.54653398811062  C 33.574246575342464 51.063246316877745  25.315342465753428 50.12790385112432  23.571780821917812 45.076123029206514  C 23.487397260273976 44.831465494959936  23.386849315068492 44.55146549495994  23.348219178082193 44.453383303179116  C 22.56109589041096 42.45749289222021  23.294520547945208 39.940232618247606  25.27068493150685 37.8539312483846  C 26.556164383561647 36.49694494701473  29.742739726027402 35.20132850865856  32.553698630136985 34.89310933057637  C 33.65095890410959 34.7725613853709  33.58904109589041 34.8470819333161  33.5586301369863 33.68269837167226  L 33.533150684931506 32.71173946756268  L 28.77424657534247 32.66735590591884  C 25.286027397260277 32.634753166192816  23.96520547945206 32.59420522098734  23.827671232876714 32.515301111398294  C 23.425479452054788 32.284616179891444  23.394246575342468 29.11667097441199  23.79041095890411 28.720232618247607  C 23.861095890410954 28.64954768674076  25.30630136986301 28.607081933316103  28.71205479452055 28.57557508400103  L 33.533150684931506 28.531191522357197  L 33.57753424657534 27.730643577151714  C 33.60219178082192 27.290095631946233  33.654520547945204 26.87995864564487  33.69397260273973 26.818862755233905  Z M 34.733972602739726 10.806260015507878  C 34.80739726027397 10.799136727836643  35.3304109589041 10.833109330576374  35.89643835616438 10.881876453864043  C 37.46082191780822 11.01639700180925  38.42712328767123 11.244342207288698  39.893150684931506 11.824616179891441  C 40.06438356164384 11.892561385370891  40.278630136986294 11.97228741276815  40.36904109589042 12.001876453864043  C 40.59561643835617 12.076123029206508  42.81863013698631 13.158314810028427  42.94712328767123 13.256670974411987  C 43.00438356164384 13.300780563453083  43.28575342465753 13.472835357973631  43.57232876712328 13.639684673042126  C 43.85890410958904 13.806533988110617  44.21917808219179 14.018314810028425  44.37287671232877 14.110369604548973  C 45.48383561643836 14.776670974411989  46.67972602739725 15.271465494959932  47.40958904109589 15.366807960713357  C 48.58849315068493 15.521054536055823  48.61068493150684 15.560506590850343  48.61068493150684 17.510917549754453  C 48.61068493150684 19.309547686740753  48.54301369863014 19.498314810028425  47.89890410958905 19.501054536055822  C 47.56986301369863 19.502424399069522  46.24657534246576 19.269273714138013  46.11205479452056 19.186260015507877  C 46.06876712328768 19.159410700439384  45.807123287671246 19.078588782631165  45.530684931506855 19.00653398811062  C 44.90739726027397 18.8443422072887  43.6986301369863 18.270643577151713  42.07260273972602 17.365712070302397  C 40.97369863013699 16.75420522098733  39.009863013698634 15.771739467562675  38.24767123287672 15.452287412768152  C 36.84328767123288 14.863520289480482  34.786849315068494 14.724342207288698  33.088493150684926 15.102698371672261  C 32.68821917808219 15.192013440165413  30.937260273972598 16.04242439906952  29.95342465753425 16.625438097699657  C 28.662739726027397 17.39064357715171  28.614246575342467 17.41804083742569  27.795890410958908 17.843520289480484  C 26.312328767123287 18.61475316619281  24.76602739726027 19.057492892220203  23.554520547945202 19.057492892220203  C 22.613698630136987 19.057766864822945  22.636438356164383 19.1057120703024  22.636438356164383 17.12352028948048  C 22.636438356164383 15.255575084001029  22.670958904109586 15.14379426208322  23.244383561643836 15.14379426208322  C 23.416712328767126 15.14379426208322  23.68082191780822 15.10626001550788  23.83095890410959 15.060780563453083  C 23.981369863013704 15.01502713879555  24.357534246575344 14.913931248384591  24.667397260273976 14.83584905660377  C 25.454794520547946 14.637766864822945  27.21534246575343 13.746260015507877  27.765479452054795 13.266807960713358  C 27.855616438356165 13.188177823727054  28.24438356164384 12.955301111398288  28.62986301369863 12.748999741535275  C 29.015342465753427 12.542424399069521  29.395616438356168 12.337766864822944  29.475068493150687 12.293931248384592  C 29.92767123287671 12.043794262083221  30.973150684931504 11.5857120703024  31.091232876712326 11.5857120703024  C 31.16712328767123 11.5857120703024  31.267397260273977 11.552561385370892  31.313698630136983 11.512287412768153  C 31.549863013698634 11.306807960713359  33.319452054794525 10.9416024812613  34.733972602739726 10.806260015507878  Z M 11.303013698630139 16.09091754975445  C 10.751780821917809 14.337766864822944  12.801095890410956 12.700506590850342  14.541917808219178 13.50324631687774  C 14.82657534246575 13.63447919359007  15.202191780821918 13.91310933057637  15.439726027397256 14.169273714138015  C 16.00794520547945 14.781876453864044  16.32328767123288 14.78379426208322  16.971232876712328 14.178862755233904  C 17.90493150684932 13.306533988110617  18.896438356164385 13.065438097699658  19.817808219178087 13.486807960713357  C 20.071506849315067 13.602972344275003  20.34931506849315 13.721876453864045  20.43506849315068 13.750917549754453  C 20.52054794520548 13.779958645644866  20.590684931506853 13.882150426466781  20.590684931506853 13.977766864822948  C 20.590684931506853 14.073383303179112  20.684931506849317 14.26489015249418  20.799999999999997 14.402972344275  C 21.456712328767125 15.19146549495993  21.27095890410959 16.592561385370892  20.400000000000002 17.419410700439386  C 20.19835616438356 17.61091754975445  19.2813698630137 18.522972344275  18.362465753424658 19.4457120703024  C 16.75780821917808 21.05776686482295  16.67616438356164 21.125438097699664  16.286027397260273 21.169547686740756  L 15.880273972602737 21.21530111139829  L 14.254794520547945 19.60626001550788  C 13.360821917808218 18.721328508658562  12.561369863013695 17.945712070302402  12.478082191780818 17.882698371672262  C 12.159452054794523 17.641328508658564  11.450958904109587 16.560780563453086  11.303013698630139 16.09091754975445  Z M 30.474246575342466 19.9098216593435  C 31.736986301369864 18.903520289480483  32.44821917808219 18.67091754975445  32.84301369863014 19.13475316619281  C 33.097808219178084 19.43393124838459  33.459452054794525 19.909273714138017  34.070136986301364 20.74762987852158  C 34.587671232876716 21.45749289222021  34.67452054794521 21.79831481002843  34.40054794520548 22.04324631687775  C 33.3358904109589 22.995301111398295  29.801917808219173 25.02899974153528  27.484383561643842 26.022972344275  C 24.65068493150685 27.23831481002843  24.75506849315068 27.243794262083227  24.26493150684932 25.855575084001032  C 24.09342465753425 25.37009563194624  23.93178082191781 24.87283535797364  23.90547945205479 24.75064357715172  C 23.87945205479452 24.62817782372706  23.82684931506849 24.488177823727057  23.789041095890415 24.439410700439385  C 23.484657534246573 24.04735590591884  23.60219178082192 23.30023261824761  23.992054794520545 23.146807960713364  C 24.151506849315066 23.08406823468596  24.48219178082192 22.944342207288702  24.72684931506849 22.83639700180925  C 24.971506849315066 22.728451796329804  25.271780821917805 22.609821659343496  25.393972602739723 22.572835357973638  C 26.146027397260273 22.344616179891446  29.86547945205479 20.395027138795548  30.474246575342466 19.9098216593435  Z M 38.53013698630137 19.350643577151715  C 39.00602739726028 18.70269837167226  39.29561643835616 18.701876453864042  40.2358904109589 19.346807960713356  C 41.038356164383565 19.897218919617472  40.928219178082195 19.829821659343498  42.56191780821918 20.770095631946237  C 43.27123287671233 21.17858878263117  44.031780821917806 21.596123029206513  44.25178082191781 21.69858878263117  C 44.47205479452054 21.800780563453085  44.99232876712328 22.04379426208322  45.40821917808219 22.23858878263117  C 45.82410958904109 22.433109330576375  46.46465753424658 22.705986042905142  46.83150684931507 22.844616179891442  C 48.13150684931507 23.336123029206515  48.135068493150676 23.345986042905142  47.595890410958916 24.944068234685965  C 46.90493150684931 26.990643577151715  46.84383561643836 27.077218919617472  46.22684931506849 26.88023261824761  C 44.996712328767124 26.487629878521577  42.689863013698634 25.444342207288702  41.154520547945204 24.585986042905137  C 40.74739726027397 24.35858878263117  40.30712328767124 24.117766864822954  40.1758904109589 24.050917549754462  C 40.04493150684931 23.983794262083226  39.67753424657535 23.759684673042127  39.35945205479452 23.552561385370893  C 39.04164383561644 23.34516412509692  38.655068493150694 23.09968467304213  38.500547945205476 23.0070819333161  C 36.75369863013699 21.95749289222021  36.70301369863014 21.828451796329794  37.57369863013699 20.648451796329798  C 37.912602739726026 20.189547686740752  38.34273972602739 19.605438097699658  38.53013698630137 19.350643577151715  Z M 13.896986301369859 23.279410700439392  C 13.982739726027399 23.312561385370895  14.392876712328764 23.378040837425687  14.80876712328767 23.42489015249418  C 15.224657534246573 23.471739467562678  15.63342465753425 23.531191522357194  15.717260273972602 23.556944947014735  C 15.914794520547947 23.618040837425692  17.96383561643836 23.429821659343496  18.23890410958904 23.32543809769966  C 18.5654794520548 23.201054536055832  18.67890410958904 23.387903851124317  18.675890410958903 24.045438097699662  C 18.674246575342465 24.359958645644866  18.664383561643834 29.823246316877743  18.65342465753425 36.186260015507884  C 18.636712328767125 46.01502713879555  18.614794520547942 47.78105453605583  18.50739726027397 47.92790385112431  C 18.30849315068493 48.19995864564487  14.195342465753422 48.19365727578185  13.922191780821919 47.92078056345309  C 13.753972602739726 47.752287412768155  13.684109589041096 38.31530111139829  13.740821917808217 23.38461617989144  C 13.741095890410959 23.263794262083223  13.783013698630134 23.235575084001034  13.896986301369859 23.279410700439392  Z M 33.043835616438365 38.922150426466786  C 32.77479452054794 38.913109330576376  32.214520547945206 38.97776686482295  31.798630136986297 39.06598604290514  C 28.19287671232877 39.831191522357194  26.363287671232875 41.79036960454898  27.350410958904114 43.82954768674075  C 28.338356164383562 45.870643577151725  32.41205479452055 46.06653398811063  33.409863013698626 44.12078056345309  C 33.567671232876705 43.81283535797364  33.578630136986305 43.6057120703024  33.55671232876712 41.36324631687775  L 33.533150684931506 38.938588782631165  L 33.043835616438365 38.922150426466786  Z " fill-rule="nonzero" fill="#3b94f2" stroke="none" transform="matrix(1 0 0 1 484 388 )" />
  </g>
</svg>