<?xml version="1.0" encoding="utf-8"?>
<svg version="1.1" xmlns:xlink="http://www.w3.org/1999/xlink" width="18px" height="34px" xmlns="http://www.w3.org/2000/svg">
  <g transform="matrix(1 0 0 1 -784 -63 )">
    <path d="M 17.722946081659288 32.395103845440765  C 17.722946081659288 33.05161127599408  17.227095084033408 33.58383744000118  16.61538461538464 33.583914987134364  C 16.335768177017805 33.584323146770366  16.066432827057014 33.47079729385001  15.8618076923077 33.266279507997176  L 0.3541153846153833 17.81173455816545  C 0.12839049355438448 17.586795865042426  0.00013084974004584637 17.271141732631698  0.00013084974004584637 16.940558887315554  C 0.00013084974004584637 16.609976041999364  0.12839049355438448 16.294321909588685  0.3541153846153833 16.069383216465706  L 15.8618076923077 0.6148382666339319  C 16.066697801454552 0.4106503488729426  16.335956260952024 0.2971719502051271  16.615557692307675 0.2971719502051271  C 17.227335130204423 0.2971719502051271  17.72327873310087 0.8294346379513053  17.72327873310087 1.4860139374838277  C 17.72327873310087 1.8165938062339386  17.595024695933134 2.132246173213987  17.369307692307714 2.3571896083336776  L 2.734615384615367 16.940558887315554  L 17.368961538461562 31.52392816629743  C 17.59468643456627 31.748866859821398  17.722946081659288 32.06452099588506  17.722946081659288 32.395103845440765  Z " fill-rule="nonzero" fill="#ffffff" stroke="none" transform="matrix(1 0 0 1 784 63 )" />
  </g>
</svg>