<?xml version="1.0" encoding="utf-8"?>
<svg version="1.1" xmlns:xlink="http://www.w3.org/1999/xlink" width="13px" height="15px" xmlns="http://www.w3.org/2000/svg">
  <g transform="matrix(1 0 0 1 -176 -888 )">
    <path d="M 12.514095927734372 7.537771668198535  C 12.514040322265629 6.14398145680147  12.264498104073665 4.92610128102022  11.765859055524555 3.8840254653033095  C 11.267220006975444 2.8419496495863967  10.53785732840402 2.034403038832723  9.578327890624998 1.4591107134650767  C 8.618186030970977 0.8837654986213253  7.540343934151787 0.5950612362132388  6.346026552734374 0.5950612362132388  C 4.557751848493299 0.5950612362132388  3.0744175348772305 1.1768608800551474  1.8960793261718747 2.3383440199908136  C 0.7171843554687497 3.501996248851105  0.12834926478794603 5.2387187212775785  0.12834926478794603 7.548617319623166  C 0.12834926478794603 9.788998362821694  0.7109485449218731 11.506251665900741  1.8772606291852663 12.704609782858459  C 3.043015951450893 13.903020789292285  4.532586021205355 14.50217340303309  6.34602649832589 14.50217340303309  C 7.2028327218191945 14.50217340303309  8.010476583426335 14.350282272518392  8.76840126674107 14.044119261259198  C 8.018382625558036 13.581726889935666  7.2273860728236565 13.253925620404416  6.395188860212053 13.056377171415448  L 6.976117854352679 11.402081112132358  C 8.360570627790176 11.768979388786772  9.501772599051344 12.318189395680154  10.400224870256693 13.045478630514712  C 11.809342368861603 11.823154446231623  12.514095927734372 9.988768738511038  12.514095927734372 7.537771668198535  Z " fill-rule="nonzero" fill="#c51f58" stroke="none" transform="matrix(1 0 0 1 176 888 )" />
  </g>
</svg>