<?xml version="1.0" encoding="utf-8"?>
<svg version="1.1" xmlns:xlink="http://www.w3.org/1999/xlink" width="31px" height="31px" xmlns="http://www.w3.org/2000/svg">
  <g transform="matrix(1 0 0 1 -640 -1245 )">
    <path d="M 30.24068714488636 15.287612915039062  C 30.24068714488636 6.8753814697265625  23.62594105113636 0.048532104492187506  15.468625710227272 0.048532104492187506  C 7.311310369318182 0.048532104492187506  0.6965642755681811 6.8699890136718755  0.6965642755681811 15.282220458984375  C 0.6965642755681811 23.694451904296873  7.306081321022729 30.52130126953125  15.468625710227272 30.52130126953125  C 23.63117009943182 30.52130126953125  30.24068714488636 23.699844360351562  30.24068714488636 15.287612915039062  Z M 20.305495383522725 18.927520751953125  C 20.300266335227263 19.315777587890622  20.164311079545442 19.677072143554685  19.93423295454545 19.957479858398436  C 19.88194247159091 20.022189331054687  19.829651988636364 20.076113891601562  19.772132457386355 20.130038452148437  C 19.21262428977272 20.70163879394531  17.450435014204544 22.31937561035156  15.442480468749995 22.31937561035156  C 13.204447798295448 22.31937561035156  11.489319957386364 20.572219848632812  11.023934659090905 20.043759155273435  C 10.997789417613632 20.01140441894531  10.966415127840904 19.984442138671874  10.94026988636363 19.95208740234375  C 10.929811789772721 19.941302490234378  10.919353693181815 19.930517578125002  10.91412464488636 19.919732666015623  C 10.704962713068177 19.644717407226562  10.58469460227272 19.29960021972656  10.58469460227272 18.927520751953125  C 10.58469460227272 18.032373046874998  11.285387073863628 17.309783935546875  12.153409090909083 17.309783935546875  C 12.608336292613632 17.309783935546875  13.016202059659083 17.50930480957031  13.303799715909083 17.827459716796877  L 13.298570667613628 17.822067260742188  C 13.575710227272722 18.151007080078127  14.558771306818176 19.08929443359375  15.442480468749991 19.08929443359375  C 16.13271484374999 19.08929443359375  17.14192116477272 18.312780761718752  17.64390980113636 17.762750244140623  C 17.9262784090909 17.482342529296872  18.307998934659086 17.309783935546875  18.736780894886355 17.309783935546875  C 19.604802911931813 17.309783935546875  20.305495383522725 18.032373046874998  20.305495383522725 18.927520751953125  Z " fill-rule="nonzero" fill="#c51f58" stroke="none" transform="matrix(1 0 0 1 640 1245 )" />
  </g>
</svg>