<?xml version="1.0" encoding="utf-8"?>
<svg version="1.1" xmlns:xlink="http://www.w3.org/1999/xlink" width="40px" height="40px" xmlns="http://www.w3.org/2000/svg">
  <g transform="matrix(1 0 0 1 -162 -876 )">
    <path d="M 39.462613458806814 20.12792963423296  C 39.462613458806814 9.375910404829547  30.746704669744318 0.6593474964488643  19.994140358664772 0.6593474964488643  C 9.242121129261365 0.6593474964488643  0.5255582208806815 9.375910404829543  0.5255582208806815 20.12792963423296  C 0.5255582208806815 30.87989437144887  9.242121129261363 39.59645722656251  19.994140358664772 39.59645722656251  C 30.746704669744318 39.59645722656251  39.462613458806814 30.879894318181826  39.462613458806814 20.12792963423296  Z M 28.64698288352273 28.211485458096593  L 27.956850727982957 29.846522265624998  C 26.68249653764205 29.385761949573865  25.411467382812493 28.658782102272728  24.14490797230114 27.667872141335227  C 22.829726935369322 28.40155649857955  21.377457031250003 28.76834421164773  19.78831628196023 28.76834421164773  C 18.182877521306825 28.76834421164773  16.726737500000006 28.381333877840905  15.419950763494326 27.60747674005682  C 14.112564453125005 26.83138473011364  13.106065039062507 25.742032421874995  12.400343536931826 24.33963778409091  C 11.694076953125006 22.934953781960235  11.341243448153415 21.353553267045456  11.341243448153415 19.595490678267048  C 11.341243448153415 17.844132652698868  11.696311825284099 16.251557883522732  12.406503018465912 14.815585990767053  C 13.116094637784094 13.379614151278412  14.126518661221596 12.285846590909095  15.437829580965916 11.536518288352278  C 16.749140500710233 10.78495511363637  18.2153100674716 10.409228071732961  19.83699240056819 10.409228071732961  C 21.474809215198867 10.409228071732961  22.951062872869326 10.798418732244322  24.266243909801133 11.579034925426143  C 25.580934357244317 12.357416299715915  26.58350916193182 13.446714115767051  27.27358677201705 14.844693554687504  C 27.963010262784096 16.244907865767054  28.308103533380688 17.824019016335235  28.308103533380688 19.584316477272733  C 28.308103533380688 21.042691317471593  28.086090429687506 22.355637535511374  27.64266379616478 23.523209570312503  C 27.19863758877841 24.688546732954553  26.529327734375002 25.70185969460228  25.633535085227276 26.565219797585232  C 26.72277840909091 27.31678297230114  27.72709744318182 27.864756889204557  28.64698288352273 28.211485458096593  Z " fill-rule="nonzero" fill="#c51f58" stroke="none" transform="matrix(1 0 0 1 162 876 )" />
  </g>
</svg>