<?xml version="1.0" encoding="utf-8"?>
<svg version="1.1" xmlns:xlink="http://www.w3.org/1999/xlink" width="40px" height="40px" xmlns="http://www.w3.org/2000/svg">
  <g transform="matrix(1 0 0 1 -162 -718 )">
    <path d="M 20.839999999999996 35.60939104492187  C 20.29942454013549 35.38876401020931  19.7005754598645 35.38876401020931  19.16 35.60939104492187  L 10.336499999999997 39.21259615384614  C 10.068524010003621 39.321962190714686  9.783759656401354 39.3780555666569  9.496526617313831 39.3780555666569  C 8.207862190974287 39.3780555666569  7.1631932657513335 38.27311728036338  7.1631932657513335 36.91010682942733  C 7.1631932657513335 36.8652117613565  7.1643514910114465 36.8203250517588  7.1666666484374995 36.775496814152646  L 7.679999999999999 26.787708352614178  C 7.711145199874564 26.17539001613963  7.525654541196962 25.572737342756223  7.159666648437501 25.09716346153846  L 1.1945 17.335464724308892  C 0.8559227534878886 16.895341894987887  0.6710709545837106 16.34526419299647  0.6710709545837106 15.77785669363237  C 0.6710709545837106 14.659286037114834  1.3823462658491315 13.680583114406627  2.4043333515624994 13.392916647385816  L 11.545166648437501 10.82131412184495  C 12.105039993303052 10.663862543168229  12.589514841924466 10.29174940183989  12.9043333515625 9.777371814152643  L 18.0411666484375 1.3777083526141802  C 18.471172841121092 0.675012574672026  19.208615942424295 0.2507434652302925  20 0.2507434652302925  C 20.791384057575712 0.2507434652302925  21.52882715887891 0.6750125746720247  21.9588333515625 1.3777083526141802  L 27.095666648437494 9.777371814152643  C 27.41048515807553 10.29174940183989  27.89496000669695 10.663862543168229  28.454833351562495 10.82131412184495  L 37.5956666484375 13.392916647385817  C 38.61726963838494 13.680875232656655  39.328149194198225 14.659383772696849  39.328149194198225 15.777637030233223  C 39.328149194198225 16.34459580075688  39.14358918369405 16.894266516811168  38.8055 17.334230769230764  L 32.840333351562506 25.095929506460337  C 32.47476376970246 25.571681369890772  32.289694533569616 26.17431601315959  32.321166648437504 26.78647433969351  L 32.834500000000006 36.77549681415264  C 32.83683194233247 36.82048686554651  32.837998569458264 36.865536026131885  32.837998569458264 36.910593636316165  C 32.837998569458264 38.27360408725222  31.793329644235307 39.37854237354573  30.50466521789577 39.37854237354573  C 30.217002671014363 39.37854237354573  29.931819960269287 39.322281140003284  29.6635 39.21259615384614  L 20.839999999999996 35.60939104492187  Z " fill-rule="nonzero" fill="#c51f58" stroke="none" transform="matrix(1 0 0 1 162 718 )" />
  </g>
</svg>