<?xml version="1.0" encoding="utf-8"?>
<svg version="1.1" xmlns:xlink="http://www.w3.org/1999/xlink" width="15px" height="25px" xmlns="http://www.w3.org/2000/svg">
  <g transform="matrix(1 0 0 1 -573 -884 )">
    <path d="M 3.3842184427668567 24.369196999289773  C 3.0209254081811814 24.726937422318894  2.5047697397296362 24.911073941317472  1.9868287723841296 24.911073941317472  C 1.562397438992273 24.911073941317472  1.136147098841291 24.78828788063743  0.7890565857619367 24.53743521950462  C 0.015715732531599292 23.979631597345527  -0.07418959576896243 22.999727783203124  0.589439102001402 22.34872031471946  L 10.61039773525281 12.494151694557884  L 0.589439134919243 2.639554693048651  C -0.07418956285112141 1.9885472245649862  0.015749440396771345 1.0086150290749294  0.7890566186797778 0.4508397882634945  C 1.560578465150987 -0.10469266024502827  2.724194017731744 -0.03116296941583799  3.3842184427668567 0.6190780084783384  L 14.433917749297757 11.483899147727271  C 15.025595231302674 12.06518116344105  15.025595231302674 12.923093816583805  14.433917749297757 13.50437586004084  L 3.3842184427668567 24.369196999289773  Z " fill-rule="nonzero" fill="#797979" stroke="none" transform="matrix(1 0 0 1 573 884 )" />
  </g>
</svg>