<?xml version="1.0" encoding="utf-8"?>
<svg version="1.1" xmlns:xlink="http://www.w3.org/1999/xlink" width="40px" height="40px" xmlns="http://www.w3.org/2000/svg">
  <g transform="matrix(1 0 0 1 -162 -797 )">
    <path d="M 39.48361280487805 22.89909638554218  L 36.92549542682927 20.371799698795154  C 36.71589176829268 20.16001506024097  36.439596036585364 20.047063253012006  36.13471798780487 20.047063253012006  C 35.83936737804878 20.047063253012006  35.55354420731709 20.169427710843387  35.343940548780466 20.371799698795154  L 33.32412347560977 22.367281626506053  L 37.582888719512184 26.570030120481935  L 39.48361280487805 24.45218373493976  C 39.69798018292683 24.24510542168678  39.812309451219505 23.96272590361443  39.812309451219505 23.67564006024097  C 39.812309451219505 23.383847891566298  39.688452743902445 23.101468373493947  39.48361280487805 22.89909638554218  Z M 25.440167682926823 13.519390060240967  C 25.440167682926823 14.851280120481938  24.349275914634166 15.92432228915661  23.001143292682915 16  L 10.710746951219505 16  C 9.362614329268283 15.92432228915661  8.271722560975599 14.846573795180726  8.271722560975599 13.519390060240967  C 8.271722560975599 12.1875  9.362614329268283 11.114457831325328  10.710746951219505 11.114457831325328  C 10.710746951219505 11.114457831325328  21.653010670731692 11.114457831325328  23.001143292682915 11.114457831325328  C 24.349275914634138 11.114457831325328  25.440167682926823 12.19220632530121  25.440167682926823 13.519390060240967  Z M 20.500190548780495 23.195594879518065  C 20.500190548780495 24.52748493975903  19.409298780487813 25.600527108433702  18.061166158536587 25.600527108433702  L 10.710746951219505 25.600527108433702  C 9.362614329268283 25.600527108433702  8.271722560975599 24.52277861445782  8.271722560975599 23.195594879518065  C 8.271722560975599 21.863704819277096  9.362614329268283 20.79066265060242  10.710746951219505 20.79066265060242  L 18.061166158536587 20.79066265060242  C 19.409298780487813 20.79066265060242  20.500190548780495 21.868411144578307  20.500190548780495 23.195594879518065  Z M 34.53410823170732 5.904555722891524  C 34.53410823170732 2.676016566265086  31.880716463414632 0.05459337349394546  28.60804115853659 0  L 6.118521341463411 0  C 2.8506097560975525 0.05459337349394546  0.19721798780486988 2.671310240963875  0.19721798780486988 5.899849397590313  C 0.19721798780486988 9.128388554216752  0.19721798780486988 34.12368222891564  0.19721798780486988 34.12368222891564  C 0.19721798780486988 37.35222138554218  2.8506097560975525 39.968938253012006  6.118521341463411 39.968938253012006  L 14.297827743902447 39.968938253012006  L 14.297827743902447 34.73079819277104  L 34.53410823170732 14.295933734939759  L 34.53410823170732 5.904555722891524  Z M 31.980754573170728 23.45444277108436  L 19.637957317073177 35.76618975903612  L 19.637957317073177 39.968938253012006  L 23.90625 39.968938253012006  L 36.23951981707317 27.666603915662662  L 31.980754573170728 23.45444277108436  Z " fill-rule="nonzero" fill="#c51f58" stroke="none" transform="matrix(1 0 0 1 162 797 )" />
  </g>
</svg>