<?xml version="1.0" encoding="utf-8"?>
<svg version="1.1" xmlns:xlink="http://www.w3.org/1999/xlink" width="38px" height="34px" xmlns="http://www.w3.org/2000/svg">
  <g transform="matrix(1 0 0 1 -163 -1006 )">
    <path d="M 37.89162375710228 5.353491512345679  C 37.89204545454545 2.4107108410493825  35.43818803267045 0.025414737654320986  32.41082208806818 0  L 5.589177911931818 0  C 2.5618119673295454 0.025414737654320986  0.10795454545454546 2.4107108410493825  0.10795454545454546 5.353491512345679  L 0.10795454545454546 24.211226851851855  C 0.10795454545454546 27.154007523148145  2.5618119673295454 29.539303626543216  5.589177911931818 29.539303626543216  L 14.079212535511363 29.539303626543216  L 18.388960404829547 33.728636188271615  C 18.726318359375 34.056568287037045  19.27325994318182 34.056568287037045  19.610617897727273 33.728636188271615  L 23.920365767045457 29.539303626543216  L 32.41040039062501 29.539303626543216  C 35.43776633522727 29.539303626543216  37.89162375710228 27.154007523148145  37.89162375710228 24.211226851851855  L 37.89162375710228 5.353491512345679  Z M 11.263117009943182 14.782359182098766  C 11.263117009943182 16.48022762345679  9.847478693181817 17.85672260802469  8.100386186079545 17.85672260802469  C 6.353715376420452 17.85672260802469  4.937655362215907 16.48022762345679  4.937655362215907 14.782359182098766  C 4.937655362215907 13.084490740740737  6.353715376420452 11.707995756172838  8.100386186079545 11.707995756172838  C 9.847056995738637 11.707995756172838  11.263117009943182 13.084490740740737  11.263117009943182 14.782359182098766  Z M 22.114657315340907 14.782359182098766  C 22.114657315340907 16.48022762345679  20.69901899857954 17.85672260802469  18.95192649147727 17.85672260802469  C 17.20525568181818 17.85672260802469  15.789195667613633 16.48022762345679  15.789195667613633 14.782359182098766  C 15.789195667613633 13.084490740740737  17.20525568181818 11.707995756172838  18.95192649147727 11.707995756172838  C 20.698597301136363 11.707995756172838  22.114657315340907 13.084490740740737  22.114657315340907 14.782359182098766  Z M 33.06234463778409 14.782359182098766  C 33.06234463778409 16.48022762345679  31.646284623579543 17.85672260802469  29.899613813920457 17.85672260802469  C 28.152943004261363 17.85672260802469  26.73688299005682 16.48022762345679  26.73688299005682 14.782359182098766  C 26.73688299005682 13.084490740740737  28.152943004261363 11.707995756172838  29.899613813920457 11.707995756172838  C 31.646284623579543 11.707995756172838  33.06234463778409 13.084490740740737  33.06234463778409 14.782359182098766  Z " fill-rule="nonzero" fill="#c51f58" stroke="none" transform="matrix(1 0 0 1 163 1006 )" />
  </g>
</svg>