<?xml version="1.0" encoding="utf-8"?>
<svg version="1.1" xmlns:xlink="http://www.w3.org/1999/xlink" width="33px" height="33px" xmlns="http://www.w3.org/2000/svg">
  <g transform="matrix(1 0 0 1 -800 -63 )">
    <path d="M 24.029509524256135 32.748997476821295  L 24.071632654461766 32.73495643341942  L 19.283636854421964 32.73495643341942  C 18.50817144016511 32.73495643341942  17.879532514234338 32.10631750748865  17.879532514234338 31.330852093231783  L 17.879532514234338 21.614450059133425  L 15.071323833859084 21.614450059133425  L 15.071323833859084 31.330852093231783  C 15.071323833859084 32.10631750748865  14.442684907928315 32.73495643341942  13.66721949367146 32.73495643341942  L 8.928367345538224 32.73495643341942  C 6.197384403873292 32.73495643341942  4.014002154881536 30.326917489997626  4.014002154881536 27.364257332201745  L 4.014002154881536 19.761032330085754  L 3.7191402434421352 19.761032330085754  C 2.3457245029153184 19.809765943437526  1.0797728386361294 19.02132236305312  0.5177823478143493 17.76720416701933  C 0.06846895895430942 16.735187476981423  0.11761261086087627 15.085364877260965  1.6059632114597606 13.554891146456455  L 12.838797932960768 1.8446609492916566  C 13.788573738837401 0.8502446533041091  15.103824675547 0.2876773020031422  16.47893843489719 0.2876773020031422  C 17.854052194247377 0.2876773020031422  19.16930313095697 0.8502446533041091  20.119078936833606 1.8446609492916566  L 31.351913658334603 13.554891146456455  C 32.84728478063442 15.11344696406472  32.89642843254099 16.76326956378518  32.44009452198001 17.767204167019333  C 31.87962395216421 19.022647872418716  30.612671653567947 19.811714654877797  29.238736626352225 19.761032330085758  L 28.98599784511845 19.761032330085758  L 28.98599784511845 27.378298375603627  C 28.98599784511845 30.340958533399515  26.760492465921065 32.748997476821295  24.029509524256135 32.748997476821295  Z M 20.680720672908652 29.94780931814698  L 20.673700151207715 29.926747753044157  L 24.071632654461773 29.926747753044157  C 25.412552299340952 29.926747753044157  26.240973860051653 28.592848629865923  26.240973860051653 27.357236810500815  L 26.240973860051653 18.356927989898132  C 26.240973860051653 17.581462575641275  26.86961278598243 16.952823649710506  27.645078200239283 16.952823649710506  L 29.29490079995974 16.952823649710506  C 29.74421418881978 16.952823649710506  29.877604101137596 16.79135165058893  29.94780931814699 16.629879651467352  C 30.01801453515637 16.46840765234577  29.94780931814699 16.05419687199042  29.40722914717476 15.478514092513496  L 18.174394425673746 3.7682838953486972  C 17.268612823956143 2.8705929881097183  15.808612914754187 2.8705929881097134  14.902831313036584 3.7682838953486995  L 3.6699965915355803 15.478514092513496  C 3.122395898862407 16.05419687199042  3.0732522469558403 16.489469217448587  3.1294164205633455 16.636900173168286  C 3.185580594170853 16.784331128887985  3.333011549890551 16.952823649710506  3.7823249387505906 16.952823649710506  L 5.432147538471051 16.952823649710506  C 6.207612952727907 16.952823649710506  6.836251878658678 17.581462575641275  6.836251878658678 18.356927989898132  L 6.836251878658678 27.378298375603627  C 6.836251878658678 28.613910194968735  7.664673439369376 29.94780931814698  9.005593084248563 29.94780931814698  L 12.403525587502617 29.94780931814698  L 12.403525587502617 21.52318327702122  C 12.297426760353332 20.788082364359408  12.509333866094476 20.042577847776123  12.986228888680483 19.47319094034729  C 13.445664015243903 19.0406200979167  14.06207651956515 18.814855847362836  14.692215662008445 18.848364508963794  L 18.392030598402826 18.848364508963794  C 19.02216974084612 18.814855847362832  19.638582245167367 19.0406200979167  20.098017371730787 19.47319094034729  C 20.574912394316794 20.042577847776123  20.78681950005794 20.78808236435941  20.680720672908652 21.52318327702122  L 20.680720672908652 29.94780931814698  Z " fill-rule="nonzero" fill="#ffffff" stroke="none" transform="matrix(1 0 0 1 800 63 )" />
  </g>
</svg>