<?xml version="1.0" encoding="utf-8"?>
<svg version="1.1" xmlns:xlink="http://www.w3.org/1999/xlink" width="107px" height="107px" xmlns="http://www.w3.org/2000/svg">
  <g transform="matrix(1 0 0 1 10 -17 )">
    <path d="M 43.5 19  C 72.34 19  95 41.66  95 70.5  C 95 99.34  72.34 122  43.5 122  C 14.659999999999997 122  -8 99.34  -8 70.5  C -8 41.66  14.659999999999997 19  43.5 19  Z " fill-rule="nonzero" fill="#f2f2f2" stroke="none" fill-opacity="0.6431372549019608" />
    <path d="M 43.5 18.5  C 72.62 18.5  95.5 41.379999999999995  95.5 70.5  C 95.5 99.62  72.62 122.5  43.5 122.5  C 14.379999999999995 122.5  -8.5 99.62  -8.5 70.5  C -8.5 41.379999999999995  14.379999999999995 18.5  43.5 18.5  Z " stroke-width="3" stroke="#c51f58" fill="none" />
  </g>
</svg>