<?xml version="1.0" encoding="utf-8"?>
<svg version="1.1" xmlns:xlink="http://www.w3.org/1999/xlink" width="29px" height="29px" viewBox="927 1266  29 29" xmlns="http://www.w3.org/2000/svg">
  <path d="M 927.5 1280.5  A 14 14 0 0 1 941.5 1266.5 A 14 14 0 0 1 955.5 1280.5 A 14 14 0 0 1 941.5 1294.5 A 14 14 0 0 1 927.5 1280.5 Z " fill-rule="nonzero" fill="#ffffff" stroke="none" fill-opacity="0" />
  <path d="M 927.5 1280.5  A 14 14 0 0 1 941.5 1266.5 A 14 14 0 0 1 955.5 1280.5 A 14 14 0 0 1 941.5 1294.5 A 14 14 0 0 1 927.5 1280.5 Z " stroke-width="1" stroke="#d7d7d7" fill="none" />
  <path d="M 933.2142857142857 1280.5  L 939.4285714285714 1286.7142857142856  L 949.7857142857143 1272.2142857142858  " stroke-width="6.214285714285715" stroke="#d7d7d7" fill="none" />
</svg>