<?xml version="1.0" encoding="utf-8"?>
<svg version="1.1" xmlns:xlink="http://www.w3.org/1999/xlink" width="65px" height="65px" xmlns="http://www.w3.org/2000/svg">
  <g transform="matrix(1 0 0 1 -784 -48 )">
    <path d="M 816.5 48  C 834.7 48  849 62.3  849 80.5  C 849 98.7  834.7 113  816.5 113  C 798.3 113  784 98.7  784 80.5  C 784 62.3  798.3 48  816.5 48  Z " fill-rule="nonzero" fill="#7c2f47" stroke="none" />
    <path d="M 816.5 48.49994624233953  C 834.4200301042899 48.49994624233953  848.5000537576605 62.579969895710136  848.5000537576605 80.5  C 848.5000537576605 98.42003010428986  834.4200301042899 112.50005375766047  816.5 112.50005375766047  C 798.5799698957102 112.50005375766047  784.4999462423395 98.42003010428986  784.4999462423395 80.5  C 784.4999462423395 62.579969895710136  798.5799698957102 48.49994624233953  816.5 48.49994624233953  Z " stroke-width="0.9998924846790667" stroke="#cbcbcb" fill="none" />
  </g>
</svg>