<?xml version="1.0" encoding="utf-8"?>
<svg version="1.1" xmlns:xlink="http://www.w3.org/1999/xlink" width="19px" height="29px" xmlns="http://www.w3.org/2000/svg">
  <g transform="matrix(1 0 0 1 -544 -51 )">
    <path d="M 4.286676694171351 28.26826851917614  C 3.826505517029496 28.68324740988992  3.1727083369908726 28.896845771928266  2.516649778353231 28.896845771928266  C 1.9790367560568793 28.896845771928266  1.439119658532302 28.75441394153942  0.9994716752984533 28.46342485462536  C 0.019906594540025767 27.816372652920812  -0.09397348797401908 26.679684228515626  0.7466228625351092 25.924515565074575  L 13.439837131320227 14.493215965687146  L 0.7466229042310412 3.061883443936435  C -0.09397344627808711 2.3067147804953843  0.019949291169243703 1.1699934337269182  0.9994717169943852 0.5229741543856536  C 1.9767327225245837 -0.12144348588423279  3.4506457557935426 -0.036149044522372074  4.286676694171351 0.7181304898348726  L 18.282962482443825 13.321323011363635  C 19.03242062631672 13.995610149591618  19.03242062631672 14.990788827237214  18.282962482443825 15.665075997647374  L 4.286676694171351 28.26826851917614  Z " fill-rule="nonzero" fill="#707070" stroke="none" transform="matrix(1 0 0 1 544 51 )" />
  </g>
</svg>