<?xml version="1.0" encoding="utf-8"?>
<svg version="1.1" xmlns:xlink="http://www.w3.org/1999/xlink" width="60px" height="65px" xmlns="http://www.w3.org/2000/svg">
  <g transform="matrix(1 0 0 1 -43 -33 )">
    <path d="M 9.78147460937501 0.412109375  C 15.111394531250028 0.412109375  50.13844726562502 0.412109375  50.13844726562502 0.412109375  C 55.46836718750001 0.412109375  59.7890625 4.9485351562500455  59.7890625 10.544554687499954  C 59.7890625 16.14057421874986  59.7890625 54.021851562500046  59.7890625 54.021851562500046  C 59.7890625 59.617871093749955  55.46836718750001 64.154296875  50.13844726562502 64  L 9.78147460937501 64  C 4.451554687499993 64.154296875  0.130859375 59.617871093749955  0.130859375 54.021851562500046  C 0.130859375 54.021851562500046  0.130859375 16.14057421874986  0.130859375 10.544554687499954  C 0.130859375 4.9485351562500455  4.451554687499993 0.412109375  9.78147460937501 0.412109375  Z M 45.611070312500004 47.850310546874994  C 45.611070312500004 47.08716601562503  44.99246679687499 46.468642578125014  44.229322265625 46  L 15.506419921874993 46  C 14.743355468749996 46.468642578125014  14.124751953124985 47.08724609374997  14.124751953124985 47.850310546874994  C 14.124751953124985 48.61345507812496  14.743355468749996 49.231978515624974  15.506419921874993 49  L 44.229322265625 49  C 44.99246679687499 49.231978515624974  45.611070312500004 48.61337500000002  45.611070312500004 47.850310546874994  Z M 45.611070312500004 35.69140820312498  C 45.611070312500004 34.928263671875015  44.99246679687499 34.30966015624995  44.229322265625 34  L 15.690599609374999 34  C 14.927455078125007 34.30966015624995  14.308851562499996 34.928263671875015  14.308851562499996 35.69140820312498  C 14.308851562499996 36.454472656250005  14.927455078125007 37.07307617187496  15.690599609374999 37  L 44.229322265625 37  C 44.99246679687499 37.07307617187496  45.611070312500004 36.454472656250005  45.611070312500004 35.69140820312498  Z M 22.576757812500006 9.830898437499968  C 22.42653125000001 9.53725195312495  22.20631640625001 9.283564453124995  21.92876562500001 9.098984374999986  C 20.937238281250018 8.439541015624968  19.690582031250017 8.893984374999945  19.230613281249987 9.935560546874967  L 12.861599609374991 24.35578906249998  L 12.843501953125013 24.398630859374975  C 12.566431640625012 25.08682226562496  12.883220703125005 25.875912109375008  13.566607421875005 26.178046875000064  L 13.609449218750001 26.196144531249956  C 14.297320312500005 26.47345507812497  15.085929687499998 26.15642578125005  15.387904296875005 25.472718750000013  L 16.97697460937499 21.874488281250024  L 25.169447265624996 21.874488281250024  L 26.868224609375005 25.500585937499977  L 26.88864453125001 25.54238671874998  C 27.225373046875006 26.203431640625013  28.028156249999995 26.48250390625003  28.704736328124994 26.165394531250058  C 29.395330078125 25.841478515625  29.692820312500004 25.018835937499944  29.369144531250015 24.327841796874964  L 22.607828124999997 9.894400390625037  L 22.576757812500006 9.830898437499968  Z M 44.46323046875 24.914253906249996  C 44.46323046875 24.151109375000033  43.844947265625024 23.532585937500016  43.08220312500001 23.532585937500016  L 33.458414062500026 23.532585937500016  L 33.41373046875 23.533226562499976  C 32.6717265625 23.556849609375035  32.077466796875 24.166083984375064  32.077466796875 24.914253906249996  C 32.077466796875 25.67739843749996  32.69566992187501 26.295921874999976  33.458414062500026 26.295921874999976  L 43.08220312500001 26.295921874999976  L 43.12688671875003 26.295201171874965  C 43.868970703125 26.271658203124957  44.46323046875 25.66234374999999  44.46323046875 24.914253906249996  Z M 39.350562499999995 11.925582031249974  C 39.350562499999995 11.16291796874998  38.73235937499999 10.544634765625005  37.969615234375 10.544634765625005  C 37.206951171875005 10.544634765625005  36.58866796875 11.162837890625042  36.58866796875 11.925582031249974  L 36.58866796875 14.04492968750003  L 34.37987304687499 14.04492968750003  C 33.56587890625002 14.04492968750003  32.90603515625 14.704773437499966  32.90603515625 15.518687500000055  C 32.90603515625 16.33268164062497  33.56587890625002 16.99252539062502  34.37987304687499 16.99252539062502  L 36.58858789062501 16.99252539062502  L 36.58858789062501 19.111873046874962  C 36.58858789062501 19.874537109374955  37.206951171875005 20.492820312500044  37.969615234375 20.492820312500044  C 38.73235937499999 20.492820312500044  39.35064257812499 19.874537109374955  39.35064257812499 19.111873046874962  L 39.35064257812499 16.99252539062502  L 41.5594375 16.99252539062502  C 42.373351562500005 16.99252539062502  43.0331953125 16.33268164062497  43.0331953125 15.518687500000055  C 43.0331953125 14.704773437499966  42.373351562500005 14.04492968750003  41.5594375 14.04492968750003  L 39.350562499999995 14.04492968750003  L 39.350562499999995 11.925582031249974  Z M 18.197525390625003 19.11099218749996  L 20.952773437500014 12.872746093750038  L 23.875064453124992 19.11099218749996  L 18.197525390625003 19.11099218749996  Z " fill-rule="nonzero" fill="#c51f58" stroke="none" transform="matrix(1 0 0 1 43 33 )" />
  </g>
</svg>