<?xml version="1.0" encoding="utf-8"?>
<svg version="1.1" xmlns:xlink="http://www.w3.org/1999/xlink" width="27px" height="26px" xmlns="http://www.w3.org/2000/svg">
  <g transform="matrix(1 0 0 1 -286 -209 )">
    <path d="M 26.358793324775352 10.747134187457856  C 26.78626444159179 11.202966958867162  27.000000000000007 11.734771858844685  27 12.342548887390425  C 27.000000000000007 12.962013935715891  26.78626444159179 13.487974825803551  26.358793324775352 13.920431557653405  L 15.077021822849808 25.35131490222522  C 14.626444159178433 25.783771634075073  14.100770218228497 26  13.5 26  C 12.88767650834403 26  12.367779204107832 25.783771634075073  11.9403080872914 25.35131490222522  L 0.6585365853658537 13.920431557653405  C 0.2195121951219513 13.499662845583277  0 12.973701955495617  0 12.342548887390425  C 0 11.723083839064957  0.2195121951219513 11.191278939087434  0.6585365853658537 10.747134187457856  L 1.9409499358151476 9.432231962238706  C 2.3915275994865217 8.999775230388849  2.9172015404364577 8.783546864463926  3.517971758664955 8.783546864463926  C 4.130295250320925 8.783546864463926  4.650192554557125 8.999775230388849  5.077663671373556 9.432231962238706  L 10.172657252888317 14.586648685097776  L 10.172657252888317 2.2440997977073494  C 10.172657252888317 1.6363227691616091  10.39216944801027 1.1103618790739467  10.831193838254173 0.6662171274443709  C 11.270218228498075 0.22207237581478645  11.790115532734275 0  12.390885750962772 0  L 14.609114249037228 0  C 15.209884467265725 0  15.729781771501928 0.22207237581478645  16.16880616174583 0.6662171274443709  C 16.607830551989732 1.1103618790739467  16.82734274711168 1.6363227691616091  16.82734274711168 2.2440997977073494  L 16.82734274711168 14.586648685097776  L 21.922336328626443 9.432231962238706  C 22.349807445442877 8.999775230388849  22.869704749679077 8.783546864463926  23.482028241335044 8.783546864463926  C 24.08279845956354 8.783546864463926  24.608472400513477 8.999775230388849  25.059050064184852 9.432231962238706  L 26.358793324775352 10.747134187457856  Z " fill-rule="nonzero" fill="#707070" stroke="none" transform="matrix(1 0 0 1 286 209 )" />
  </g>
</svg>