<?xml version="1.0" encoding="utf-8"?>
<svg version="1.1" xmlns:xlink="http://www.w3.org/1999/xlink" width="63px" height="63px" xmlns="http://www.w3.org/2000/svg">
  <g transform="matrix(1 0 0 1 -42 -34 )">
    <path d="M 2.1000000000000014 43.787234042553195  L 58.800000000000004 30.159574468085108  C 61.10999999999999 25.24468085106383  47.25 16.30851063829787  28.14 21.67021276595744  L 28.14 13.851063829787234  L 39.269999999999996 8.48936170212766  C 39.69 8.26595744680851  39.9 7.819148936170213  39.9 7.372340425531911  C 39.9 6.925531914893614  39.69 6.478723404255316  39.269999999999996 6.255319148936167  L 26.67 0.4468085106382947  C 26.459999999999997 0.22340425531914576  26.25 0.22340425531914576  25.83 0.22340425531914576  L 25.62 0.22340425531914576  C 24.36 0.22340425531914576  23.31 1.340425531914892  23 2.680851063829784  L 23 23.23404255319149  C 22.049999999999997 23.680851063829785  21.21 24.127659574468083  20.16 24.574468085106382  C -2.9400000000000013 35.52127659574468  -0.4199999999999985 40.88297872340426  2.1000000000000014 43.787234042553195  Z M 63 39.765957446808514  C 63 37.085106382978715  60.690000000000005 34.85106382978723  58.17 34.851063829787236  L 4.830000000000001 47.58510638297872  C 3.5700000000000016 47.58510638297872  2.3100000000000014 48.03191489361702  1.47 49.148936170212764  C 0.63 50.04255319148936  0 51.38297872340425  0 52.723404255319146  L 0 57.861702127659576  C 0 60.76595744680851  2.1000000000000014 63  4.830000000000001 63  L 58.17 63  C 60.9 63  63 60.76595744680851  63 57.861702127659576  L 63 39.765957446808514  Z M 15.119999999999994 52.9468085106383  L 15.33 57.861702127659576  C 15.33 58.75531914893617  14.91 59.648936170212764  14.07 60.09574468085106  C 13.229999999999997 60.54255319148936  12.389999999999999 60.54255319148936  11.549999999999999 60.09574468085106  C 10.709999999999996 59.648936170212764  10.289999999999996 58.75531914893617  10.289999999999996 57.861702127659576  L 10.289999999999996 52.723404255319146  C 10.289999999999996 52.0531914893617  10.499999999999996 51.38297872340425  10.919999999999998 50.93617021276595  C 11.339999999999998 50.48936170212766  11.969999999999999 50.26595744680851  12.6 50.26595744680851  C 13.86 50.26595744680851  15.119999999999994 51.38297872340425  15.119999999999994 52.9468085106383  Z M 24.99 50.04255319148936  L 24.99 57.861702127659576  C 24.99 58.75531914893617  24.57 59.648936170212764  23.73 60.09574468085106  C 22.89 60.54255319148936  22.049999999999994 60.54255319148936  21.209999999999994 60.09574468085106  C 20.369999999999994 59.648936170212764  19.949999999999996 58.75531914893617  19.949999999999996 57.861702127659576  L 19.949999999999996 50.04255319148936  C 19.949999999999996 48.702127659574465  20.999999999999996 47.36170212765957  22.469999999999995 47.36170212765957  C 23.73 47.36170212765957  24.99 48.478723404255305  24.99 50.04255319148936  Z M 34 57.861702127659576  L 34.650000000000006 57.861702127659576  C 34.650000000000006 59.202127659574465  33.6 60.54255319148936  32.129999999999995 60.54255319148936  C 30.869999999999994 60.54255319148936  29.609999999999996 59.42553191489362  30 57.861702127659576  L 30 47.58510638297872  C 29.609999999999996 46.91489361702128  29.819999999999993 46.24468085106383  30.239999999999995 45.797872340425535  C 30.659999999999993 45.351063829787236  31.289999999999996 45.12765957446809  31.919999999999987 45.12765957446809  C 32.54999999999999 45.12765957446809  33.18 45.351063829787236  33.599999999999994 45.797872340425535  C 34.019999999999996 46.24468085106383  34.22999999999998 46.91489361702128  34 47.58510638297872  L 34 57.861702127659576  Z M 44 45.12765957446809  L 44 57.861702127659576  C 44.31 59.202127659574465  43.26 60.54255319148936  41.78999999999999 60.54255319148936  C 40.529999999999994 60.54255319148936  39.26999999999999 59.42553191489362  39 57.861702127659576  L 39 45.12765957446809  C 39.26999999999999 43.787234042553195  40.319999999999986 42.4468085106383  41.78999999999999 42.4468085106383  C 43.05 42.4468085106383  44.31 43.56382978723404  44 45.12765957446809  Z M 53.75999999999999 42.446808510638284  L 53.97 58.08510638297872  C 53.97 58.97872340425532  53.55 59.87234042553192  52.71 60.319148936170215  C 51.870000000000005 60.76595744680851  51.03 60.76595744680851  50.18999999999999 60.319148936170215  C 49.34999999999999 59.87234042553192  48.92999999999999 58.97872340425532  49 58.08510638297872  L 49 42.670212765957444  C 48.92999999999999 41.32978723404255  49.97999999999998 39.98936170212765  51.449999999999996 39.98936170212765  C 52.079999999999984 39.98936170212765  52.71 40.2127659574468  53.13 40.6595744680851  C 53.55 41.106382978723396  53.75999999999999 41.77659574468084  53.75999999999999 42.446808510638284  Z " fill-rule="nonzero" fill="#c51f58" stroke="none" transform="matrix(1 0 0 1 42 34 )" />
  </g>
</svg>