<?xml version="1.0" encoding="utf-8"?>
<svg version="1.1" xmlns:xlink="http://www.w3.org/1999/xlink" width="36px" height="36px" xmlns="http://www.w3.org/2000/svg">
  <g transform="matrix(1 0 0 1 -16 -14 )">
    <path d="M 22.078125 22.078125  C 23.974759615384617 20.181490384615383  24.923076923076923 17.89903846153846  24.923076923076923 15.230769230769234  C 24.923076923076923 12.562499999999996  23.974759615384617 10.280048076923075  22.078125 8.383413461538462  C 20.181490384615387 6.486778846153843  17.899038461538463 5.538461538461538  15.23076923076923 5.538461538461538  C 12.562500000000002 5.538461538461538  10.280048076923078 6.486778846153843  8.383413461538462 8.383413461538462  C 6.486778846153847 10.280048076923075  5.538461538461538 12.562499999999996  5.538461538461538 15.230769230769234  C 5.538461538461538 17.89903846153846  6.486778846153847 20.181490384615383  8.383413461538462 22.078125  C 10.280048076923078 23.97475961538461  12.562500000000002 24.923076923076923  15.23076923076923 24.923076923076923  C 17.899038461538463 24.923076923076923  20.181490384615387 23.97475961538461  22.078125 22.078125  Z M 35.19951923076923 31.283653846153847  C 35.73317307692308 31.817307692307693  36 32.46634615384615  36 33.23076923076923  C 36 33.98076923076923  35.72596153846154 34.62980769230769  35.17788461538461 35.17788461538461  C 34.62980769230769 35.72596153846154  33.98076923076923 36  33.23076923076923 36  C 32.45192307692308 36  31.802884615384617 35.72596153846154  31.283653846153847 35.17788461538461  L 23.862980769230766 27.778846153846153  C 21.28125 29.567307692307693  18.403846153846157 30.46153846153846  15.23076923076923 30.46153846153846  C 13.168269230769232 30.46153846153846  11.195913461538462 30.061298076923077  9.313701923076923 29.26081730769231  C 7.431490384615385 28.46033653846154  5.808894230769231 27.378605769230766  4.445913461538462 26.015625  C 3.0829326923076925 24.652644230769234  2.0012019230769234 23.030048076923077  1.2007211538461537 21.14783653846154  C 0.40024038461538464 19.265625  0 17.293269230769226  0 15.230769230769234  C 0 13.168269230769226  0.40024038461538464 11.195913461538462  1.2007211538461537 9.313701923076923  C 2.0012019230769234 7.431490384615383  3.0829326923076925 5.808894230769233  4.445913461538462 4.445913461538462  C 5.808894230769231 3.082932692307694  7.431490384615385 2.0012019230769225  9.313701923076923 1.200721153846155  C 11.195913461538462 0.4002403846153837  13.168269230769232 0  15.23076923076923 0  C 17.29326923076923 0  19.265625 0.4002403846153837  21.14783653846154 1.200721153846155  C 23.030048076923077 2.0012019230769225  24.652644230769234 3.082932692307694  26.015625 4.445913461538462  C 27.378605769230766 5.808894230769233  28.46033653846154 7.431490384615383  29.260817307692307 9.313701923076923  C 30.061298076923077 11.195913461538462  30.46153846153846 13.168269230769226  30.46153846153846 15.230769230769234  C 30.46153846153846 18.403846153846153  29.567307692307693 21.281249999999996  27.778846153846153 23.862980769230766  L 35.19951923076923 31.283653846153847  Z " fill-rule="nonzero" fill="#b3b5b6" stroke="none" transform="matrix(1 0 0 1 16 14 )" />
  </g>
</svg>