<?xml version="1.0" encoding="utf-8"?>
<svg version="1.1" xmlns:xlink="http://www.w3.org/1999/xlink" width="63px" height="62px" xmlns="http://www.w3.org/2000/svg">
  <g transform="matrix(1 0 0 1 -42 -34 )">
    <path d="M 17.746008728027363 10.987145965021268  C 18.620543068625732 10.987145965021268  19.45358278697619 11.151757093394922  20.244984910999648 11.483302767666869  C 21.036458486106174 11.812525024414096  21.721977795410165 12.263832692649165  22.305406161221587 12.842294990678251  C 22.888834457120023 13.418363485440338  23.34634811678798 14.099056567382789  23.679020304731885 14.879586423561785  C 24.012980220170462 15.66251015181108  24.179316314142415 16.507884679066084  24.179316314142415 17.413034659090922  C 24.179316314142415 18.2783343372692  24.012980220170462 19.09364520818536  23.679020304731885 19.8541795965021  C 23.34634811678798 20.617178173828115  22.888834457120023 21.28547964976918  22.305406161221587 21.863941947798267  C 21.721977865323158 22.439940056818156  21.0363870350231 22.89378236860792  20.244984910999648 23.222934170809648  C 19.453582856889224 23.552085973011376  18.620543068625732 23.716626715642754  17.746008728027363 23.716626715642754  C 16.872619072931446 23.716626715642754  16.039650875577045 23.552085973011376  15.248248821466625 23.222934170809648  C 14.45684676735616 22.89378236860792  13.770039660644514 22.439940056818156  13.186539843749978 21.863941947798267  C 12.604327754350146 21.285479580965877  12.145597888183591 20.617178173828115  11.812925700239681 19.8541795965021  C 11.480181991299707 19.09364520818536  11.313774376331688 18.278263951527002  11.313774376331688 17.413034659090922  C 11.313774376331688 16.507884747869305  11.480181991299707 15.66251015181108  11.812925700239681 14.879586423561785  C 12.145526367187486 14.099126953124987  12.604327754350146 13.418363485440338  13.186539843749978 12.842294990678251  C 13.770039660644514 12.263832623845865  14.45684676735616 11.812525024414096  15.248248821466625 11.483302767666869  C 16.039650875577045 11.151686707652726  16.872619072931446 10.987145965021268  17.746008728027363 10.987145965021268  Z M 59.09208060857599 0.11274385431465282  C 60.09152801180754 0.11274385431465282  60.95604640669391 0.47181861017396415  61.68441958673649 1.194966954456646  C 62.41272124578302 1.9155806551846313  62.77694363125886 2.748422804953851  62.77694363125886 3.695957661576719  C 62.77694363125886 3.695957661576719  62.77694363125886 57.37192663796162  62.77694363125886 58.319531880326686  C 62.77694363125886 59.26713712269175  62.41264972478691 60.09997927246098  61.68441958673649 60.82059297318896  C 60.95597481578481 61.54120667391686  60.091456420898446 61.90274561878553  59.09208060857599 61.90274561878553  C 58.09270479625353 61.90274561878553  3.9429035755504285 61.90274568758875  3.9429035755504285 61.90274568758875  C 2.9448154907226747 61.90274568758875  2.0903845625443727 61.54120674272016  1.3821863159179584 60.820593041992176  C 0.6752042757901423 60.099979341264195  0.32106935702236716 59.26713719149505  0.32106935702236716 58.31953194912999  C 0.32106935702236716 57.371926706764924  0.3210694269353566 3.6959575927734183  0.3210694269353566 3.6959575927734183  C 0.3210694269353566 2.74842273615055  0.6752043457031318 1.9155805863814135  1.3821863858309478 1.194966885653428  C 2.090384632457404 0.4718185413707461  2.9448154907226747 0.11274385431465282  3.9429035755504285 0.11274385431465282  C 4.940991660378183 0.11274385431465282  59.09208060857599 0.11274385431465282  59.09208060857599 0.11274385431465282  Z M 57.218313567560365 9.256546608664788  C 57.218313567560365 8.226706187855136  56.86410712779653 7.3514791614879655  56.15712508766867 6.6308654607599795  C 55.44885532004615 5.910251760031994  54.26160916193181 5.5511770041726  53.22088183926668 5.5511770041726  C 52.18015451660156 5.5511770041726  9.501748342063216 5.5511770041726  9.501748342063216 5.5511770041726  C 8.460806386496786 5.5511770041726  7.587488252397015 5.910251760031994  6.879218484774496 6.6308654607599795  C 6.170948717151978 7.3514791614879655  5.816813798384245 8.226706187855136  5.816813798384245 9.256546608664788  C 5.816813798384245 10.286387029474444  5.816813798384245 31.007674316406284  5.816813798384245 31.007674316406284  C 5.816813798384245 32.202125865589515  6.119295107199939 33.334126546963816  6.722898336514543 34.40642223011361  C 7.326573156738283 35.476112883966614  8.191019960715556 36.436109732333065  9.315165793678984 37.27894968483667  C 10.439168514737213 38.12432428089489  11.792679245827403 38.792484847745044  13.374267147549736 39.28631823286576  C 14.957142846679677 39.78240458096586  16.72638646129263 40.049316810191776  18.68350042169742 40.09170175559303  C 21.4723663729581 40.131411217151964  23.731890121182524 39.760015241033386  25.459710704456658 38.979626225142006  C 27.18738817582564 38.19642088512078  28.687131588467675 37.20657153764208  29.9560791936701 36.01226082874646  C 31.226314596280176 34.81773889382104  32.41356075439452 33.52126792436078  33.51610074462892 32.11974998446375  C 34.62014309525926 30.718513656338807  35.93201616210936 29.40190630992546  37.45193450816762 28.1650698841442  C 38.970422014826006 26.92823345836294  40.84433216774679 25.888395303622115  43.07244883034444 25.04562580566409  C 45.3006370139382 24.200392049893484  48.183724291992185 23.756477155095908  51.722426224032304 23.71662685324927  C 52.3474206631747 23.67424197665124  52.711714569646645 23.66431455965913  52.81502178955077 23.6867039683949  C 52.91968832785868 23.70662911931818  53.054474224298666 23.71662685324927  53.22088183926668 23.71662685324927  C 53.3884341397372 23.71662685324927  53.731336906294366 23.72655420143824  54.251664807128904 23.746549738103717  C 54.771992707963435 23.76900953258169  55.761495686479044 23.756477086292605  57.21831363747335 23.71662685324927  C 57.21831363747335 23.71662685324927  57.2183135908647 14.076573356859589  57.218313567560365 9.256546608664788  Z " fill-rule="nonzero" fill="#c51f58" stroke="none" transform="matrix(1 0 0 1 42 34 )" />
  </g>
</svg>