<?xml version="1.0" encoding="utf-8"?>
<svg version="1.1" xmlns:xlink="http://www.w3.org/1999/xlink" width="50px" height="52px" xmlns="http://www.w3.org/2000/svg">
  <g transform="matrix(1 0 0 1 -48 -37 )">
    <path d="M 8.161438899253731 35.738731751824815  L 15.947119869402984 35.73873175182482  C 17.52565298507463 35.73873175182482  18.80538712686567 34.436952554744536  18.80538712686567 32.831227189781025  L 18.80538712686568 32.368635948905116  C 18.80572694712111 31.90417743481525  18.70487546529592 31.445414195197227  18.510086287313428 31.025342153284676  C 13.19875233208955 28.465077554744532  9.513467817164178 22.858827554744526  9.513467817164178 16.35497262773723  C 9.513467817164178 7.433781934306571  16.447061567164177 0.20164233576642335  25 0.20164233576642335  C 33.55293843283582 0.20164233576642335  40.48653218283582 7.433781934306568  40.48653218283582 16.354972627737222  C 40.48653218283582 22.858827554744522  36.801247667910445 28.46537408759124  31.48991371268657 31.02563868613138  C 31.29520859180703 31.445529767373063  31.194359193349786 31.90408098966741  31.194612873134332 32.36833941605838  L 31.194612873134332 32.8309306569343  C 31.194612873134332 34.436952554744515  32.47434701492537 35.738731751824815  34.05288013059701 35.738731751824815  L 41.83856110074627 35.738731751824815  C 46.22376399253732 35.738731751824815  49.778451492537314 39.35465328467153  49.778451492537314 43.81539689781022  L 49.778451492537314 48.74140054744525  C 49.778451492537314 50.481455291970796  48.391732742537314 51.89206204379562  46.68114505597015 51  L 3.318854944029851 51  C 1.608267257462686 51.89206204379562  0.22154850746268656 50.481455291970796  0.22154850746268656 48.74140054744525  L 0.22154850746268656 43.81539689781022  C 0.22154850746268656 39.35465328467153  3.776236007462688 35.738731751824815  8.161438899253731 35.738731751824815  Z " fill-rule="nonzero" fill="#c51f58" stroke="none" transform="matrix(1 0 0 1 48 37 )" />
  </g>
</svg>