<?xml version="1.0" encoding="utf-8"?>
<svg version="1.1" xmlns:xlink="http://www.w3.org/1999/xlink" width="10px" height="11px" xmlns="http://www.w3.org/2000/svg">
  <g transform="matrix(1 0 0 1 -60 -42 )">
    <path d="M 8.78655133928571 3.369609375000003  C 6.0379464285714235 4.6953385416666675  4.348772321428568 6.721744791666669  3.615513392857141 9.545651041666666  C 3.417849320391961 10.307095780146637  2.746210314232955 10.836940150666855  1.9786551339285654 10.836940150666855  C 1.043088328965516 10.836940150666855  0.2846615821426722 10.058288690595402  0.2846615821426722 9.097773437500003  C 0.2846615821426722 8.946565707495724  0.30386863734351877 8.796003604174853  0.341796875 8.649895833333336  C 1.336216517857147 4.81908854166667  3.7053571428571432 1.9771354166666688  7.345982142857136 0.2214322916666672  C 7.571344035206364 0.11273608825104683  7.817274655138959 0.05638212915248744  8.06626674107142 0.05638212915248744  C 9.001818478889183 0.05638212915248744  9.760233011377437 0.8350210491737665  9.760233011377437 1.7955208333333337  C 9.760233011377437 2.4696077743665295  9.380818031200075 3.082983572589024  8.78655133928571 3.369609375000003  Z " fill-rule="nonzero" fill="#707070" stroke="none" transform="matrix(1 0 0 1 60 42 )" />
  </g>
</svg>