<?xml version="1.0" encoding="utf-8"?>
<svg version="1.1" xmlns:xlink="http://www.w3.org/1999/xlink" width="60px" height="51px" xmlns="http://www.w3.org/2000/svg">
  <g transform="matrix(1 0 0 1 -208 -883 )">
    <path d="M 15.744047642299117 8.694656513895492  C 15.744047642299117 13.333969465648824  12.291666713169652 17.129770992366396  8.035714285714285 17.129770992366396  C 3.779761928013394 17.129770992366396  0.29761907087053685 13.333969465648824  0.2380952148437489 8.694656513895492  C 0.2380952148437489 4.0553435621421565  3.6904761439732123 0.29198473282441295  7.94642857142858 0.29198473282441295  C 12.232142857142865 0.29198473282441295  15.744047642299117 4.055343486104508  15.744047642299117 8.694656513895492  Z M 59.76190478515625 47.78816793893126  C 59.76190478515625 46.58778623419614  58.869047642299115 45.61450379144802  57.767857142857125 45  L 23.630952357700885 45  C 23.392857142857135 47.52862590350667  22.767857142857142 49.28053430045315  21.81547621372767 50.80534351145046  C 21.81547621372767 50.80534351145046  56.66666664341516 50.80534351145046  57.767857142857125 50.80534351145046  C 58.869047642299094 50.80534351145046  59.76190478515625 49.83206106870235  59.76190478515625 48.63167936396712  L 59.76190478515625 47.78816793893126  Z " fill-rule="nonzero" fill="#c51f58" stroke="none" transform="matrix(1 0 0 1 208 883 )" />
  </g>
</svg>