<?xml version="1.0" encoding="utf-8"?>
<svg version="1.1" xmlns:xlink="http://www.w3.org/1999/xlink" width="55px" height="50px" xmlns="http://www.w3.org/2000/svg">
  <g transform="matrix(1 0 0 1 -213 -874 )">
    <path d="M 54.760348607281465 4.069767441860437  C 54.760348607281465 1.9379844961239894  53.142701548457914 0.19379844961235904  51.165577365451384 0.19379844961235904  C 49.18845318244485 0.19379844961235904  3.8344226345486154 0.19379844961235904  3.8344226345486154 0.19379844961235904  C 1.8572984515420865 0.19379844961235904  0.23965139271853841 1.9379844961239894  0.23965139271853841 4.069767441860437  L 0.23965139271853841 5.038759689922432  C 1.0185184717116091 4.877261007146273  1.7973856209150263 4.780361782340143  2.606209150326788 4.780361782340143  C 9.556100241268378 4.780361782340143  15.24782132735908 10.852713178294598  15.24782132735908 18.313953488372068  C 15.24782132735908 20.994832016109495  14.528867078993047 23.51421186107076  13.270697144352528 25.645994806807202  C 15.24782132735908 25.516795815164777  16.416121980953847 25.355297132388614  17.075163398692798 25.226098216448655  L 23.605664464613977 15.568475426962241  C 25.013616510927285 13.372093023255866  27.290304987489783 12.080103333938983  29.776688476562498 12.080103333938983  C 31.244553423713235 12.080103333938983  32.65250547002657 12.53229969113373  33.880718954248366 13.404392790092064  L 34.03050106592116 13.501292014898295  L 34.68954248366013 14.082687363735472  C 36.247276711856614 15.406976744186085  37.26579518356823 17.31266154917634  37.47549019607842 19.47674418604652  C 37.71514158879696 21.57622736494667  37.17592590252247 23.64341085271319  36.00762524892768 25.29069767441859  C 31.274509803921553 32.29974162730141  29.35729845154206 35.077519379844965  28.5484749221303 36.27260984435562  C 27.709694942299823 38.339793332122134  25.882352941176478 40.40697674418608  23.605664464613977 41.05297155099319  L 23.515795183568226 41.085271317829495  L 18.513071895424844 42.377261007146274  L 18.513071895424844 50  L 37.98474943193421 50  C 36.99618734043095 49.935400542030074  36.18736381101919 49.06330751877421  36.18736381101919 47.997416045905986  L 36.18736381101919 46.7054263565891  C 36.18736381101919 45.63953488372087  36.99618734043095 44.767441860465105  37.98474943193421 44  L 48.169934640522875 44  C 49.15849673202614 44.767441860465105  49.967320261437905 45.63953488372087  49.967320261437905 46.7054263565891  L 49.967320261437905 47.997416045905986  C 49.967320261437905 49.06330751877421  49.15849673202614 49.935400542030074  48.169934640522875 49.935400542030074  L 51.165577365451384 49.935400542030074  C 53.142701548457914 49.935400542030074  54.760348607281465 48.191214495518444  54.760348607281465 46.05943154978199  C 54.760348607281465 43.927648604045544  54.760348607281465 4.069767441860437  54.760348607281465 4.069767441860437  Z " fill-rule="nonzero" fill="#a7a4a5" stroke="none" transform="matrix(1 0 0 1 213 874 )" />
  </g>
</svg>