<?xml version="1.0" encoding="utf-8"?>
<svg version="1.1" xmlns:xlink="http://www.w3.org/1999/xlink" width="39px" height="58px" xmlns="http://www.w3.org/2000/svg">
  <g transform="matrix(1 0 0 1 -506 -633 )">
    <path d="M 0.20399798611113207 7.130434755859386  C 0.2159061616685981 9.066942565494928  1.7831188957874653 10.630471682438637  3.7122438888888927 10.630434787109388  C 5.64136888199032 10.63039789178014  17.68025988715276 10.630434787109388  17.68025988715276 10.630434787109388  C 19.60938485824759 10.630471651292481  21.176597558084758 9.066942543403462  21.188505733506947 7.130434755859386  L 21.188505733506947 3.630434781250018  C 21.18850573393937 3.6304122769674323  21.188505734804288 7.130299728960579  21.18850573415562 3.6303672678006147  C 21.188505733506947 0.13043480664065005  17.55297260449421 0.03779269020441088  17.68025988715276 0.13043480664065005  C 17.80754716981131 0.22307692307688926  17.68747841145202 0.13038979778289744  17.68025988715276 0.13043480664065005  C 17.673041362853503 0.1304798154984027  3.7122438888888927 0.13043480664065005  3.7122438888888927 0.13043480664065005  C 3.705025345782265 0.13038979754839355  3.7194625712414346 0.13043480664065005  3.7122438888888927 0.13043480664065005  C 1.7866533957851731 0.13043480664065005  0.20399798546246073 1.6973706570639358  0.20399798546246073 3.6303672674488587  L 0.20399798611113207 7.130434755859386  Z M 26.689165809947724 33.369545757120044  C 26.68192152812697 33.369545757120044  26.67467724774243 33.36955223847321  26.667432977430575 33.36956520117187  C 19.921905310021266 33.36956520115674  14.453559128999691 38.85894348287454  14.453559128999691 45.63043475975047  C 14.453559128999691 52.40192603662641  19.921905310021266 57.891304318344204  26.66745217587468 57.891304318344204  C 33.40454346025257 57.891304318344204  38.869380829964356 52.41516642825215  38.881326024305565 45.652173884765595  C 38.88137735705425 45.63767471064566  38.88140302348937 45.623175456402834  38.88140302348937 45.60867619071379  C 38.88140302348937 38.84919110105  33.422752489306276 33.369545757120044  26.689165809947724 33.369545757120044  Z M 33.64061300347222 45.23913045312501  L 33.64061300347222 49  L 23.18084290798611 49  L 23.18084290798611 39.36956523046872  L 26.667432977430533 39.36956523046872  L 26.667432977430533 45.23913045312501  L 33.64061300347222 45.23913045312501  Z " fill-rule="nonzero" fill="#a7a4a5" stroke="none" transform="matrix(1 0 0 1 506 633 )" />
  </g>
</svg>