<?xml version="1.0" encoding="utf-8"?>
<svg version="1.1" xmlns:xlink="http://www.w3.org/1999/xlink" width="40px" height="33px" xmlns="http://www.w3.org/2000/svg">
  <g transform="matrix(1 0 0 1 -358 -660 )">
    <path d="M 2.9231989157165295 0.599438612808926  C -0.19511746404351865 -0.8413855776166457  0.04097501676727215 2.8205482897384306  0.04097501676727215 2.8205482897384306  C 0.04097501676727215 2.8205482897384306  0.04097501676727215 17.529122850309406  0.04097501676727215 20.517963915568885  C 0.04097501676727215 22.800878383508596  0.7742403495044374 23.293385311871234  2.9240605671063435 24.471539140503392  L 16.432169405320817 31.877491363273982  C 16.432169405320817 31.877491363273982  19.659053860198227 33.71232109638966  23.35553832252776 31.877491363273982  L 36.84899908711529 24.484093238677342  C 38.57747177509501 23.537707376333472  39.74328610552203 22.84240347746858  39.74587105969149 20.517963915568885  C 39.748456013860945 18.193524353669186  39.74587105969149 3.28987842147223  39.74587105969149 2.8253767890361  C 39.74587105969149 2.169666584412126  39.91820133765557 -0.9495439618845162  36.84899908711529 0.6235811092972898  C 32.490766357403686 2.8166854903002863  24.54892549742903 6.804060210318508  22.607624916163655 7.7011953798261255  C 19.893423038229383 8.95660519722106  17.179221160295114 7.7011953798261255  17.179221160295114 7.7011953798261255  C 17.179221160295114 7.7011953798261255  6.272437867948439 2.2189172772483965  2.9231989157165295 0.599438612808926  Z " fill-rule="nonzero" fill="#a7a4a5" stroke="none" transform="matrix(1 0 0 1 358 660 )" />
  </g>
</svg>