<?xml version="1.0" encoding="utf-8"?>
<svg version="1.1" xmlns:xlink="http://www.w3.org/1999/xlink" width="60px" height="60px" xmlns="http://www.w3.org/2000/svg">
  <g transform="matrix(1 0 0 1 -347 -874 )">
    <path d="M 56.13057124921532 14.59426658296715  C 57.22811996847079 15.45734393320895  58.15274995819998 16.519986875950554  58.85582757899142 17.726302573760204  C 59.57982841598661 18.95668549905838  59.95731324544884 20.33270558694288  60 21.8577108181628  L 60 51.44465369324127  C 59.922996442770454 53.86524377484831  59.08321127153519 55.876543209876544  57.480644486294196 57.478551998326026  C 55.878077701053215 59.0805607867755  53.866778266024966 59.92034595801076  51.44674618120945 60  L 8.55409081397782 60  C 6.132384738787753 59.920903954802284  4.1210853037595045 59.08111878356701  2.5201925088930737 57.478551998326026  C 0.919299714026644 55.875985213085045  0.07923554439561944 53.86468577805678  0 51.44465369324127  L 0 21.8577108181628  C 0 20.341075538815655  0.3900397572713957 18.956685499058384  1.1717932621887426 17.726302573760208  C 1.9734280876289811 16.4741919740836  3.031865535766673 15.406625146339326  4.27704540698891 14.594266582967151  L 25.720862105042897 1.2919020715630911  C 27.050010462439843 0.4348189997907537  28.541535886168656 0.0020924879681966544  30.203808328102117 0.0020924879681966544  C 31.86608077003558 0.0020924879681966544  33.35760619376439 0.4306340238543654  34.68591755597406 1.2919020715630911  L 56.13057124921532 14.59426658296715  Z M 45.901653065494884 47.57773592801843  L 45.90500104624399 47.57857292320567  C 45.97077578505476 46.50608813197562  45.648424724388654 45.44574625592276  44.99686126804772 44.59133709981168  L 40.30968821929274 39.8480853735091  C 40.73931400745285 39.02620032526759  41.05497342521417 38.149618909129345  41.24795982423101 37.24251935551371  C 41.4493799163622 36.269896379176984  41.54701804691719 35.27864489857129  41.53923414940365 34.28541535886169  C 41.46223059217411 30.57417869847249  40.23240566366744 27.527237218386006  37.84975936388366 25.144590918602226  C 35.46711306409989 22.761944618818454  32.420171584013396 21.532119690311788  28.70893492362419 21.455116133082242  C 24.99769826323499 21.532119690311788  21.950756783148503 22.761944618818447  19.568110483364723 25.14459091860222  C 17.18546418358095 27.527237218386  15.955360256678526 30.57417869847249  15.877798702657458 34.28541535886169  C 15.954802259887007 37.9966520192509  17.184627188393666 41.05363744158472  19.567273488177445 43.45637162586316  C 21.94991978796122 45.859105810141614  24.997140266443466 47.0989746808956  28.70893492362419 47.17597823812515  C 30.4270070447095 47.17597823812515  32.14535816419056 46.746041710260165  33.86398828206738 45.88616865453024  L 38.55116133082235 50.57334170328521  C 39.45176815233312 51.434609750993936  40.454488386691786 51.86315128688011  41.56852898095837 51.86315128688011  C 42.682569575224946 51.86315128688011  43.6852898095836 51.434609750993936  44.58171165515799 50.57334170328521  C 45.40531491943922 49.669386901025334  45.845295389551524 48.67085164260306  45.901653065494884 47.57773592801843  Z M 24.435237497384392 34.27704540698892  C 24.428577051439923 33.52930406143009  24.619424457273475 32.79305461381197  24.988491316174937 32.14270767943085  C 25.367013785510878 31.493165597154245  25.913068373146032 30.957228484673788  26.569575224942458 30.59091860221804  C 27.887951768226255 29.80865737956688  29.528244088647583 29.80865737956688  30.846620631931373 30.59091860221804  C 32.185435471028605 31.332548174440305  33.00735874268876 32.75088856768869  32.985143335425825 34.2812303829253  C 32.94664155681106 35.49431540768641  32.52814396317222 36.50986956824999  31.72965055450932 37.327892864616025  C 30.93115714584642 38.145916160982075  29.924251935551375 38.55436981237358  28.70893492362419 38.553253818790544  C 27.496128897258842 38.553253818790544  26.49340866290019 38.14228918183721  25.695752249424565 37.32370788867964  C 24.89809583594895 36.50512659552208  24.473739275999165 35.489851433354254  24.435237497384392 34.27704540698892  Z " fill-rule="nonzero" fill="#c51f58" stroke="none" transform="matrix(1 0 0 1 347 874 )" />
  </g>
</svg>