<?xml version="1.0" encoding="utf-8"?>
<svg version="1.1" xmlns:xlink="http://www.w3.org/1999/xlink" width="38px" height="43px" xmlns="http://www.w3.org/2000/svg">
  <g transform="matrix(1 0 0 1 -208 -891 )">
    <path d="M 37.07389934772995 5.023065501185783  C 38 3.8392857142857144  37.79088047980542 2.047619072614355  36.65566037735847 1.0877976440429262  L 36.14779876547758 0.671875  C 35.69968555793043 0.35193449881421657  35.19182394604954 0.1919642857142857  34.68396226415094 0.1919642857142857  C 33.78773584905659 0.1919642857142857  32.95125783829599 0.671875  32.44339622641509 1.4717262154714978  L 25.154088026975245 12.221726215471499  C 24.676100582252346 13.213541716657382  19.567610016214616 13.789434573800238  9.97798744472287 13.917410714285715  L 6.691823876031836 13.917410714285715  C 3.106918215654482 13.917410714285715  0.1792452830188677 17.052827355957074  0.1792452830188677 20.89211307024279  C 0.1792452830188677 24.7313987845285  0.1792452830188677 35.83333335832864  0.1792452830188677 35.83333335832864  C 0.1792452830188677 39.67261907261435  3.106918215654482 42.808035714285715  6.691823876031836 42.808035714285715  L 12.188679245283003 42.808035714285715  C 15.773584905660382 42.808035714285715  18.701257838295984 39.67261907261435  19 35.83333335832864  L 19 20.9561012154715  L 27.364779897553053 18.74851192975721  C 28.2908805498231 18.492559573800236  29.12735849056603 17.180803571428573  29.21698113207547 16.540922644042926  L 29.21698113207547 16.508928571428573  C 29.336478010760608 16.380952355957074  34.38522010244692 8.958333358328641  37.07389934772995 5.023065501185783  Z " fill-rule="nonzero" fill="#c51f58" stroke="none" transform="matrix(1 0 0 1 208 891 )" />
  </g>
</svg>