<?xml version="1.0" encoding="utf-8"?>
<svg version="1.1" xmlns:xlink="http://www.w3.org/1999/xlink" width="14px" height="3px" xmlns="http://www.w3.org/2000/svg">
  <g transform="matrix(1 0 0 1 -247 -677 )">
    <path d="M 1.2844172297297243 0.030133928571428575  C 1.9790962837837784 0.030133928571428575  2.5407516891891837 0.6662946428571428  2.5407516891891837 1.453125  C 2.5407516891891837 2.239955357142857  1.9790962837837784 2.876116071428571  1.2844172297297243 2.876116071428571  C 0.5897381756756757 2.876116071428571  0.028082770270264894 2.239955357142857  0.028082770270264894 1.453125  C 0.028082770270264894 0.6662946428571428  0.5897381756756757 0.030133928571428575  1.2844172297297243 0.030133928571428575  Z M 8.253378378378368 1.4447544642857144  C 8.26076858108108 0.6662946428571428  7.691722972972962 0.021763392857142856  6.997043918918909 0.021763392857142856  C 6.302364864864865 0.021763392857142856  5.740709459459448 0.6579241071428572  5.740709459459448 1.4447544642857144  C 5.740709459459448 2.231584821428571  6.302364864864865 2.8677455357142856  6.997043918918909 2.8677455357142856  C 7.691722972972962 2.8677455357142856  8.253378378378368 2.231584821428571  8.253378378378368 1.4447544642857144  Z M 13.899493243243231 1.4447544642857144  C 13.899493243243231 0.6662946428571428  13.337837837837828 0.021763392857142856  12.643158783783774 0.021763392857142856  C 11.94847972972972 0.021763392857142856  11.386824324324314 0.6579241071428572  11.386824324324314 1.4447544642857144  C 11.386824324324314 2.231584821428571  11.94847972972972 2.8677455357142856  12.643158783783774 2.8677455357142856  C 13.337837837837828 2.8677455357142856  13.899493243243231 2.231584821428571  13.899493243243231 1.4447544642857144  Z " fill-rule="nonzero" fill="#ffffff" stroke="none" transform="matrix(1 0 0 1 247 677 )" />
  </g>
</svg>