<?xml version="1.0" encoding="utf-8"?>
<svg version="1.1" xmlns:xlink="http://www.w3.org/1999/xlink" width="60px" height="54px" xmlns="http://www.w3.org/2000/svg">
  <g transform="matrix(1 0 0 1 -487 -639 )">
    <path d="M 51.43155767456152 0.11434872059813728  C 51.42368311328002 0.11434872059813728  51.415808556731335 0.1143608527133857  51.40793403330554 0.11438511690033337  C 51.40793403330554 0.11438511690033337  48.55387707018374 0.11434872059813728  48.55387707018374 1.9895504341036094  L 48.55387707018374 5.7867603128949625  C 48.567677814951274 7.822180160836606  46.945145234721345 9.496968472968913  44.89785371052779 9.560530569493867  C 44.89785371052779 9.560530569493867  16.294823371795406 9.611415510830149  14.23443209539819 9.560530569493867  C 12.174040819000977 9.509645628157681  10.530598062185573 7.834883528617855  10.531234252673633 5.7867603128949625  L 10.531234252673633 1.9895504341036094  C 10.531234252673633 0.11434872059813728  7.700764531086109 0.11438511690033337  7.700764531086109 0.11438511690033337  C 3.5022774737729403 0.11436512135815136  0.09508205288298856 3.489745419230001  0 7.661925630098239  L 0 45.46994718480728  C 0.1209089959669475 49.623796955879904  3.520563221970957 53.156429178563414  7.700764531086109 53.15625  C 10.772983760843134 53.15611831356023  21.971830985915492 53.15625  25.943661971830974 53.15625  C 29.91549295774646 53.15625  38.11267605633805 53.324999999999946  35.577464788732414 50.54062499999998  C 35.487743239690495 50.44208550496631  37.327243580256614 52.56982371457662  35.31150911407195 50.24741185728829  C 33.295774647887306 47.92499999999996  31.349121957754967 45.491600644189305  31.267605633802862 41.25937499999998  C 31.183098591549374 36.871874999999946  33.46478873239439 31.38750000000004  37.349934575872794 28.389233818718278  C 41.2350804193512 25.390967637436518  45.04225352112677 25.32072246976973  47.57746478873241 25.358798734884875  C 50.11267605633803 25.39687500000002  52.24709192731459 26.352749189898894  54.59154929577467 27.50625000000002  C 55.9350700423228 28.16727812974121  59.15492957746479 31.122127016129024  59.15492957746479 26.578125  C 59.15492957746479 26.578125  59.16790783659008 11.834105946714878  59.15492957746479 7.661925630098239  C 59.1419513183395 3.489745313481599  55.63004477589825 0.11434872059813728  51.43155767456152 0.11434872059813728  Z M 28.717002023360234 32  L 28.717002023360234 38  L 10.531234252673633 38  L 10.531234252673633 32  L 28.717002023360234 32  Z M 37.349934575872794 20  L 37.349934575872794 26  L 10.531234252673633 26  L 10.531234252673633 20  L 37.349934575872794 20  Z " fill-rule="nonzero" fill="#c51f58" stroke="none" transform="matrix(1 0 0 1 487 639 )" />
  </g>
</svg>