<?xml version="1.0" encoding="utf-8"?>
<svg version="1.1" xmlns:xlink="http://www.w3.org/1999/xlink" width="59px" height="60px" xmlns="http://www.w3.org/2000/svg">
  <g transform="matrix(1 0 0 1 -346 -388 )">
    <path d="M 58.99352215040713 33.36363639160153  C 58.85748790809228 33.36363639160153  58.721453665777375 33.36363639160153  58.58541942346251 33.36363639160153  C 57.67852437240526 33.36363639160153  55.864734270290796 33.36363639160153  55.864734270290796 33.36363639160153  C 55.864734270290796 33.36363639160153  55.864734270290796 49.727272695312514  55.864734270290796 52.04545453320314  C 55.864734270290796 54.36363637109376  54.096288936072895 56.136363593749984  51.78370663259547 56.13636365527345  C 49.47112432911805 56.13636371679692  34.50735614011077 56.13636365527345  34.50735614011077 56.13636365527345  L 34.50735614011077 59.27272729296875  C 34.50735614011077 59.27272729296875  48.38285026784938 59.27272729296875  52.19180942091495 59.27272729296875  C 56.00076857398052 59.27272729296875  58.99352221178195 56.2727272783203  58.99352215040713 52.45454546386716  C 58.993522089032325 48.63636364941403  58.99352215040713 39.72727274902339  58.99352215040713 33.36363639160153  Z M 26.345300864720162 56.13636365527345  C 26.345300864720162 56.13636365527345  10.021190191189223 56.13636365527345  7.708607826336984 56.13636365527345  C 5.396025461484748 56.13636365527345  3.627580188641704 54.36363637109376  3.627580127266844 52.04545453320314  C 3.6275800658919843 49.727272695312514  3.627580127266844 33.36363639160153  3.627580127266844 33.36363639160153  L 0.4987922471505135 33.36363639160153  C 0.4987922471505135 33.36363639160153  0.4987922471505135 48.63636364941403  0.4987922471505135 52.45454546386716  C 0.4987922471505135 56.2727272783203  3.4915458849519885 59.27272729296875  7.3005050380175085 59.27272729296875  C 11.109464191083028 59.27272729296875  26.345300864720162 59.27272729296875  26.345300864720162 59.27272729296875  L 26.345300864720162 56.13636365527345  Z M 59 7.454545428710942  C 58.99352215040713 3.772727237304707  56.00076851260566 0.6363635996093535  52.19180942091495 1  L 34.50735614011077 1  L 34.50735614011077 3.772727298828126  C 34.50735614011077 3.772727298828126  49.471124267743235 3.772727298828126  51.78370663259547 3.772727298828126  C 54.096288997447715 3.772727298828126  55.864734270290796 5.68181820605467  55.864734270290796 7.999999982421871  C 55.864734270290796 10.318181758789072  55.864734270290796 25.18181820898438  55.864734270290796 25.18181820898438  L 59 25.18181820898438  L 59 7.454545428710942  Z M 26.345300864720162 0.6363636611328211  C 26.345300864720162 0.6363636611328211  11.109464191083028 0.6363636611328211  7.3005050380175085 0.6363636611328211  C 3.4915458849519885 0.6363636611328211  0.4987922471505135 3.6363636757812725  0.4987922471505135 7.454545428710942  C 0.4987922471505135 11.27272718164061  0.4987922471505135 25.18181820898438  0.4987922471505135 25.18181820898438  L 3.627580127266844 25.18181820898438  C 3.627580127266844 25.18181820898438  3.627580127266844 10.31818182031249  3.627580127266844 7.999999982421871  C 3.627580127266844 5.681818144531251  5.396025461484748 3.909090921874979  7.708607826336984 3.909090921874979  C 10.021190191189223 3.909090921874979  26.345300864720162 3.909090921874979  26.345300864720162 3.909090921874979  L 26.345300864720162 0.6363636611328211  Z " fill-rule="nonzero" fill="#c51f58" stroke="none" transform="matrix(1 0 0 1 346 388 )" />
  </g>
</svg>