<?xml version="1.0" encoding="utf-8"?>
<svg version="1.1" xmlns:xlink="http://www.w3.org/1999/xlink" width="34px" height="60px" xmlns="http://www.w3.org/2000/svg">
  <g transform="matrix(1 0 0 1 -372 -388 )">
    <path d="M 3.136363646484373 6.63636362890625  L 3.136363646484373 6.227272698242188  L 5.8636363535156235 6.227272698242188  L 5.8636363535156235 6.63636362890625  L 3.136363646484373 6.63636362890625  Z M 3.136363646484373 55.18181817089844  L 3.136363646484373 53.40909088671875  L 5.8636363535156235 53.40909088671875  L 5.8636363535156235 55.18181817089844  L 3.136363646484373 55.18181817089844  Z M 32.72727273925781 33.50000001464844  L 32.72727273925781 30.909090930664064  L 33.13636360839844 30.909090930664064  L 33.13636360839844 33.50000001464844  L 32.72727273925781 33.50000001464844  Z M 32.72727273925781 28.0454545390625  L 32.72727273925781 25.181818208984375  L 33.13636360839844 25.181818208984375  L 33.13636360839844 28.0454545390625  L 32.72727273925781 28.0454545390625  Z M 3.136363646484373 1.0454545302734375  L 3.136363646484373 0.6363636611328125  L 5.8636363535156235 0.6363636611328125  L 5.8636363535156235 1.0454545302734375  L 3.136363646484373 1.0454545302734375  Z M 0.40909093945312236 56.13636365527344  L 0.40909093945312236 55.18181817089844  L 3.136363646484373 55.18181817089844  L 3.136363646484373 56.13636365527344  L 0.40909093945312236 56.13636365527344  Z M 5.863636353515631 59.27272729296875  L 5.8636363535156235 58.86363636230469  L 8.590909060546878 58.86363636230469  L 8.590909060546878 59.27272729296875  L 5.863636353515631 59.27272729296875  Z M 0.40909093945312236 59.27272729296875  L 0.40909093945312236 58.86363636230469  L 3.136363646484373 58.86363636230469  L 3.136363646484373 59.27272729296875  L 0.40909093945312236 59.27272729296875  Z M 3.136363646484373 56.13636365527344  L 3.136363646484373 55.18181817089844  L 5.8636363535156235 55.18181817089844  L 5.8636363535156235 56.13636365527344  L 3.136363646484373 56.13636365527344  Z M 3.136363646484373 59.27272729296875  L 3.136363646484373 58.86363636230469  L 5.8636363535156235 58.86363636230469  L 5.8636363535156235 59.27272729296875  L 3.136363646484373 59.27272729296875  Z " fill-rule="nonzero" fill="#ffffff" stroke="none" transform="matrix(1 0 0 1 372 388 )" />
  </g>
</svg>