<?xml version="1.0" encoding="utf-8"?>
<svg version="1.1" xmlns:xlink="http://www.w3.org/1999/xlink" width="63px" height="63px" xmlns="http://www.w3.org/2000/svg">
  <defs>
    <linearGradient gradientUnits="userSpaceOnUse" x1="30.03076923076922" y1="13.716916454081634" x2="30.03076923076922" y2="124.61871603260869" id="LinearGradient5423">
      <stop id="Stop5424" stop-color="#ffffff" offset="0" />
      <stop id="Stop5425" stop-color="#f9e8e9" offset="1" />
    </linearGradient>
    <filter x="207px" y="388px" width="63px" height="63px" filterUnits="userSpaceOnUse" id="filter5426">
      <feOffset dx="2" dy="2" in="SourceAlpha" result="shadowOffsetInner" />
      <feGaussianBlur stdDeviation="0.5" in="shadowOffsetInner" result="shadowGaussian" />
      <feComposite in2="shadowGaussian" operator="atop" in="SourceAlpha" result="shadowComposite" />
      <feColorMatrix type="matrix" values="0 0 0 0 0  0 0 0 0 0  0 0 0 0 0  0 0 0 0.3137254901960784 0  " in="shadowComposite" />
    </filter>
    <g id="widget5427">
      <path d="M 5.270380675117934 59.829155993852474  C 5.270380675117934 59.829155993852474  5.32021852889153 59.829155993852474  5.345137455778314 59.829155993852474  C 13.740145931603791 59.82811763575822  30.530162883254718 59.826040919569664  30.530162883254718 59.826040919569664  L 59.06360554245282 29.142857142857192  L 25.07324190815322 5  L 6.4287293632075375 5  L 53.57127063679246 5  L 25 5  L 25 29  L 59 29  L 59 4.085233094262288  C 59.06360554245282 1.959095478995924  57.190337927476406 0.14512807377049544  54.73000073702829 0.1085425204917913  C 54.73000073702829 0.1085425204917913  7.8168407281839904 0.1085425204917913  5.3447560436320884 0.1085425204917913  C 2.8726713590801864 0.1085425204917913  0.9746882370283174 1.9012346311475634  1 4.020943263319672  L 1 55.85246542008198  C 0.9363944575471805 57.978669313524584  2.8096620725235937 59.792570440573776  5.270380675117934 59.829155993852474  Z " fill-rule="nonzero" fill="url(#LinearGradient5423)" stroke="none" transform="matrix(1 0 0 1 207 388 )" />
    </g>
  </defs>
  <g transform="matrix(1 0 0 1 -207 -388 )">
    <use xlink:href="#widget5427" filter="url(#filter5426)" />
    <use xlink:href="#widget5427" />
  </g>
</svg>