<?xml version="1.0" encoding="utf-8"?>
<svg version="1.1" xmlns:xlink="http://www.w3.org/1999/xlink" width="28px" height="29px" xmlns="http://www.w3.org/2000/svg">
  <g transform="matrix(1 0 0 1 -238 -419 )">
    <path d="M 12.831294123331709 3.2413104367723706  C 12.831294123331709 1.877582229913449  13.967624537150058 0.7720061657475329  15.369459025065098 0.7720061657475329  C 16.771158396403 0.7720061657475329  17.90755636850993 1.877582229913449  17.90755636850993 3.2413104367723706  C 17.90755636850993 4.002595837162966  17.553415819803856 4.683537968654264  16.996667963663732 5.1364237557205685  L 16.996667963663732 8.942192206289253  C 18.25730562845865 9.184078129787057  19.403026644388838 9.738117409500422  20.345532328287746 10.518303234623932  L 22.312897249857592 9.12191087909771  C 22.31222166697183 9.098466449812332  22.311883875528974 9.075022020526955  22.311883875528974 9.051445880964678  C 22.311883875528974 7.687651818967332  23.448214289347323 6.58214160993989  24.84998121897378 6.58214160993989  C 26.251748148600264 6.58214160993989  27.388146120707194 7.687651818967332  27.388146120707194 9.051445880964678  C 27.388146120707194 10.4151740878236  26.251748148600264 11.520750151989516  24.84998121897378 11.520750151989516  C 24.528471323649086 11.520750151989516  24.220945994059228 11.46260006474514  23.93787676493327 11.356507436714923  L 22.106574236551925 12.65635615928502  C 22.649945551554367 13.659988469142537  22.957605997721362 14.803694658466407  22.957605997721362 16.017470715092664  C 22.957605997721362 16.828015759037978  22.82046267191569 17.6072796122233  22.56745688120525 18.334517906039387  L 24.238916498819982 19.455108941770053  C 24.52930807416724 19.346777532839045  24.837658501876952 19.291416917834393  25.148588854471843 19.291788198433643  C 26.5503557840983 19.291788198433643  27.686686197916675 20.39736426259956  27.686686197916675 21.761092469458482  C 27.686686197916675 23.12488653145583  26.5503557840983 24.23039674048332  25.14852129618326 24.23039674048332  C 23.74682192484536 24.23039674048332  22.61049151102701 23.12488653145583  22.61049151102701 21.761092469458482  C 22.61049151102701 21.73343331131281  22.61096441904703 21.70590586344399  22.611842676798485 21.678444270713644  L 21.173526713053388 20.714193333644484  C 19.816821161905928 22.25355719472847  17.805205561319983 23.228608374502127  15.55997339884441 23.228608374502127  C 15.464918886820485 23.228608374502127  15.370269724527997 23.226830285764176  15.276093470255528 23.22333996342675  L 14.93255957285563 24.645020692114727  C 15.195619129148021 24.952509486386287  15.377607825057687 25.318004306571787  15.46268946329753 25.70970071530808  C 15.754541269938144 27.044386806114026  14.877972475687656 28.35641872929593  13.50485026041666 28.640056810566012  C 12.131728045145664 28.923760746974565  10.782048556009926 28.07172696581072  10.49012919108073 26.737040875004773  C 10.21354555765787 25.472292941224318  10.986209704081219 24.227894245222505  12.236375834147122 23.85956645591584  L 12.54005034128825 22.60239186305625  C 10.713612009684226 21.805149557076252  9.279281984964996 20.3071427229339  8.597145945231105 18.45911582797178  L 5.547970148722328 19.145326370538456  C 5.167144076029448 20.041285529043126  4.259971377054843 20.67171676934934  3.2014681116739823 20.67171676934934  C 1.7997011820475244 20.67171676934934  0.663370768229175 19.566140705183425  0.663370768229175 18.202412498324506  C 0.663370768229175 16.83861843632716  1.7997011820475244 15.733108227299715  3.2015356699625634 15.733108227299715  C 3.9033311716715637 15.733108227299715  4.538581759134939 16.01022664986406  4.9980456797281825 16.45817330154716  L 8.16754278818766 15.744830441942407  C 8.21550917307535 14.4873265733906  8.593768030802394 13.312141627891366  9.220168482462554 12.2993554537904  L 7.258275782267262 10.75077187332454  C 7.008572265647636 10.828134628806659  6.748096659095971 10.8673872266629  6.486084543863932 10.867137902951717  C 5.084317614237474 10.867137902951717  3.947919642130543 9.7615618387858  3.947919642130543 8.39783363192688  C 3.947919642130543 7.034039569929534  5.084317614237474 5.928529360902091  6.486084543863932 5.928529360902091  C 7.887851473490414 5.928529360902091  9.024181887308764 7.034039569929534  9.024181887308764 8.39783363192688  C 9.024181887308764 8.470274284213184  9.02093908945719 8.542056385115098  9.014723726908368 8.6129823692172  L 11.103017985026046 10.261534049838184  C 11.995057627360033 9.604168057909211  13.044710756937654 9.13929663564647  14.18698630015055 8.930272426231243  L 14.18698630015055 5.426779061111756  C 13.380813242594392 5.013208791695386  12.831294123331709 4.1896902854769715  12.831294123331709 3.2413104367723706  Z " fill-rule="nonzero" fill="#c51f58" stroke="none" transform="matrix(1 0 0 1 238 419 )" />
  </g>
</svg>