<?xml version="1.0" encoding="utf-8"?>
<svg version="1.1" xmlns:xlink="http://www.w3.org/1999/xlink" width="48px" height="48px" xmlns="http://www.w3.org/2000/svg">
  <g transform="matrix(1 0 0 1 -352 -394 )">
    <path d="M 24 29.954545475585917  C 20.545454562500026 29.54545454492188  18.50000003222658 27.500000014648435  17.818181793945314 25  L 0.3636363828125013 25  C 0.3636363828125013 25  0.3636363828125013 45.36363635644534  0.3636363828125013 46.18181815625002  C 0.3636363828125013 46.999999956054694  0.9090909365234552 47.54545450976559  1.727272736328132 47.54545457128904  C 2.5454545361328087 47.54545463281249  24 47.54545457128904  24 47.54545457128904  L 24 29.954545475585917  Z M 47 1.9999999824218548  C 47.27272726367187 1.181818182617178  46.59090908691405 0.6363636289062242  45.90909091015624 0.6363636289062242  C 45.22727273339842 0.6363636289062242  25 0.6363636289062242  25 0.6363636289062242  L 25 16.727272748046857  C 28.590909060546892 17.27272730175781  30.636363652343732 19.45454545507812  31.181818206054686 23  L 47 23  L 47 1.9999999824218548  Z M 31.181818206054686 25  C 30.50000002929687 27.500000014648435  28.454545499023425 29.54545454492188  25 29.954545475585917  L 25 47.40909088671873  C 25 47.40909088671873  45.09090911035156 47.40909088671873  45.90909091015624 47.40909088671873  C 46.727272709960914 47.40909088671873  47.27272726367187 46.86363633300783  47.27272726367187 46.045454533203156  C 47.27272726367187 45.22727273339848  47.27272726367187 25  47.27272726367187 25  L 31.181818206054686 25  Z M 24 0.6363636289062242  C 24 0.6363636289062242  2.5454545361328087 0.6363636289062242  1.727272736328132 0.6363636289062242  C 0.9090909365234552 0.6363636289062242  0.3636363828125013 1.181818182617178  0.3636363828125013 1.9999999824218548  C 0.3636363828125013 2.8181817822265316  0.3636363828125013 23  0.3636363828125013 23  L 17.818181793945314 23  C 18.363636347656268 19.45454545507812  20.409090877929657 17.27272724023436  24 16.727272748046857  L 24 0.6363636289062242  Z " fill-rule="nonzero" fill="#a7a4a5" stroke="none" transform="matrix(1 0 0 1 352 394 )" />
  </g>
</svg>