<?xml version="1.0" encoding="utf-8"?>
<svg version="1.1" xmlns:xlink="http://www.w3.org/1999/xlink" width="11px" height="13px" xmlns="http://www.w3.org/2000/svg">
  <g transform="matrix(1 0 0 1 -16 -13 )">
    <path d="M 10.83068927212512 12.386363235021468  C 10.83068927212512 12.637380781997734  10.527669218020417 12.840879021176923  10.153846153846171 12.840908671551375  C 9.982969441510882 12.841064732588668  9.81837561653484 12.797657788825003  9.693326923076928 12.719459811881274  L 0.21640384615384534 6.810369095769143  C 0.07846085717212384 6.724363124869162  7.996373002801724E-05 6.603671838947414  7.996373002801724E-05 6.4772725157383  C 7.996373002801724E-05 6.350873192529169  0.07846085717212384 6.230181906607439  0.21640384615384534 6.144175935707476  L 9.693326923076928 0.2350852195953269  C 9.818537545333339 0.15701336868671337  9.983084381692905 0.11362456919607801  10.153951923076914 0.11362456919607801  C 10.527815912902703 0.11362456919607801  10.8308925591172 0.3171367733343226  10.8308925591172 0.5681817996261694  C 10.8308925591172 0.694579984736506  10.752515091959136 0.8152705956406421  10.614576923076935 0.9012783796569944  L 1.6711538461538353 6.4772725157383  L 10.6143653846154 12.053266651819607  C 10.752308376679387 12.139272622872888  10.83068927212512 12.259963910191349  10.83068927212512 12.386363235021468  Z " fill-rule="nonzero" fill="#707070" stroke="none" transform="matrix(1 0 0 1 16 13 )" />
  </g>
</svg>