<?xml version="1.0" encoding="utf-8"?>
<svg version="1.1" xmlns:xlink="http://www.w3.org/1999/xlink" width="29px" height="31px" xmlns="http://www.w3.org/2000/svg">
  <g transform="matrix(1 0 0 1 -140 -602 )">
    <path d="M 2.230769230769231 23.803571428571427  L 2.230769230769231 28.78571428571429  L 7.25 28.78571428571429  L 7.25 23.803571428571427  L 2.230769230769231 23.803571428571427  Z M 8.365384615384615 23.803571428571427  L 8.365384615384615 28.78571428571429  L 13.942307692307693 28.78571428571429  L 13.942307692307693 23.803571428571427  L 8.365384615384615 23.803571428571427  Z M 2.230769230769231 17.16071428571429  L 2.230769230769231 22.696428571428573  L 7.25 22.696428571428573  L 7.25 17.16071428571429  L 2.230769230769231 17.16071428571429  Z M 8.365384615384615 17.16071428571429  L 8.365384615384615 22.696428571428573  L 13.942307692307693 22.696428571428573  L 13.942307692307693 17.16071428571429  L 8.365384615384615 17.16071428571429  Z M 2.230769230769231 11.07142857142857  L 2.230769230769231 16.053571428571427  L 7.25 16.053571428571427  L 7.25 11.07142857142857  L 2.230769230769231 11.07142857142857  Z M 15.057692307692308 23.803571428571427  L 15.057692307692308 28.78571428571429  L 20.634615384615387 28.78571428571429  L 20.634615384615387 23.803571428571427  L 15.057692307692308 23.803571428571427  Z M 8.365384615384615 11.07142857142857  L 8.365384615384615 16.053571428571427  L 13.942307692307693 16.053571428571427  L 13.942307692307693 11.07142857142857  L 8.365384615384615 11.07142857142857  Z M 21.75 23.803571428571427  L 21.75 28.78571428571429  L 26.76923076923077 28.78571428571429  L 26.76923076923077 23.803571428571427  L 21.75 23.803571428571427  Z M 15.057692307692308 17.16071428571429  L 15.057692307692308 22.696428571428573  L 20.634615384615387 22.696428571428573  L 20.634615384615387 17.16071428571429  L 15.057692307692308 17.16071428571429  Z M 8.757512019230768 8.139229910714286  C 8.867888621794872 8.029668898809522  8.923076923076923 7.899925595238092  8.923076923076923 7.75  L 8.923076923076923 2.7678571428571432  C 8.923076923076923 2.617931547619048  8.867888621794872 2.4881882440476177  8.757512019230768 2.3786272321428568  C 8.647135416666668 2.2690662202380922  8.516426282051283 2.2142857142857135  8.365384615384615 2.2142857142857135  L 7.25 2.2142857142857135  C 7.098958333333334 2.2142857142857135  6.968249198717949 2.2690662202380922  6.857872596153847 2.3786272321428568  C 6.747495993589743 2.4881882440476177  6.6923076923076925 2.617931547619048  6.6923076923076925 2.7678571428571432  L 6.6923076923076925 7.75  C 6.6923076923076925 7.899925595238092  6.747495993589743 8.029668898809522  6.857872596153847 8.139229910714286  C 6.968249198717949 8.248790922619047  7.098958333333334 8.30357142857143  7.25 8.30357142857143  L 8.365384615384615 8.30357142857143  C 8.516426282051283 8.30357142857143  8.647135416666668 8.248790922619047  8.757512019230768 8.139229910714286  Z M 21.75 17.16071428571429  L 21.75 22.696428571428573  L 26.76923076923077 22.696428571428573  L 26.76923076923077 17.16071428571429  L 21.75 17.16071428571429  Z M 15.057692307692308 11.07142857142857  L 15.057692307692308 16.053571428571427  L 20.634615384615387 16.053571428571427  L 20.634615384615387 11.07142857142857  L 15.057692307692308 11.07142857142857  Z M 21.75 11.07142857142857  L 21.75 16.053571428571427  L 26.76923076923077 16.053571428571427  L 26.76923076923077 11.07142857142857  L 21.75 11.07142857142857  Z M 22.142127403846153 8.139229910714286  C 22.25250400641026 8.029668898809522  22.30769230769231 7.899925595238092  22.30769230769231 7.75  L 22.30769230769231 2.7678571428571432  C 22.30769230769231 2.617931547619048  22.25250400641026 2.4881882440476177  22.142127403846153 2.3786272321428568  C 22.031750801282055 2.2690662202380922  21.901041666666668 2.2142857142857135  21.75 2.2142857142857135  L 20.634615384615387 2.2142857142857135  C 20.483573717948723 2.2142857142857135  20.352864583333336 2.2690662202380922  20.24248798076923 2.3786272321428568  C 20.13211137820513 2.4881882440476177  20.076923076923077 2.617931547619048  20.076923076923077 2.7678571428571432  L 20.076923076923077 7.75  C 20.076923076923077 7.899925595238092  20.13211137820513 8.029668898809522  20.24248798076923 8.139229910714286  C 20.352864583333336 8.248790922619047  20.483573717948723 8.30357142857143  20.634615384615387 8.30357142857143  L 21.75 8.30357142857143  C 21.901041666666668 8.30357142857143  22.031750801282055 8.248790922619047  22.142127403846153 8.139229910714286  Z M 28.337740384615387 5.0859375  C 28.779246794871796 5.5241815476190474  29 6.043154761904761  29 6.642857142857143  L 29 28.78571428571429  C 29 29.385416666666668  28.779246794871796 29.904389880952383  28.337740384615387 30.34263392857143  C 27.896233974358978 30.780877976190474  27.373397435897438 31  26.76923076923077 31  L 2.230769230769231 31  C 1.6266025641025643 31  1.1037660256410258 30.780877976190474  0.6622596153846153 30.34263392857143  C 0.22075320512820512 29.904389880952383  0 29.385416666666668  0 28.78571428571429  L 0 6.642857142857143  C 0 6.043154761904761  0.22075320512820512 5.5241815476190474  0.6622596153846153 5.0859375  C 1.1037660256410258 4.647693452380949  1.6266025641025643 4.42857142857143  2.230769230769231 4.42857142857143  L 4.461538461538462 4.42857142857143  L 4.461538461538462 2.7678571428571432  C 4.461538461538462 2.00669642857143  4.73457532051282 1.3550967261904745  5.280649038461538 0.8130580357142867  C 5.826722756410257 0.27101934523809557  6.4831730769230775 0  7.25 0  L 8.365384615384615 0  C 9.132211538461538 0  9.788661858974361 0.27101934523809557  10.334735576923077 0.8130580357142867  C 10.880809294871796 1.3550967261904745  11.153846153846155 2.00669642857143  11.153846153846155 2.7678571428571432  L 11.153846153846155 4.42857142857143  L 17.846153846153847 4.42857142857143  L 17.846153846153847 2.7678571428571432  C 17.846153846153847 2.00669642857143  18.119190705128204 1.3550967261904745  18.665264423076923 0.8130580357142867  C 19.211338141025646 0.27101934523809557  19.867788461538463 0  20.634615384615387 0  L 21.75 0  C 22.516826923076923 0  23.173277243589745 0.27101934523809557  23.719350961538463 0.8130580357142867  C 24.265424679487182 1.3550967261904745  24.538461538461537 2.00669642857143  24.538461538461537 2.7678571428571432  L 24.538461538461537 4.42857142857143  L 26.76923076923077 4.42857142857143  C 27.373397435897438 4.42857142857143  27.896233974358978 4.647693452380949  28.337740384615387 5.0859375  Z " fill-rule="nonzero" fill="#e3a1a1" stroke="none" transform="matrix(1 0 0 1 140 602 )" />
  </g>
</svg>