<?xml version="1.0" encoding="utf-8"?>
<svg version="1.1" xmlns:xlink="http://www.w3.org/1999/xlink" width="24px" height="24px" viewBox="346 666  24 24" xmlns="http://www.w3.org/2000/svg">
  <path d="M 347.5 674  A 6.5 6.5 0 0 1 354 667.5 L 362 667.5  A 6.5 6.5 0 0 1 368.5 674 L 368.5 682  A 6.5 6.5 0 0 1 362 688.5 L 354 688.5  A 6.5 6.5 0 0 1 347.5 682 L 347.5 674  Z " fill-rule="nonzero" fill="#f0f0f0" stroke="none" />
  <path d="M 347 674  A 7 7 0 0 1 354 667 L 362 667  A 7 7 0 0 1 369 674 L 369 682  A 7 7 0 0 1 362 689 L 354 689  A 7 7 0 0 1 347 682 L 347 674  Z " stroke-width="2" stroke="#e3a1a1" fill="none" />
  <path d="M 351.14285714285717 678  L 356.2857142857143 683.1428571428572  L 364.85714285714283 671.1428571428571  " stroke-width="5.142857142857142" stroke="#e3a1a1" fill="none" />
</svg>