<?xml version="1.0" encoding="utf-8"?>
<svg version="1.1" xmlns:xlink="http://www.w3.org/1999/xlink" width="24px" height="24px" viewBox="239 666  24 24" xmlns="http://www.w3.org/2000/svg">
  <path d="M 240.5 674  A 6.5 6.5 0 0 1 247 667.5 L 255 667.5  A 6.5 6.5 0 0 1 261.5 674 L 261.5 682  A 6.5 6.5 0 0 1 255 688.5 L 247 688.5  A 6.5 6.5 0 0 1 240.5 682 L 240.5 674  Z " fill-rule="nonzero" fill="#fef4f5" stroke="none" />
  <path d="M 240 674  A 7 7 0 0 1 247 667 L 255 667  A 7 7 0 0 1 262 674 L 262 682  A 7 7 0 0 1 255 689 L 247 689  A 7 7 0 0 1 240 682 L 240 674  Z " stroke-width="2" stroke="#e3a1a1" fill="none" />
  <path d="M 244.14285714285714 678  L 249.28571428571428 683.1428571428572  L 257.85714285714283 671.1428571428571  " stroke-width="5.142857142857142" stroke="#e3a1a1" fill="none" />
</svg>