<?xml version="1.0" encoding="utf-8"?>
<svg version="1.1" xmlns:xlink="http://www.w3.org/1999/xlink" width="24px" height="24px" viewBox="132 666  24 24" xmlns="http://www.w3.org/2000/svg">
  <path d="M 133.5 674  A 6.5 6.5 0 0 1 140 667.5 L 148 667.5  A 6.5 6.5 0 0 1 154.5 674 L 154.5 682  A 6.5 6.5 0 0 1 148 688.5 L 140 688.5  A 6.5 6.5 0 0 1 133.5 682 L 133.5 674  Z " fill-rule="nonzero" fill="#f0f0f0" stroke="none" />
  <path d="M 133 674  A 7 7 0 0 1 140 667 L 148 667  A 7 7 0 0 1 155 674 L 155 682  A 7 7 0 0 1 148 689 L 140 689  A 7 7 0 0 1 133 682 L 133 674  Z " stroke-width="2" stroke="#e3a1a1" fill="none" />
  <path d="M 137.14285714285714 678  L 142.28571428571428 683.1428571428572  L 150.85714285714286 671.1428571428571  " stroke-width="5.142857142857142" stroke="#e3a1a1" fill="none" />
</svg>