<?xml version="1.0" encoding="utf-8"?>
<svg version="1.1" xmlns:xlink="http://www.w3.org/1999/xlink" width="18px" height="33px" xmlns="http://www.w3.org/2000/svg">
  <g transform="matrix(1 0 0 1 -785 -62 )">
    <path d="M 17.722946081659288 31.442306673516036  C 17.722946081659288 32.07950506199425  17.227095084033408 32.59607751529526  16.61538461538464 32.596152781630416  C 16.335768177017805 32.59654893657124  16.066432827057014 32.48636207932501  15.8618076923077 32.28785952246785  L 0.3541153846153833 17.287860012337056  C 0.12839049355438448 17.06953716312941  0.00013084974004584637 16.76316697578959  0.00013084974004584637 16.442307155335687  C 0.00013084974004584637 16.121447334881736  0.12839049355438448 15.81507714754196  0.3541153846153833 15.59675429833436  L 15.8618076923077 0.5967547882035222  C 16.066697801454552 0.39857239743550316  16.335956260952024 0.2884315987285057  16.615557692307675 0.2884315987285057  C 17.227335130204423 0.2884315987285057  17.72327873310087 0.8050395015409728  17.72327873310087 1.4423076452048917  C 17.72327873310087 1.7631645766388226  17.595024695933134 2.0695330504723994  17.369307692307714 2.287860502206217  L 2.734615384615367 16.442307155335687  L 17.368961538461562 30.596753808465156  C 17.59468643456627 30.815076658061944  17.722946081659288 31.12144684894727  17.722946081659288 31.442306673516036  Z " fill-rule="nonzero" fill="#ffffff" stroke="none" transform="matrix(1 0 0 1 785 62 )" />
  </g>
</svg>