<?xml version="1.0" encoding="utf-8"?>
<svg version="1.1" xmlns:xlink="http://www.w3.org/1999/xlink" width="47px" height="54px" xmlns="http://www.w3.org/2000/svg">
  <g transform="matrix(1 0 0 1 -73 -1245 )">
    <path d="M 46.822526017761234 43.07999997656251  C 46.81640625000001 41.591999953125004  46.302343750000006 40.25399997656251  45.39049476776123 39.0720000234375  C 45.11510414276123 38.58000004687499  44.82135414276123 38.094000046875  44.50924476776123 37.589999976562495  C 43.00377601776123 35.147999953124994  41.45546875 32.621999976562506  41.45546875 28.53  L 41.45546875 20.897999999999996  C 41.45546875 10.823999976562499  35.97213539276123 4.949999999999999  25.954036482238777 4.14  L 25.954036482238777 2.4660000000000006  C 25.954036482238777 1.1460000234374992  24.852473982238774 0.06600002343750035  23.506119767761238 0.06600002343750035  C 22.1597655532837 0.06600002343750035  21.05820312500001 1.1460000234375016  21.05820312500001 2.4660000000000006  L 21.05820312500001 4.14  C 11.03398437500001 4.944000023437498  5.556770857238777 10.817999999999998  5.556770857238777 20.897999999999996  L 5.556770857238777 28.524000023437498  C 5.556770857238777 32.76  3.653515625000006 35.874  2.1235677322387767 38.376  L 1.9522135177612365 38.664  C 0.832291642761235 39.9479999765625  0.18971351776123768 41.4239999765625  0.18971351776123768 43.0799999765625  C 0.18971351776123768 50.2079999765625  11.921354142761238 53.93399997656251  23.506119767761238 53.93399997656251  C 35.09088539276123 53.93399997656251  46.822526017761234 50.20799997656251  46.822526017761234 43.07999997656251  Z M 9.534635392761228 34.21200002343749  C 10.085416642761228 32.53800002343749  10.446484375 30.64200004687499  10.446484375 28.524000023437498  L 10.446484375 20.897999999999996  C 10.446484375 12.671999999999999  14.595703125 8.8439999765625  23.5 8.8439999765625  C 32.404296875 8.8439999765625  36.553515624999996 12.672000000000004  36.553515624999996 20.897999999999996  L 36.553515624999996 28.524000023437498  C 36.553515624999996 30.708  36.90846351776123 32.586000046875  37.42864585723877 34.217999999999996  C 35.99661460723877 33.75599997656249  34.460546875 33.36600002343749  32.85104164276123 33.065999999999995  C 32.71028641052246 33.03599997656249  32.563411410522455 33.012  32.41653648223877 32.9880000234375  C 32.07382812499999 32.928000046875  31.724999999999998 32.867999999999995  31.376171874999997 32.81399999999999  C 31.076302107238764 32.7659999765625  30.7703125 32.724  30.458203125 32.682000023437496  C 30.188932267761228 32.6460000234375  29.92578125 32.6100000234375  29.650390625 32.580000000000005  C 29.40559898223877 32.5499999765625  29.154687499999998 32.520000023437504  28.903776017761228 32.4959999765625  C 28.487630160522457 32.454  28.071484375 32.418000000000006  27.64921875 32.382  C 27.435026017761228 32.364000000000004  27.22083335723877 32.3519999765625  27.006640625 32.333999976562495  C 26.523177107238762 32.303999953125  26.04583335723877 32.273999999999994  25.562369767761226 32.256  C 25.43997391052245 32.250000023437494  25.323697892761224 32.250000023437494  25.20130210723876 32.24399997656249  C 24.63216148223876 32.225999976562505  24.063020857238765 32.213999953125  23.487760392761224 32.21400002343751  C 22.900260392761226 32.21400002343751  22.312760392761223 32.226000046875  21.731380232238763 32.24399997656249  C 21.63958335723877 32.24399997656249  21.553906249999997 32.249999953125  21.462109374999997 32.250000023437494  C 20.917447892761224 32.268000023437494  20.378906249999996 32.298000046875  19.834244767761227 32.333999976562495  C 19.724088517761228 32.339999953124995  19.613932267761225 32.351999976562496  19.503776017761226 32.3580000234375  C 18.952994767761226 32.39999999999999  18.402213517761226 32.448000023437494  17.85755210723877 32.507999999999996  C 17.820833357238765 32.51399997656249  17.78411460723877 32.51399997656249  17.747395857238764 32.52000002343749  C 14.816015624999999 32.83800004687499  12.013151089477535 33.402000023437495  9.534635392761228 34.21200002343749  Z M 41.92057289276122 43.07399999999999  C 41.92057289276122 45.486  34.57682289276122 49.134000023437494  23.5 49.1340000234375  C 12.423177107238772 49.1340000234375  5.079427107238768 45.492000046875  5.079427107238768 43.0799999765625  C 5.079427107238768 42.725999953125005  5.244661482238767 42.341999976562505  5.55065101776123 41.9459999765625  C 5.593489535522461 41.904  5.642447892761227 41.868  5.679166642761229 41.8199999765625  C 6.180989535522461 41.2439999765625  6.964322892761229 40.65599995312499  7.992447892761227 40.09800002343749  C 8.004687499999994 40.092000046875  8.023046874999995 40.0800000234375  8.041406249999994 40.073999976562504  C 8.200520857238763 39.989999953125  8.371874999999994 39.906  8.537109374999993 39.828000023437504  C 10.801432267761225 38.742000046875  14.093880232238764 37.788000046875005  18.145182267761225 37.3260000234375  L 18.145182267761225 37.584  C 18.145182267761225 40.224000023437505  20.34830726776123 42.3840000234375  23.041015624999996 42.3840000234375  L 23.95898437499999 42.3840000234375  C 26.651692732238754 42.3840000234375  28.85481773223876 40.224000023437505  28.85481773223876 37.584  L 28.85481773223876 37.3260000234375  C 33.47526046447753 37.85399999999999  37.11041671447752 39.018000023437494  39.356380232238756 40.29600002343749  C 40.32330733947753 40.8540000234375  41.04544273223877 41.448000023437494  41.49218749999999 42.03599997656249  C 41.52278648223876 42.071999976562495  41.559505232238756 42.102  41.59010414276122 42.1320000234375  C 41.81041664276121 42.461999999999996  41.92057289276122 42.7800000234375  41.92057289276122 43.07399999999999  Z " fill-rule="nonzero" fill="#333c4f" stroke="none" transform="matrix(1 0 0 1 73 1245 )" />
  </g>
</svg>