<?xml version="1.0" encoding="utf-8"?>
<svg version="1.1" xmlns:xlink="http://www.w3.org/1999/xlink" width="44px" height="24px" xmlns="http://www.w3.org/2000/svg">
  <g transform="matrix(1 0 0 1 -633 -1275 )">
    <path d="M 43.19355884308516 16.071724759615336  C 43.177925531914866 13.276532451923003  41.33319481382978 9.787680288461615  37.72711103723407 5.707932692307622  C 35.15282579787231 2.7945612980768146  32.620229388297844 0.6467848557692832  32.51600731382973 0.554296875000091  C 31.85940824468082 -0.0006310096152901679  30.8745096409574 0.07644230769233218  30.311710438829778 0.7187199519230489  C 29.748911236702156 1.3661358173076223  29.827077792553155 2.33725961538471  30.47846575797871 2.892187500000091  C 30.50452127659571 2.91274038461529  32.969373337766 5.00913461538471  35.39253656914889 7.758082932692332  C 38.3941323138298 11.159585336538385  40.05647440159578 14.119200721153902  40.072107712765956 16.092277644230762  C 40.08252992021278 17.551532451923094  39.70733045212762 18.64083533653843  38.915242686170245 19.426983173076906  C 37.529089095744666 20.80402644230776  35.173670212765956 20.91192908653852  34.48059341755322 21  L 9.540250997340422 21  C 8.852385305851044 20.91192908653852  6.491755319148979 20.80402644230776  5.1056017287234 19.426983173076906  C 4.31351396276591 18.64083533653843  3.938314494680867 17.551532451923094  3.9487367021276896 16.092277644230762  C 3.964370013297866 14.119200721153902  5.598404255319224 11.159585336538385  8.600000000000023 7.758082932692332  C 11.028374335106491 5.00913461538471  13.521534242021291 2.91274038461529  13.542378656914932 2.892187500000091  C 14.198977726063845 2.33725961538471  14.271933178191489 1.3661358173076223  13.709133976063868 0.7187199519230489  C 13.146334773936132 0.07130408653847553  12.16143617021271 -0.0006310096152901679  11.5048371010638 0.554296875000091  C 11.400615026595688 0.6467848557692832  8.868018617021221 2.794561298077042  6.293733377659578 5.707932692307622  C 2.6876496010638675 9.792818509615472  0.8429188829786654 13.276532451923003  0.8168633643616658 16.071724759615336  C 0.7960189494681346 18.363371394230853  1.489095744680867 20.223407451923094  2.8804604388298003 21.600450721153948  C 5.053490691489401 23.76364182692305  8.258319481382955 23.994861778846143  9.535039893617068 24  L 34.475382313829755 24  C 35.75210272606387 23.994861778846143  38.95693151595742 23.76364182692305  41.12996176861702 21.600450721153948  C 42.5161153590426 20.218269230769238  43.209192154255334 18.358233173076997  43.19355884308516 16.071724759615336  Z " fill-rule="nonzero" fill="#333c4f" stroke="none" transform="matrix(1 0 0 1 633 1275 )" />
  </g>
</svg>