<?xml version="1.0" encoding="utf-8"?>
<svg version="1.1" xmlns:xlink="http://www.w3.org/1999/xlink" width="577px" height="224px" viewBox="86 550  577 224" xmlns="http://www.w3.org/2000/svg">
  <defs>
    <filter x="86px" y="550px" width="577px" height="224px" filterUnits="userSpaceOnUse" id="filter302">
      <feOffset dx="0" dy="0" in="SourceAlpha" result="shadowOffsetInner" />
      <feGaussianBlur stdDeviation="5" in="shadowOffsetInner" result="shadowGaussian" />
      <feComposite in2="shadowGaussian" operator="atop" in="SourceAlpha" result="shadowComposite" />
      <feColorMatrix type="matrix" values="0 0 0 0 0.8823529411764706  0 0 0 0 0.9254901960784314  0 0 0 0 0.8627450980392157  0 0 0 1 0  " in="shadowComposite" />
    </filter>
    <g id="widget303">
      <path d="M 98.5 580  A 17.5 17.5 0 0 1 116 562.5 L 633 562.5  A 17.5 17.5 0 0 1 650.5 580 L 650.5 744  A 17.5 17.5 0 0 1 633 761.5 L 116 761.5  A 17.5 17.5 0 0 1 98.5 744 L 98.5 580  Z " fill-rule="nonzero" fill="#a1c8b4" stroke="none" fill-opacity="0" />
      <path d="M 97.5 580  A 18.5 18.5 0 0 1 116 561.5 L 633 561.5  A 18.5 18.5 0 0 1 651.5 580 L 651.5 744  A 18.5 18.5 0 0 1 633 762.5 L 116 762.5  A 18.5 18.5 0 0 1 97.5 744 L 97.5 580  Z " stroke-width="3" stroke="#6ab893" fill="none" />
    </g>
  </defs>
  <use xlink:href="#widget303" filter="url(#filter302)" />
  <use xlink:href="#widget303" />
</svg>