<?xml version="1.0" encoding="utf-8"?>
<svg version="1.1" xmlns:xlink="http://www.w3.org/1999/xlink" width="19px" height="15px" xmlns="http://www.w3.org/2000/svg">
  <g transform="matrix(1 0 0 1 -245 -115 )">
    <path d="M 18.849392709305036 8.1534375  C 19.05009581235445 7.740551054514096  19.05009581235445 7.259448945485905  18.849392709305036 6.8465625  C 16.81989022174285 2.713125  13.411233505324939 0  9.547269977262129 0  C 5.683306467661692 0  2.274649751243781 2.713125  0.24514726368159204 6.8465625  C 0.044119689013896526 7.259375364366392  0.0441196890138961 7.740624635633609  0.24514726368159204 8.1534375  C 2.274649751243781 12.286875  5.683306467661692 15  9.547269977262129 15  C 13.411233486862564 15  16.819890203280472 12.286875  18.849392709305036 8.1534375  Z M 9.547269924141723 9.999999993896484  C 8.155109364119644 9.999999993896484  7.026540245387058 8.880711871206104  7.026540245387058 7.499999999999998  C 7.026540245387058 6.119288128793895  8.155109364119644 5.000000006103515  9.547269924141723 5.000000006103515  C 10.9394304841638 5.000000006103515  12.067999602896384 6.119288128793895  12.067999602896384 7.499999999999998  C 12.067999602896384 8.880711871206104  10.939430484163797 9.999999993896484  9.547269924141723 9.999999993896484  Z " fill-rule="nonzero" fill="#369d6b" stroke="none" transform="matrix(1 0 0 1 245 115 )" />
  </g>
</svg>