<?xml version="1.0" encoding="utf-8"?>
<svg version="1.1" xmlns:xlink="http://www.w3.org/1999/xlink" width="14px" height="15px" xmlns="http://www.w3.org/2000/svg">
  <g transform="matrix(1 0 0 1 -305 -115 )">
    <path d="M 11.937369797363285 5.686755946568082  L 8.87432292236328 5.686755946568081  C 9.158333344726561 4.392113089425224  9.356666672363282 3.4557291608537946  9.4696875 2.8757440534319203  C 9.754062500000002 1.4155505894252234  9.015598952636719 0.05952380371093754  7.551979172363282 0.05952380371093754  C 6.232187499999999 0.05952380371093754  5.569375 0.7287946428571427  5.1785416723632824 2.0665922677176343  L 5.168515625000001 2.1056547677176343  C 4.93390625 3.1878720354352685  4.575156250000002 4.026785714285714  4.10028645263672 4.6270461251395085  C 3.6001311213459286 5.260867705338964  2.8513451126116305 5.637149612034658  2.054062500000001 5.655319946289063  L 1.679635422363282 5.6635044642857135  C 0.7867708276367188 5.683035714285715  0.07291667236328121 6.4330357142857135  0.07291667236328121 7.351748517717634  L 0.07291667236328121 12.894345232282365  C 0.07291667236328121 14.024367553710938  0.9634114697265627 14.94047617885045  2.062083327636718 14.940476196289062  L 9.112031250000001 14.940476196289062  C 10.56015625 14.940476196289062  11.852786452636721 14.00632441057478  12.344062500000001 12.605096732003352  L 13.808593750000004 8.427083339146208  C 14.181197922363284 7.36402530343192  13.645625000000003 6.19140625  12.612213547363284 5.808035714285715  C 12.39591050748093 5.727789549139581  12.167525070754447 5.686745184845954  11.937369797363285 5.686755946568082  Z " fill-rule="nonzero" fill="#369d6b" stroke="none" transform="matrix(1 0 0 1 305 115 )" />
  </g>
</svg>