<?xml version="1.0" encoding="utf-8"?>
<svg version="1.1" xmlns:xlink="http://www.w3.org/1999/xlink" width="56px" height="56px" xmlns="http://www.w3.org/2000/svg">
  <g transform="matrix(1 0 0 1 -346 -1104 )">
    <path d="M 29.199999999999996 50.27719300986842  C 28.427749343050703 49.96351957705766  27.57225065694928 49.96351957705766  26.8 50.27719300986842  L 14.194999999999999 55.4  C 13.812177157148028 55.555489649136405  13.405370937716219 55.635239629970165  12.995038024734043 55.635239629970165  C 11.154088844248983 55.635239629970165  9.661704665359048 54.06430891534917  9.661704665359048 52.12646767273332  C 9.661704665359048 52.06263873111519  9.663359272873498 51.998821673040524  9.666666640624998 51.93508774671052  L 10.399999999999997 37.735087746710526  C 10.444493142677947 36.86453262718416  10.179506487424227 36.00771953037112  9.656666640624998 35.33157894736842  L 1.1349999999999993 24.296491200657897  C 0.6513182192684127 23.67075265999645  0.38724422083387255 22.888687301047614  0.38724422083387255 22.081983542553196  C 0.38724422083387255 20.491671194257588  1.4033518083559018 19.100213860537107  2.8633333593749994 18.691228042763154  L 15.921666640625006 15.03508774671052  C 16.721485704718646 14.8112331440806  17.413592631320668 14.282186435971958  17.863333359375 13.550877220394735  L 25.201666640625 1.608771957236839  C 25.81596120160156 0.6097239612561942  26.86945134632042 0.006525227395086044  28 0.006525227395086044  C 29.130548653679583 0.006525227395086044  30.18403879839844 0.6097239612561942  30.798333359375 1.608771957236839  L 38.136666640624995 13.550877220394735  C 38.58640736867933 14.282186435971958  39.278514295281354 14.8112331440806  40.078333359374994 15.03508774671052  L 53.136666640625 18.69122804276316  C 54.59609948340706 19.100629175615747  55.61164170599745 20.49181014846852  55.61164170599745 22.08167123915592  C 55.61164170599745 22.887737023632475  55.34798454813435 23.669223755958463  54.864999999999995 24.29473684210526  L 46.343333359375 35.32982458881579  C 45.821091099574936 36.00621821556583  45.556706476528035 36.86300567831302  45.601666640625005 37.73333330592105  L 46.335000000000015 51.93508774671052  C 46.33833134618925 51.99905172955348  46.33999795636895 52.063099750071316  46.33999795636895 52.12715978368942  C 46.33999795636895 54.065001026305275  44.84761377747901 55.63593174092626  43.00666459699396 55.63593174092626  C 42.59571810144909 55.63593174092626  42.18831422895613 55.55594311087274  41.80499999999999 55.4  L 29.199999999999996 50.27719300986842  Z " fill-rule="nonzero" fill="#e9a9bd" stroke="none" transform="matrix(1 0 0 1 346 1104 )" />
  </g>
</svg>