<?xml version="1.0" encoding="utf-8"?>
<svg version="1.1" xmlns:xlink="http://www.w3.org/1999/xlink" width="56px" height="59px" xmlns="http://www.w3.org/2000/svg">
  <g transform="matrix(1 0 0 1 -416 -1068 )">
    <path d="M 47.74947918945314 23  L 35.49729168945312 23  C 36.633333378906244 17.27564481840588  37.42666668945313 13.592534699358259  37.87875 11.311259943498886  C 39.01625000000001 5.567832318405879  36.062395810546874 0.234126961263021  30.20791668945313 0.234126961263021  C 24.928749999999997 0.234126961263021  22.2775 2.8665922619047612  20.71416668945313 8.128596253022694  L 20.674062500000005 8.282242086356028  C 19.735625 12.538963339378723  18.300625000000007 15.838690476190475  16.40114581054688 18.199714758882067  C 14.400524485383714 20.692746307666592  11.405380450446522 22.172788474002985  8.216250000000004 22.244258455403646  L 6.718541689453128 22.27645089285714  C 3.147083310546875 22.353273809523813  0.29166668945312485 25.30327380952381  1 28.916877503022693  L 1 50.71775791364397  C 0.29166668945312485 55.16251237792969  3.8536458789062507 58.7658729701451  8.248333310546872 58  L 36.448125000000005 58  C 42.240625 58.76587303873698  47.411145810546884 55.091542681594134  49.376250000000006 49.580047145879846  L 55.234375000000014 33.14652780064175  C 56.724791689453134 28.965166193498888  54.58250000000001 24.352864583333336  50.44885418945314 22.84494047619048  C 49.58364202992372 22.52930555994902  48.67010028301779 22.367864393727416  47.74947918945314 23  Z " fill-rule="nonzero" fill="#e1e1e1" stroke="none" transform="matrix(1 0 0 1 416 1068 )" />
  </g>
</svg>