<?xml version="1.0" encoding="utf-8"?>
<svg version="1.1" xmlns:xlink="http://www.w3.org/1999/xlink" width="760px" height="1070px" xmlns="http://www.w3.org/2000/svg">
  <defs>
    <filter x="0px" y="166px" width="760px" height="1070px" filterUnits="userSpaceOnUse" id="filter291">
      <feOffset dx="5" dy="-5" in="SourceAlpha" result="shadowOffsetInner" />
      <feGaussianBlur stdDeviation="2.5" in="shadowOffsetInner" result="shadowGaussian" />
      <feComposite in2="shadowGaussian" operator="atop" in="SourceAlpha" result="shadowComposite" />
      <feColorMatrix type="matrix" values="0 0 0 0 0  0 0 0 0 0  0 0 0 0 0  0 0 0 0.4980392156862745 0  " in="shadowComposite" />
    </filter>
    <g id="widget292">
      <path d="M 0 1060  L 0 64  C 0 64  112.29739898003287 63.9999999999998  224.00000000000003 64.00000000000003  C 240 64.00000000000003  240 48.00000000000003  240 48.00000000000003  C 240 48.00000000000003  239.9999999999999 43.72699750169403  240 16.00000000000003  C 240 2.9293680297398055  256 0  256 0  C 256 0  283.71141019283004 0  368 0  C 384 0  384 16.00000000000003  384 16.00000000000003  C 384 16.00000000000003  384 48  384 48  C 384 48  384 64  400 64  C 416 64  750 64  750 64  L 750 1060  L 0 1060  Z " fill-rule="nonzero" fill="#f0f0f0" stroke="none" transform="matrix(1 0 0 1 0 176 )" />
    </g>
  </defs>
  <g transform="matrix(1 0 0 1 0 -166 )">
    <use xlink:href="#widget292" filter="url(#filter291)" />
    <use xlink:href="#widget292" />
  </g>
</svg>