<?xml version="1.0" encoding="utf-8"?>
<svg version="1.1" xmlns:xlink="http://www.w3.org/1999/xlink" width="17px" height="17px" xmlns="http://www.w3.org/2000/svg">
  <g transform="matrix(1 0 0 1 -458 -1268 )">
    <path d="M 13.378566423978306 13.225976536473235  L 3.3935727587760574 15.947487756083286  C 2.644821751353737 16.151298565403565  1.8442632861834833 15.938488784887303  1.2955525622534096 15.389778060957223  C 0.7468418383233342 14.841067337027152  0.5340320578070639 14.040508871856897  0.7378428671273514 13.29175786443458  L 3.45782428841272 3.3052344009076444  C 3.5561147753402667 2.9384060029403325  3.749233737034874 2.603913278922004  4.017770599844916 2.335376416111963  C 4.862654884883721 1.4904921310731605  6.232482964170982 1.4904921310731605  7.077367249209784 2.335376416111963  C 7.078374735888583 2.336383902790762  7.079381227062946 2.337392384481243  7.080386721260725 2.338401859708349  L 14.345398965177607 9.603414103625227  C 14.346408440404247 9.604419597822556  14.347416922095647 9.605426088997824  14.348424408773989 9.606433575676167  C 15.19330869381279 10.451317860714969  15.19330869381279 11.821145940002234  14.348424408773989 12.666030225041036  C 14.079887545963947 12.934567087851077  13.745394821945615 13.127686049545684  13.378566423978306 13.225976536473235  Z " fill-rule="nonzero" fill="#333c4f" stroke="none" transform="matrix(1 0 0 1 458 1268 )" />
  </g>
</svg>