<?xml version="1.0" encoding="utf-8"?>
<svg version="1.1" xmlns:xlink="http://www.w3.org/1999/xlink" width="760px" height="1086px" xmlns="http://www.w3.org/2000/svg">
  <defs>
    <linearGradient gradientUnits="userSpaceOnUse" x1="375.3846153846153" y1="-160" x2="375.3846153846153" y2="3575" id="LinearGradient8911">
      <stop id="Stop8912" stop-color="#ffffff" offset="0" />
      <stop id="Stop8913" stop-color="#8bc7a8" offset="1" />
    </linearGradient>
    <filter x="0px" y="150px" width="760px" height="1086px" filterUnits="userSpaceOnUse" id="filter8914">
      <feOffset dx="5" dy="-5" in="SourceAlpha" result="shadowOffsetInner" />
      <feGaussianBlur stdDeviation="2.5" in="shadowOffsetInner" result="shadowGaussian" />
      <feComposite in2="shadowGaussian" operator="atop" in="SourceAlpha" result="shadowComposite" />
      <feColorMatrix type="matrix" values="0 0 0 0 0  0 0 0 0 0  0 0 0 0 0  0 0 0 0.4980392156862745 0  " in="shadowComposite" />
    </filter>
    <g id="widget8915">
      <path d="M 0 1076  L 0 80.00000000000003  C 0 80.00000000000003  112.29739898003287 79.99999999999972  224.00000000000003 80.00000000000003  C 239.99999999999997 80.00000000000003  240 64.00000000000003  240 64.00000000000003  C 240 64.00000000000003  239.9999999999999 49.94112549695424  240 16.00000000000003  C 240 0  256 0  256 0  C 256 0  283.71141019283004 0  368 0  C 384 0  384 14.000000000000028  384 14.000000000000028  L 384 64  C 384 64  384 80  400 80  C 416 80  750 80.00000000000003  750 80.00000000000003  L 750 1076  L 0 1076  Z " fill-rule="nonzero" fill="url(#LinearGradient8911)" stroke="none" transform="matrix(1 0 0 1 0 160 )" />
    </g>
  </defs>
  <g transform="matrix(1 0 0 1 0 -150 )">
    <use xlink:href="#widget8915" filter="url(#filter8914)" />
    <use xlink:href="#widget8915" />
  </g>
</svg>