<?xml version="1.0" encoding="utf-8"?>
<svg version="1.1" xmlns:xlink="http://www.w3.org/1999/xlink" width="22px" height="27px" xmlns="http://www.w3.org/2000/svg">
  <g transform="matrix(1 0 0 1 -593 -378 )">
    <path d="M 3.2925394593874047 11.802956915881854  C 3.2925394593874047 7.163352059476673  5.642647203714042 3.3062620110632555  9.665468078218003 2.5887973550808003  L 9.665468078218003 1.5690409046179372  C 9.665468078218003 0.7654804779403896  10.28505836042907 0.10732621975331783  11.045546728360618 0.1073262201145123  C 11.804228706752236 0.1073262201145123  12.425625378503222 0.7654804783015847  12.425625378162206 1.5690409049791316  L 12.425625378162206 2.5887973554419963  C 16.444833474950393 3.3062620110632497  18.778683765594003 7.161438843348673  18.778683741722467 11.801043672664276  C 18.778683717850928 16.440648501979883  18.778683741722467 17.425966660129497  18.778683741722467 17.425966660129497  C 18.778683741722467 17.425966660129497  21.134210678199413 19.16510100907  21.596645397476443 19.982054109375007  C 22.059080116753474 20.79900720968001  22.071724816251255 21.42654963453821  21.62735393951512 22.253068923480313  C 21.184789451977938 23.083414698135172  20.382754207155266 23.186729602164494  19.48498055713665 23.186729628531683  C 19.48498055713665 23.186729628531683  3.503886574838794 23.186729628531683  2.606112900266618 23.186729628531683  C 1.7083392256944423 23.186729628531683  0.9063039808717812 23.08341472341878  0.4619331283482167 22.256895409193074  C 0.019368640811012677 21.430376120250973  0.032013340308780294 20.799007210402408  0.4926416952814945 19.985880595087764  C 0.4926416952814945 19.985880595087764  0.5251566349309641 19.93486087299337  0.5414141047557042 19.909351011946175  C 1.4584558896329376 19.082193975746474  3.2925394593874047 17.427879903347073  3.2925394593874047 17.427879903347073  C 3.2925394593874047 17.427879903347073  3.2925394593874047 16.442561772287036  3.2925394593874047 11.802956915881854  Z M 8.74421139350818 23.986463569857662  L 13.343269285156243 23.986463569857662  C 13.343269285156243 25.331470676343113  12.313629446645574 26.892673779885488  11.04374033950273 26.892673779885488  C 9.773851232359863 26.892673779885488  8.744211394190225 25.33147067598191  8.74421139350818 23.986463569857662  Z " fill-rule="nonzero" fill="#7f7f7f" stroke="none" fill-opacity="0.2980392156862745" transform="matrix(1 0 0 1 593 378 )" />
  </g>
</svg>