<?xml version="1.0" encoding="utf-8"?>
<svg version="1.1" xmlns:xlink="http://www.w3.org/1999/xlink" width="54px" height="54px" xmlns="http://www.w3.org/2000/svg">
  <g transform="matrix(1 0 0 1 -254 -1245 )">
    <path d="M 19.40625 9.622641531544787  C 20.671875 9.90566042158025  21.796875021972653 8.915094339622556  21.796875021972653 7.641509433962255  C 21.796875021972653 6.650943418337192  21.09375 5.801886814563659  20.109375021972653 5.6603773363797245  L 2.109375 3.113207525058897  C 1.828124978027347 3.113207525058897  1.546875021972653 3.113207525058897  1.406249978027347 3.254717003242831  C 1.124999956054694 3.3962264150943615  0.9843749780273471 3.5377358932782954  0.84375 3.679245305129825  C 0.703125021972653 3.8207547169811273  0.562499978027347 4.103773607016592  0.421875 4.386792430719424  C 0.28125002197265303 4.528301842570727  0.28125002197265303 4.952830210790125  0.28125002197265303 5.377358512676892  C 0.28125002197265303 5.801886814563659  0.28125002197265303 49.245283018867894  0.28125002197265303 49.245283018867894  C 0.28125002197265303 49.52830190890336  0.28125002197265303 49.81132073260619  0.421875 50.09433962264143  C 0.562499978027347 50.37735851267689  0.703125021972653 50.518867924528195  0.84375 50.80188681456366  C 0.9843749780273471 50.94339622641519  1.265625 51.08490570459912  1.406249978027347 51.226415116450426  L 2.109375 51.226415116450426  L 19.968749978027347 48.679245305129825  C 20.953124956054694 48.537735893278295  21.656249978027347 47.68867928950476  21.656249978027347 46.69811320754707  C 21.656249978027347 45.42452830188677  20.671875 44.57547169811323  19.40625 44.716981109964536  L 4 46.556603795695764  L 4 7.7830188458137854  L 19.40625 9.622641531544787  Z M 49.07812497802735 23.91509431751183  C 48.9375 24.339622619398597  48.65624997802735 24.339622619398597  48.515625 24.339622619398597  C 48.37500002197265 24.339622619398597  48.09375 24.339622619398597  47.95312502197265 24.198113207547067  L 47.53125002197265 23.7735849056603  C 47.390625043945306 23.632075493808998  47.25 23.349056603773533  47.25 23.066037713738297  C 47.10937502197265 22.783018823702832  47.10937502197265 22.5  47.10937502197265 22.216981109964536  L 47.10937502197265 18.113207569280576  C 47.10937502197265 17.83018867924534  47.10937502197265 17.547169855542506  47.25 17.264150965507042  C 47.39062497802735 16.981132075471805  47.39062497802735 16.839622663620275  47.53125002197265 16.69811318543634  L 47.95312502197265 16.273584883549574  C 48.09375 16.132075471698045  48.37500002197265 16.132075471698045  48.515625 16.132075471698045  C 48.65624997802735 16.132075471698045  48.9375 16.273584883549574  49.07812497802735 16.273584883549574  L 49.49999997802735 16.69811318543634  C 49.640624956054694 16.839622597287644  49.78125 17.122641487323108  49.78125 17.405660377358572  C 49.92187497802735 17.68867926739381  49.92187497802735 17.97169809109664  49.92187497802735 18.254716981132106  L 49.92187497802735 22.216981109964536  C 49.92187497802735 22.5  49.92187497802735 22.783018823702832  49.78125 22.924528301886767  C 49.64062502197265 23.20754719192223  49.64062502197265 23.349056603773533  49.49999997802735 23.490566015625063  L 49.07812497802735 23.91509431751183  Z M 51.46875 4.103773607016592  C 50.90625002197265 3.8207547169811273  50.48437502197265 3.5377358932782954  49.92187497802735 3.537735826945664  L 29.53125 0.2830188900354642  C 28.828124978027347 0.14150947818393433  28.265625 0.2830188900354642  27.703125021972653 0.4245283018867667  C 27.140625043945306 0.7075471919222309  26.578125 0.9905660156250634  26.15625 1.41509431751183  C 25.734375 1.8396226193985967  25.3125 2.5471698113208276  25.031249978027347 3.113207525058897  C 24.749999956054694 3.8207547169811273  24.609374978027347 4.528301842570727  24.609374978027347 5.377358512676892  C 24.609374978027347 6.226415182783057  24.609374978027347 48.39622641509436  24.609374978027347 48.39622641509436  C 24.609374978027347 49.245283018867894  24.749999956054694 49.952830210790125  25.031249978027347 50.660377336379725  C 25.3125 51.367924528301955  25.593749956054694 51.933962242040025  26.15625 52.50000002211095  C 26.578125 52.92452832399772  27.140624978027347 53.34905662588449  27.703125021972653 53.49056603773579  C 28.265625 53.77358492777125  28.968750021972653 53.77358492777125  29.53125 53.63207544958732  L 49.92187497802735 50.518867924528195  C 50.484374956054694 50.37735851267689  50.906249956054694 50.23584903449296  51.46875 49.81132073260619  C 51.890625 49.52830184257073  52.3125 48.96226412883266  52.734375 48.537735826945664  C 53.01562502197265 47.971698113207594  53.29687497802735 47.40566033313689  53.578125 46.69811320754707  C 53.71874997802735 45.99056601562506  53.85937502197265 45.283018890035464  53.85937502197265 44.57547169811323  C 53.85937502197265 43.867924506191  53.85937502197265 9.339622641509322  53.85937502197265 9.339622641509322  C 53.85937502197265 8.632075449587319  53.718750043945306 7.924528323997719  53.578125 7.21698113207549  C 53.437499956054694 6.509433940153258  53.15625 5.943396226415189  52.734375 5.377358512676892  L 51.46875 4.103773607016592  Z " fill-rule="nonzero" fill="#333c4f" stroke="none" transform="matrix(1 0 0 1 254 1245 )" />
  </g>
</svg>