<?xml version="1.0" encoding="utf-8"?>
<svg version="1.1" xmlns:xlink="http://www.w3.org/1999/xlink" width="33px" height="33px" xmlns="http://www.w3.org/2000/svg">
  <g transform="matrix(1 0 0 1 -466 -1243 )">
    <path d="M 0.9817873303167569 24.41262726244344  L 0.9796875000000139 24.412627262443436  L 22.416855203619917 2.9691600678733026  C 23.20449320108824 2.1812029138990248  24.27295114780497 1.738506354747458  25.387065186651597 1.738506354747458  C 26.501179225498227 1.738506354747458  27.569637172214957 2.181202913899027  28.357275169683263 2.9691600678733026  L 30.009841628959286 4.621726527149321  C 30.797798782933565 5.409364524617638  31.24049534208514 6.477822471334368  31.24049534208514 7.591936510180995  C 31.24049534208514 8.706050549027621  30.797798782933565 9.774508495744353  30.009841628959286 10.56214649321267  L 8.568474264705896 31.99931419683258  C 7.748731846981377 32.817651550599344  6.421156444873855 32.817651550599344  5.6014140271493345 31.99931419683258  L 0.9817873303167569 27.3796875  C 0.1634499765499864 26.55994508227548  0.1634499765499864 25.23236968016796  0.9817873303167569 24.41262726244344  Z " fill-rule="nonzero" fill="#333c4f" stroke="none" transform="matrix(1 0 0 1 466 1243 )" />
  </g>
</svg>