<?xml version="1.0" encoding="utf-8"?>
<svg version="1.1" xmlns:xlink="http://www.w3.org/1999/xlink" width="51px" height="51px" xmlns="http://www.w3.org/2000/svg">
  <g transform="matrix(1 0 0 1 -443 -1248 )">
    <path d="M 0 19.101882352941402  C 0.021176470588216034 8.739720952586595  8.421368011409982 0.3395294117649428  18.783529411764675 0.3395294117649428  C 29.14569081211937 0.3395294117649428  31.912941176470607 0.3395294117649428  31.912941176470607 0.3395294117649428  C 31.9466757904205 0.33803286074521566  31.88129103054104 0.3395294117649428  31.91505882352942 0.3395294117649428  C 33.17699698955454 0.3395294117649428  34.299148403959464 1.3602873198683483  34.299148403959464 2.622225485893523  C 34.299148403959464 2.6519234944212258  34.2985694141949 2.6816186806972837  34.297411764705885 2.711294117647185  C 34.298134240022875 2.7352911223476895  34.298495539044154 2.7592976409382572  34.298495539044154 2.7833055189198603  C 34.298495539044154 4.102006624351134  33.23163599889284 5.1721645715495015  31.912941176470607 5.17623529411776  C 30.59424635404838 5.180306016686018  18.783529411764732 5.17623529411776  18.783529411764732 5.17623529411776  C 11.252302012726432 5.378949737368657  5.2664589915031 11.568085540444827  5.315294117647056 19.101882352941402  C 5.364129243791012 26.635679165437978  5.315294117647056 32.23129411764717  5.315294117647056 32.23129411764717  C 5.343116686358826 39.724436700139904  11.29441308436418 45.85258766091624  18.783529411764675 46  L 31.912941176470607 46  C 34.5769411764706 46.099764705882535  45.317647058823525 42.76870588235306  45.317647058823525 32.23129411764717  C 45.317647058823525 32.23129411764717  45.317647058823525 23.47835294117658  45.317647058823525 19.101882352941402  C 45.317647058823525 17.62182419807141  46.51747125689462 16.422000000000253  47.99752941176473 16.422000000000253  C 49.47758756663478 16.422000000000253  50.67741176470588 17.62182419807141  50.67741176470588 19.101882352941402  C 50.67741176470588 19.101882352941402  50.67741176470588 32.23129411764717  50.67741176470588 32.23129411764717  C 50.67741176470588 32.23129411764717  50.67741176470588 32.2355294117649  50.67741176470588 32.2355294117649  C 50.67741176470588 42.59769081211971  42.277220223884115 50.993647058823626  31.91505882352942 50.993647058823626  C 31.91505882352942 50.993647058823626  31.91505882352942 50.993647058823626  31.91505882352942 51  L 18.783529411764675 51  C 8.423021771328365 50.993647322786956  0.023515185631197255 42.59603678823805  0 32.2355294117649  L 0 19.101882352941402  Z " fill-rule="nonzero" fill="#333c4f" stroke="none" transform="matrix(1 0 0 1 443 1248 )" />
  </g>
</svg>