<?xml version="1.0" encoding="utf-8"?>
<svg version="1.1" xmlns:xlink="http://www.w3.org/1999/xlink" width="130px" height="130px" xmlns="http://www.w3.org/2000/svg">
  <defs>
    <filter x="19px" y="21px" width="130px" height="130px" filterUnits="userSpaceOnUse" id="filter5676">
      <feOffset dx="5" dy="5" in="SourceAlpha" result="shadowOffsetInner" />
      <feGaussianBlur stdDeviation="5" in="shadowOffsetInner" result="shadowGaussian" />
      <feComposite in2="shadowGaussian" operator="atop" in="SourceAlpha" result="shadowComposite" />
      <feColorMatrix type="matrix" values="0 0 0 0 0.36470588235294116  0 0 0 0 0.6392156862745098  0 0 0 0 0.5098039215686274  0 0 0 1 0  " in="shadowComposite" />
    </filter>
    <g id="widget5677">
      <path d="M 79 28  C 108.68 28  132 51.31999999999999  132 81  C 132 110.68  108.68 134  79 134  C 49.31999999999999 134  26 110.68  26 81  C 26 51.31999999999999  49.31999999999999 28  79 28  Z " fill-rule="nonzero" fill="#ffffff" stroke="none" />
      <path d="M 79 27.5  C 108.96000000000001 27.5  132.5 51.03999999999999  132.5 81  C 132.5 110.96000000000001  108.96000000000001 134.5  79 134.5  C 49.03999999999999 134.5  25.5 110.96000000000001  25.5 81  C 25.5 51.03999999999999  49.03999999999999 27.5  79 27.5  Z " stroke-width="3" stroke="#5a754e" fill="none" />
    </g>
  </defs>
  <g transform="matrix(1 0 0 1 -19 -21 )">
    <use xlink:href="#widget5677" filter="url(#filter5676)" />
    <use xlink:href="#widget5677" />
  </g>
</svg>